SplineFontDB: 3.0
FontName: Jost-HeavyItalic
FullName: Jost* 800 Heavy Italic
FamilyName: Jost* Heavy
Weight: Heavy
Copyright: This typeface is licensed under the SIL open font license.
UComments: "2018-6-8: Created with FontForge (http://fontforge.org)"
Version: 003.400
ItalicAngle: -10
UnderlinePosition: -100
UnderlineWidth: 50
Ascent: 800
Descent: 200
InvalidEm: 0
LayerCount: 2
Layer: 0 0 "Back" 1
Layer: 1 0 "Fore" 0
XUID: [1021 69 1495626776 760146]
FSType: 0
OS2Version: 0
OS2_WeightWidthSlopeOnly: 0
OS2_UseTypoMetrics: 0
CreationTime: 1528480336
ModificationTime: 1577674217
PfmFamily: 17
TTFWeight: 800
TTFWidth: 5
LineGap: 100
VLineGap: 0
OS2TypoAscent: 825
OS2TypoAOffset: 0
OS2TypoDescent: -225
OS2TypoDOffset: 0
OS2TypoLinegap: 100
OS2WinAscent: 900
OS2WinAOffset: 0
OS2WinDescent: 300
OS2WinDOffset: 0
HheadAscent: 1030
HheadAOffset: 0
HheadDescent: -350
HheadDOffset: 0
OS2CapHeight: 700
OS2XHeight: 460
OS2Vendor: 'PfEd'
Lookup: 1 0 0 "alt a" { "alt a"  } ['ss01' ('DFLT' <'dflt' > 'latn' <'dflt' > ) ]
Lookup: 1 0 0 "Tabular Numbers lookup" { "Tabular Numbers lookup"  } ['tnum' ('DFLT' <'dflt' > 'grek' <'dflt' > 'latn' <'dflt' > ) ]
Lookup: 258 0 0 "Lets get our kern on" { "kernin like nobodys business" [150,0,4] } ['kern' ('DFLT' <'dflt' > 'latn' <'dflt' > ) ]
MarkAttachClasses: 1
DEI: 91125
KernClass2: 16 14 "kernin like nobodys business"
 43 slash seven V W Wcircumflex uni040E uni0423
 175 quotedbl quotesingle asterisk grave dieresis ordfeminine macron degree acute ordmasculine circumflex breve dotaccent ring tilde quoteleft quoteright quotedblleft quotedblright
 25 nine question F P uni0420
 131 A L backslash Agrave Aacute Acircumflex Atilde Adieresis Aring Amacron Abreve Aogonek Lacute uni013B Lslash uni0410 uni0414 uni041C
 58 three eight B C germandbls uni0411 uni0412 uni0417 uni0421
 29 K X Z uni0416 uni041A uni0425

StartChar: H
Encoding: 72 72 0
Width: 783
VWidth: 0
Flags: HMW
LayerCount: 2
Fore
SplineSet
134 280 m 1
 164 452 l 1
 696 452 l 1
 666 280 l 1
 134 280 l 1
617 700 m 1
 809 700 l 1
 689 0 l 1
 497 0 l 1
 617 700 l 1
161 700 m 1
 353 700 l 1
 232 0 l 1
 41 0 l 1
 161 700 l 1
EndSplineSet
EndChar

StartChar: O
Encoding: 79 79 1
Width: 805
VWidth: 0
Flags: HMW
LayerCount: 2
Fore
SplineSet
265 350 m 0
 249 252 290 161 398 159 c 0
 507 157 588 245 606 350 c 0
 622 449 584 540 474 541 c 0
 365 542 283 455 265 350 c 0
62 350 m 0
 94 561 277 718 493 718 c 0
 707 718 840 554 810 350 c 0
 778 138 599 -26 377 -26 c 0
 159 -26 32 146 62 350 c 0
EndSplineSet
EndChar

StartChar: I
Encoding: 73 73 2
Width: 331
VWidth: 0
Flags: HMW
LayerCount: 2
Fore
SplineSet
161 700 m 1
 356 700 l 1
 236 0 l 1
 41 0 l 1
 161 700 l 1
EndSplineSet
EndChar

StartChar: C
Encoding: 67 67 3
Width: 684
VWidth: 0
Flags: HMW
LayerCount: 2
Fore
SplineSet
272 350 m 0
 254 245 318 168 423 166 c 0
 515 165 583 210 639 255 c 1
 609 50 l 1
 547 10 480 -18 389 -18 c 0
 167 -18 31 142 62 350 c 0
 94 564 277 718 504 718 c 0
 592 718 652 691 708 649 c 1
 677 444 l 1
 635 495 580 534 496 534 c 0
 388 534 291 460 272 350 c 0
EndSplineSet
EndChar

StartChar: E
Encoding: 69 69 4
Width: 600
VWidth: 0
Flags: HMW
LayerCount: 2
Fore
SplineSet
169 0 m 1
 197 157 l 1
 542 157 l 1
 514 0 l 1
 169 0 l 1
262 543 m 1
 289 700 l 1
 635 700 l 1
 608 543 l 1
 262 543 l 1
218 288 m 1
 245 440 l 1
 572 440 l 1
 544 288 l 1
 218 288 l 1
161 700 m 1
 345 700 l 1
 224 0 l 1
 41 0 l 1
 161 700 l 1
EndSplineSet
EndChar

StartChar: F
Encoding: 70 70 6
Width: 552
VWidth: 0
Flags: HMW
LayerCount: 2
Fore
SplineSet
260 534 m 1
 289 700 l 1
 596 700 l 1
 568 534 l 1
 260 534 l 1
214 263 m 1
 241 416 l 1
 538 416 l 1
 512 263 l 1
 214 263 l 1
161 700 m 1
 345 700 l 1
 224 0 l 1
 41 0 l 1
 161 700 l 1
EndSplineSet
EndChar

StartChar: G
Encoding: 71 71 7
Width: 801
VWidth: 0
Flags: HMW
LayerCount: 2
Fore
SplineSet
426 246 m 1
 452 391 l 1
 804 391 l 1
 783 168 640 -26 390 -26 c 0
 170 -26 32 140 62 350 c 0
 95 567 285 718 509 718 c 0
 647 718 740 648 800 546 c 1
 616 462 l 1
 594 513 558 552 492 552 c 0
 380 552 282 466 262 350 c 0
 244 239 293 140 410 140 c 0
 498 140 552 182 586 246 c 1
 426 246 l 1
EndSplineSet
EndChar

StartChar: T
Encoding: 84 84 8
Width: 572
VWidth: 0
Flags: HMW
LayerCount: 2
Fore
SplineSet
63 526 m 1
 93 700 l 1
 666 700 l 1
 636 526 l 1
 446 526 l 1
 356 0 l 1
 163 0 l 1
 254 526 l 1
 63 526 l 1
EndSplineSet
EndChar

StartChar: L
Encoding: 76 76 9
Width: 534
VWidth: 0
Flags: HMW
LayerCount: 2
Fore
SplineSet
161 700 m 1
 353 700 l 1
 261 166 l 1
 536 166 l 1
 508 0 l 1
 41 0 l 1
 161 700 l 1
EndSplineSet
EndChar

StartChar: D
Encoding: 68 68 10
Width: 726
VWidth: 0
Flags: HMW
LayerCount: 2
Fore
SplineSet
161 700 m 1
 360 700 l 1
 240 0 l 1
 41 0 l 1
 161 700 l 1
303 0 m 2
 169 0 l 1
 199 170 l 1
 313 170 l 2
 417 170 510 224 530 350 c 0
 549 472 485 530 385 530 c 2
 259 530 l 1
 289 700 l 1
 411 700 l 2
 631 700 761 557 730 350 c 0
 698 138 529 0 303 0 c 2
EndSplineSet
EndChar

StartChar: Q
Encoding: 81 81 11
Width: 859
VWidth: 0
Flags: HMW
LayerCount: 2
Fore
SplineSet
265 350 m 0
 248 240 303 144 415 143 c 0
 523 142 607 221 626 326 c 0
 644 428 602 539 478 541 c 0
 369 542 283 456 265 350 c 0
62 350 m 0
 94 561 281 718 497 718 c 0
 711 718 839 554 810 350 c 0
 778 139 604 -26 382 -26 c 0
 164 -26 32 145 62 350 c 0
367 300 m 1
 550 300 l 1
 834 -16 l 1
 643 -16 l 1
 367 300 l 1
EndSplineSet
EndChar

StartChar: A
Encoding: 65 65 12
Width: 734
VWidth: 0
Flags: HMW
LayerCount: 2
Fore
SplineSet
180 112 m 1
 211 256 l 1
 562 256 l 1
 542 112 l 1
 180 112 l 1
410 412 m 1
 288 202 l 1
 293 158 l 1
 188 0 l 1
 -34 0 l 1
 467 750 l 1
 710 0 l 1
 498 0 l 1
 449 152 l 1
 465 202 l 1
 410 412 l 1
EndSplineSet
EndChar

StartChar: R
Encoding: 82 82 13
Width: 653
VWidth: 0
Flags: HMW
LayerCount: 2
Fore
SplineSet
281 308 m 1
 472 308 l 1
 623 0 l 1
 406 0 l 1
 281 308 l 1
161 700 m 1
 353 700 l 1
 232 0 l 1
 41 0 l 1
 161 700 l 1
254 536 m 1
 282 700 l 1
 424 700 l 2
 589 700 683 608 665 466 c 0
 647 322 524 231 354 231 c 2
 200 231 l 1
 227 380 l 1
 354 380 l 2
 410 380 455 408 464 458 c 0
 472 506 443 536 390 536 c 2
 254 536 l 1
EndSplineSet
EndChar

StartChar: V
Encoding: 86 86 14
Width: 734
VWidth: 0
Flags: HMW
LayerCount: 2
Fore
SplineSet
398 324 m 1
 604 700 l 1
 832 700 l 1
 344 -50 l 1
 88 700 l 1
 309 700 l 1
 398 324 l 1
EndSplineSet
EndChar

StartChar: M
Encoding: 77 77 15
Width: 888
VWidth: 0
Flags: HMW
LayerCount: 2
Fore
SplineSet
300 320 m 1
 206 0 l 1
 1 0 l 1
 246 735 l 1
 471 334 l 1
 840 740 l 1
 831 0 l 1
 628 0 l 1
 645 314 l 1
 431 64 l 1
 300 320 l 1
EndSplineSet
EndChar

StartChar: W
Encoding: 87 87 16
Width: 1054
VWidth: 0
Flags: HMW
LayerCount: 2
Fore
SplineSet
742 330 m 1
 915 700 l 1
 1148 700 l 1
 729 -44 l 1
 566 340 l 1
 281 -46 l 1
 93 700 l 1
 318 700 l 1
 374 332 l 1
 623 738 l 1
 742 330 l 1
EndSplineSet
EndChar

StartChar: N
Encoding: 78 78 17
Width: 775
VWidth: 0
Flags: HMW
LayerCount: 2
Fore
SplineSet
616 700 m 1
 800 700 l 1
 675 -34 l 1
 286 356 l 1
 225 0 l 1
 41 0 l 1
 166 734 l 1
 554 344 l 1
 616 700 l 1
EndSplineSet
EndChar

StartChar: a
Encoding: 97 97 18
Width: 611
VWidth: 0
Flags: HMW
LayerCount: 2
Fore
SplineSet
442 460 m 1
 614 460 l 1
 534 0 l 1
 364 0 l 1
 442 460 l 1
40 230 m 0
 58 368 167 470 287 470 c 0
 411 470 463 356 447 230 c 0
 429 98 338 -10 216 -10 c 0
 96 -10 24 98 40 230 c 0
220 230 m 0
 212 178 238 127 291 126 c 0
 342 125 393 173 402 230 c 0
 410 283 385 332 335 334 c 0
 281 336 229 285 220 230 c 0
EndSplineSet
Substitution2: "alt a" a.alt
EndChar

StartChar: X
Encoding: 88 88 19
Width: 703
VWidth: 0
Flags: HMW
LayerCount: 2
Fore
SplineSet
540 700 m 1
 782 700 l 1
 509 352 l 1
 684 0 l 1
 452 0 l 1
 372 212 l 1
 223 0 l 1
 -19 0 l 1
 277 360 l 1
 118 700 l 1
 351 700 l 1
 415 517 l 1
 540 700 l 1
EndSplineSet
EndChar

StartChar: K
Encoding: 75 75 20
Width: 717
VWidth: 0
Flags: HMW
LayerCount: 2
Fore
SplineSet
161 700 m 1
 360 700 l 1
 240 0 l 1
 41 0 l 1
 161 700 l 1
574 700 m 1
 804 700 l 1
 472 368 l 1
 693 0 l 1
 468 0 l 1
 248 370 l 1
 574 700 l 1
EndSplineSet
EndChar

StartChar: Y
Encoding: 89 89 21
Width: 669
VWidth: 0
Flags: HMW
LayerCount: 2
Fore
SplineSet
544 700 m 1
 770 700 l 1
 452 276 l 1
 406 0 l 1
 210 0 l 1
 260 284 l 1
 90 700 l 1
 307 700 l 1
 384 459 l 1
 544 700 l 1
EndSplineSet
EndChar

StartChar: B
Encoding: 66 66 22
Width: 675
VWidth: 0
Flags: HMW
LayerCount: 2
Fore
SplineSet
239 342 m 1
 254 424 l 1
 360 424 l 2
 408 424 448 448 456 491 c 0
 463 532 435 552 390 552 c 2
 328 552 l 1
 257 148 l 1
 330 148 l 2
 384 149 440 166 449 224 c 0
 457 276 414 291 364 292 c 2
 230 292 l 1
 249 398 l 1
 396 398 l 2
 522 398 662 336 642 194 c 0
 622 52 495 0 340 0 c 2
 41 0 l 1
 161 700 l 1
 430 700 l 2
 557 700 678 644 659 520 c 0
 641 398 514 342 380 342 c 2
 239 342 l 1
EndSplineSet
EndChar

StartChar: Z
Encoding: 90 90 23
Width: 622
VWidth: 0
Flags: HMW
LayerCount: 2
Fore
SplineSet
123 526 m 1
 153 700 l 1
 708 700 l 1
 308 166 l 1
 576 166 l 1
 546 0 l 1
 -24 0 l 1
 370 526 l 1
 123 526 l 1
EndSplineSet
EndChar

StartChar: o
Encoding: 111 111 24
Width: 584
VWidth: 0
Flags: HMW
LayerCount: 2
Fore
SplineSet
47 230 m 0
 66 374 193 470 343 470 c 0
 489 470 593 372 575 230 c 0
 556 86 429 -10 279 -10 c 0
 133 -10 29 88 47 230 c 0
222 230 m 0
 215 177 241 131 292 130 c 0
 344 129 392 174 400 230 c 0
 407 283 381 329 330 330 c 0
 278 331 230 286 222 230 c 0
EndSplineSet
EndChar

StartChar: J
Encoding: 74 74 25
Width: 346
VWidth: 0
Flags: HMW
LayerCount: 2
Fore
SplineSet
-112 -52 m 1
 -92 -68 -66 -84 -39 -84 c 0
 -3 -83 34 -53 40 -5 c 2
 161 700 l 1
 372 700 l 1
 244 -52 l 2
 222 -186 99 -244 -33 -244 c 0
 -111 -244 -180 -216 -234 -184 c 1
 -112 -52 l 1
EndSplineSet
EndChar

StartChar: t
Encoding: 116 116 26
Width: 330
VWidth: 0
Flags: HMW
LayerCount: 2
Fore
SplineSet
56 460 m 1
 380 460 l 1
 355 320 l 1
 30 320 l 1
 56 460 l 1
163 620 m 1
 327 620 l 1
 220 0 l 1
 56 0 l 1
 163 620 l 1
EndSplineSet
EndChar

StartChar: d
Encoding: 100 100 27
Width: 611
VWidth: 0
Flags: HMW
LayerCount: 2
Fore
SplineSet
497 780 m 1
 668 780 l 1
 534 0 l 1
 363 0 l 1
 497 780 l 1
40 230 m 0
 58 368 167 470 287 470 c 0
 411 470 463 356 447 230 c 0
 429 98 338 -10 216 -10 c 0
 96 -10 24 98 40 230 c 0
220 230 m 0
 212 178 238 127 291 126 c 0
 342 125 393 173 402 230 c 0
 410 283 385 332 335 334 c 0
 281 336 229 285 220 230 c 0
EndSplineSet
EndChar

StartChar: l
Encoding: 108 108 28
Width: 273
VWidth: 0
Flags: HMW
LayerCount: 2
Fore
SplineSet
157 780 m 1
 330 780 l 1
 195 0 l 1
 24 0 l 1
 157 780 l 1
EndSplineSet
EndChar

StartChar: i
Encoding: 105 105 29
Width: 272
VWidth: 0
Flags: HMW
LayerCount: 2
Fore
SplineSet
118 626 m 0
 118 680 162 716 216 716 c 0
 270 716 314 680 314 626 c 0
 314 572 270 537 216 537 c 0
 162 537 118 572 118 626 c 0
104 460 m 1
 270 460 l 1
 192 0 l 1
 26 0 l 1
 104 460 l 1
EndSplineSet
EndChar

StartChar: r
Encoding: 114 114 30
Width: 423
VWidth: 0
Flags: HMW
LayerCount: 2
Fore
SplineSet
271 460 m 1
 191 0 l 1
 24 0 l 1
 103 460 l 1
 271 460 l 1
374 283 m 1
 361 297 345 310 322 310 c 0
 275 311 235 263 228 210 c 1
 210 281 l 1
 227 377 309 472 389 472 c 0
 423 472 449 453 466 430 c 1
 374 283 l 1
EndSplineSet
EndChar

StartChar: c
Encoding: 99 99 31
Width: 477
VWidth: 0
Flags: HMW
LayerCount: 2
Fore
SplineSet
215 230 m 0
 206 170 244 127 304 125 c 0
 356 123 405 151 440 188 c 1
 419 26 l 1
 381 4 336 -10 276 -10 c 0
 128 -10 22 88 40 230 c 0
 59 374 188 470 340 470 c 0
 400 470 441 455 478 435 c 1
 457 273 l 1
 431 313 388 336 344 336 c 0
 279 336 225 289 215 230 c 0
EndSplineSet
EndChar

StartChar: b
Encoding: 98 98 32
Width: 611
VWidth: 0
Flags: HMW
LayerCount: 2
Fore
SplineSet
328 780 m 1
 194 0 l 1
 23 0 l 1
 157 780 l 1
 328 780 l 1
596 230 m 0
 578 92 470 -10 350 -10 c 0
 226 -10 174 104 190 230 c 0
 208 362 299 470 421 470 c 0
 541 470 612 362 596 230 c 0
418 230 m 0
 426 282 399 333 346 334 c 0
 295 335 243 287 234 230 c 0
 226 177 253 128 303 126 c 0
 357 124 409 175 418 230 c 0
EndSplineSet
EndChar

StartChar: p
Encoding: 112 112 33
Width: 611
VWidth: 0
Flags: HMW
LayerCount: 2
Fore
SplineSet
158 -220 m 1
 -14 -220 l 1
 102 460 l 1
 274 460 l 1
 158 -220 l 1
596 230 m 0
 578 87 470 -18 348 -18 c 0
 218 -18 182 106 198 230 c 0
 216 362 294 478 422 478 c 0
 544 478 612 367 596 230 c 0
418 231 m 0
 426 284 397 324 345 326 c 0
 295 328 242 286 234 229 c 0
 226 175 256 136 304 134 c 0
 357 132 410 176 418 231 c 0
EndSplineSet
EndChar

StartChar: q
Encoding: 113 113 34
Width: 611
VWidth: 0
Flags: HMW
LayerCount: 2
Fore
SplineSet
325 -220 m 1
 442 460 l 1
 614 460 l 1
 496 -220 l 1
 325 -220 l 1
40 230 m 0
 58 373 166 478 288 478 c 0
 418 478 455 354 439 230 c 0
 421 98 342 -18 214 -18 c 0
 92 -18 24 93 40 230 c 0
220 229 m 0
 212 176 240 136 292 134 c 0
 342 132 394 174 402 231 c 0
 410 285 381 324 333 326 c 0
 280 328 228 284 220 229 c 0
EndSplineSet
EndChar

StartChar: h
Encoding: 104 104 35
Width: 563
VWidth: 0
Flags: HMW
LayerCount: 2
Fore
SplineSet
330 780 m 1
 195 0 l 1
 24 0 l 1
 158 780 l 1
 330 780 l 1
365 280 m 2
 370 317 366 350 325 354 c 0
 283 358 253 320 243 280 c 1
 216 281 l 1
 234 383 291 477 408 478 c 0
 522 479 552 406 538 306 c 1
 486 0 l 1
 315 0 l 1
 365 280 l 2
EndSplineSet
EndChar

StartChar: n
Encoding: 110 110 36
Width: 572
VWidth: 0
Flags: HMW
LayerCount: 2
Fore
SplineSet
365 280 m 2
 369 317 365 354 320 354 c 0
 278 354 251 327 244 282 c 2
 195 0 l 1
 24 0 l 1
 103 460 l 1
 274 460 l 1
 264 397 l 1
 295 441 341 470 406 470 c 0
 520 471 559 398 544 298 c 2
 494 0 l 1
 315 0 l 1
 365 280 l 2
EndSplineSet
EndChar

StartChar: m
Encoding: 109 109 37
Width: 807
VWidth: 0
Flags: HMW
LayerCount: 2
Fore
SplineSet
780 298 m 2
 729 0 l 1
 557 0 l 1
 608 280 l 2
 612 315 612 354 576 354 c 0
 541 354 513 327 506 281 c 2
 458 0 l 1
 287 0 l 1
 338 280 l 2
 341 315 340 354 305 354 c 0
 271 354 243 328 237 284 c 2
 188 0 l 1
 24 0 l 1
 103 460 l 1
 267 460 l 1
 257 398 l 1
 287 442 331 470 393 470 c 0
 463 470 497 442 508 395 c 1
 546 441 600 470 664 470 c 0
 772 470 792 394 780 298 c 2
EndSplineSet
EndChar

StartChar: k
Encoding: 107 107 38
Width: 599
VWidth: 0
Flags: HMW
LayerCount: 2
Fore
SplineSet
157 780 m 1
 320 780 l 1
 186 0 l 1
 24 0 l 1
 157 780 l 1
421 460 m 1
 630 460 l 1
 400 266 l 1
 563 0 l 1
 372 0 l 1
 204 274 l 1
 421 460 l 1
EndSplineSet
EndChar

StartChar: u
Encoding: 117 117 39
Width: 572
VWidth: 0
Flags: HMW
LayerCount: 2
Fore
SplineSet
232 180 m 2
 228 143 230 106 272 106 c 0
 313 106 344 130 352 178 c 2
 402 460 l 1
 573 460 l 1
 494 0 l 1
 322 0 l 1
 332 63 l 1
 301 19 255 -10 190 -10 c 0
 76 -10 39 62 52 162 c 1
 103 460 l 1
 282 460 l 1
 232 180 l 2
EndSplineSet
EndChar

StartChar: e
Encoding: 101 101 40
Width: 573
VWidth: 0
Flags: HMW
LayerCount: 2
Fore
SplineSet
287 -10 m 0
 139 -10 44 70 44 200 c 0
 44 354 166 470 344 470 c 0
 490 470 566 391 566 265 c 0
 566 243 563 216 556 194 c 1
 128 194 l 1
 128 283 l 1
 414 283 l 1
 378 237 l 1
 386 249 392 264 392 276 c 0
 392 328 373 360 327 360 c 0
 264 360 232 314 216 226 c 0
 202 156 233 110 293 110 c 0
 339 110 371 128 395 162 c 1
 547 132 l 1
 497 38 409 -10 287 -10 c 0
EndSplineSet
EndChar

StartChar: g
Encoding: 103 103 41
Width: 603
VWidth: 0
Flags: HMW
LayerCount: 2
Fore
SplineSet
4 -34 m 1
 166 -34 l 1
 170 -82 191 -106 240 -106 c 0
 305 -107 354 -57 364 10 c 2
 442 460 l 1
 606 460 l 1
 528 10 l 2
 502 -154 391 -242 237 -242 c 0
 77 -242 5 -162 4 -34 c 1
42 238 m 0
 60 376 168 470 287 470 c 0
 409 470 465 364 449 238 c 0
 432 106 340 6 218 6 c 0
 99 6 26 106 42 238 c 0
221 237 m 0
 213 184 242 144 294 142 c 0
 344 140 396 182 404 239 c 0
 412 293 383 334 335 334 c 0
 278 334 229 292 221 237 c 0
EndSplineSet
EndChar

StartChar: f
Encoding: 102 102 42
Width: 350
VWidth: 0
Flags: HMW
LayerCount: 2
Fore
SplineSet
62 460 m 1
 394 460 l 1
 370 320 l 1
 37 320 l 1
 62 460 l 1
405 620 m 1
 395 634 382 646 365 646 c 0
 334 646 311 617 306 583 c 2
 205 0 l 1
 42 0 l 1
 148 630 l 2
 166 728 240 799 355 798 c 0
 419 798 457 770 487 743 c 1
 405 620 l 1
EndSplineSet
EndChar

StartChar: s
Encoding: 115 115 43
Width: 458
VWidth: 0
Flags: HMW
LayerCount: 2
Fore
SplineSet
85 174 m 1
 144 125 195 98 234 101 c 0
 256 102 273 114 274 132 c 0
 277 161 244 172 193 190 c 0
 130 213 76 256 84 336 c 0
 94 424 177 470 273 470 c 0
 349 470 412 441 470 407 c 1
 408 294 l 1
 372 328 324 356 282 356 c 0
 259 356 241 345 239 330 c 0
 234 298 284 291 332 272 c 0
 396 246 448 208 442 130 c 0
 432 30 357 -21 252 -22 c 0
 156 -23 79 12 9 58 c 1
 85 174 l 1
EndSplineSet
EndChar

StartChar: y
Encoding: 121 121 44
Width: 528
VWidth: 0
Flags: HMW
LayerCount: 2
Fore
SplineSet
597 460 m 1
 189 -220 l 1
 15 -220 l 1
 167 33 l 1
 41 460 l 1
 221 460 l 1
 303 88 l 1
 212 89 l 1
 420 460 l 1
 597 460 l 1
EndSplineSet
EndChar

StartChar: w
Encoding: 119 119 45
Width: 761
VWidth: 0
Flags: HMW
LayerCount: 2
Fore
SplineSet
42 460 m 1
 214 460 l 1
 263 248 l 1
 437 498 l 1
 524 246 l 1
 648 460 l 1
 829 460 l 1
 502 -29 l 1
 395 225 l 1
 200 -30 l 1
 42 460 l 1
EndSplineSet
EndChar

StartChar: v
Encoding: 118 118 46
Width: 536
VWidth: 0
Flags: HMW
LayerCount: 2
Fore
SplineSet
51 460 m 1
 230 460 l 1
 286 230 l 1
 416 460 l 1
 599 460 l 1
 244 -62 l 1
 51 460 l 1
EndSplineSet
EndChar

StartChar: x
Encoding: 120 120 47
Width: 549
VWidth: 0
Flags: HMW
LayerCount: 2
Fore
SplineSet
404 460 m 1
 598 460 l 1
 382 232 l 1
 530 0 l 1
 348 0 l 1
 278 124 l 1
 180 0 l 1
 -22 0 l 1
 206 244 l 1
 65 460 l 1
 255 460 l 1
 312 352 l 1
 404 460 l 1
EndSplineSet
EndChar

StartChar: z
Encoding: 122 122 48
Width: 524
VWidth: 0
Flags: HMW
LayerCount: 2
Fore
SplineSet
256 304 m 1
 82 304 l 1
 110 460 l 1
 566 460 l 1
 308 156 l 1
 477 156 l 1
 450 0 l 1
 -17 0 l 1
 256 304 l 1
EndSplineSet
EndChar

StartChar: j
Encoding: 106 106 49
Width: 269
VWidth: 0
Flags: HMW
LayerCount: 2
Fore
SplineSet
116 626 m 0
 116 680 160 716 214 716 c 0
 268 716 312 680 312 626 c 0
 312 572 268 537 214 537 c 0
 160 537 116 572 116 626 c 0
-80 -66 m 1
 -70 -80 -55 -92 -36 -92 c 0
 -4 -92 16 -62 20 -30 c 2
 104 460 l 1
 268 460 l 1
 176 -77 l 2
 158 -175 87 -245 -28 -244 c 0
 -91 -244 -131 -217 -161 -189 c 1
 -80 -66 l 1
EndSplineSet
EndChar

StartChar: P
Encoding: 80 80 50
Width: 625
VWidth: 0
Flags: HMW
LayerCount: 2
Fore
SplineSet
161 700 m 1
 353 700 l 1
 232 0 l 1
 41 0 l 1
 161 700 l 1
255 544 m 1
 282 700 l 1
 408 700 l 1
 574 698 664 614 650 466 c 0
 635 316 512 233 340 231 c 1
 200 231 l 1
 228 388 l 1
 356 388 l 1
 412 388 457 416 466 466 c 0
 474 514 443 544 390 544 c 2
 255 544 l 1
EndSplineSet
EndChar

StartChar: U
Encoding: 85 85 51
Width: 701
VWidth: 0
Flags: HMW
LayerCount: 2
Fore
SplineSet
156 700 m 1
 348 700 l 1
 269 246 l 2
 262 190 278 141 343 140 c 0
 411 139 450 187 461 246 c 1
 540 700 l 1
 731 700 l 1
 651 230 l 2
 623 58 492 -34 324 -34 c 0
 164 -34 53 60 76 230 c 1
 156 700 l 1
EndSplineSet
EndChar

StartChar: S
Encoding: 83 83 52
Width: 629
VWidth: 0
Flags: HMW
LayerCount: 2
Fore
SplineSet
171 256 m 1
 203 189 248 140 316 140 c 0
 359 140 397 163 402 199 c 0
 410 244 360 261 288 291 c 0
 212 325 122 392 134 511 c 0
 150 642 279 718 417 718 c 0
 547 718 624 646 659 562 c 1
 507 484 l 1
 483 528 451 556 402 556 c 0
 365 556 333 540 328 510 c 0
 319 464 400 441 460 418 c 0
 556 381 616 308 604 204 c 0
 586 58 446 -26 304 -26 c 0
 172 -26 68 52 30 161 c 1
 171 256 l 1
EndSplineSet
EndChar

StartChar: at
Encoding: 64 64 53
Width: 747
VWidth: 0
Flags: HMW
LayerCount: 2
Fore
SplineSet
348 320 m 0
 345 292 346 263 368 259 c 0
 402 252 443 320 448 362 c 0
 451 392 450 419 428 423 c 0
 392 430 353 361 348 320 c 0
217 312 m 0
 230 426 310 532 402 530 c 0
 478 529 509 444 500 370 c 0
 488 256 414 152 322 152 c 0
 236 152 207 228 217 312 c 0
40 320 m 0
 74 540 262 726 494 726 c 0
 698 726 800 556 774 390 c 0
 757 245 662 139 546 142 c 0
 472 144 439 197 446 262 c 1
 438 303 l 1
 493 520 l 1
 618 520 l 1
 563 314 l 2
 561 306 558 295 556 286 c 0
 554 269 554 252 569 249 c 0
 603 239 647 317 652 390 c 0
 671 504 627 616 486 616 c 0
 315 616 190 482 162 320 c 0
 140 186 197 82 352 80 c 0
 420 80 478 98 536 122 c 1
 559 21 l 1
 493 -11 417 -30 328 -30 c 0
 112 -28 12 130 40 320 c 0
EndSplineSet
EndChar

StartChar: period
Encoding: 46 46 54
Width: 319
VWidth: 0
Flags: HMW
LayerCount: 2
Fore
SplineSet
44 76 m 0
 44 133 88 180 150 180 c 0
 212 180 256 133 256 76 c 0
 256 19 212 -27 150 -27 c 0
 88 -27 44 19 44 76 c 0
EndSplineSet
EndChar

StartChar: comma
Encoding: 44 44 55
Width: 318
VWidth: 0
Flags: HMW
LayerCount: 2
Fore
SplineSet
97 109 m 1
 266 75 l 1
 97 -172 l 1
 -32 -148 l 1
 97 109 l 1
EndSplineSet
EndChar

StartChar: colon
Encoding: 58 58 56
Width: 319
VWidth: 0
Flags: HMW
LayerCount: 2
Fore
SplineSet
40 76 m 0
 40 133 84 180 146 180 c 0
 208 180 252 133 252 76 c 0
 252 19 208 -27 146 -27 c 0
 84 -27 40 19 40 76 c 0
103 448 m 0
 103 505 147 552 209 552 c 0
 271 552 316 505 316 448 c 0
 316 391 271 344 209 344 c 0
 147 344 103 391 103 448 c 0
EndSplineSet
EndChar

StartChar: semicolon
Encoding: 59 59 57
Width: 399
VWidth: 0
Flags: HMW
LayerCount: 2
Fore
SplineSet
158 440 m 0
 158 497 202 544 264 544 c 0
 326 544 371 497 371 440 c 0
 371 383 326 336 264 336 c 0
 202 336 158 383 158 440 c 0
125 109 m 1
 293 75 l 1
 124 -172 l 1
 -5 -148 l 1
 125 109 l 1
EndSplineSet
EndChar

StartChar: quotedbl
Encoding: 34 34 58
Width: 518
VWidth: 0
Flags: HMW
LayerCount: 2
Fore
SplineSet
184 700 m 1
 364 700 l 1
 206 376 l 1
 92 376 l 1
 184 700 l 1
398 700 m 1
 578 700 l 1
 420 376 l 1
 306 376 l 1
 398 700 l 1
EndSplineSet
EndChar

StartChar: exclam
Encoding: 33 33 59
Width: 345
VWidth: 0
Flags: HMW
LayerCount: 2
Fore
SplineSet
162 700 m 1
 371 700 l 1
 258 240 l 1
 117 240 l 1
 162 700 l 1
52 68 m 0
 52 125 96 164 158 164 c 0
 220 164 265 125 265 68 c 0
 265 11 220 -27 158 -27 c 0
 96 -27 52 11 52 68 c 0
EndSplineSet
EndChar

StartChar: quotesingle
Encoding: 39 39 60
Width: 303
VWidth: 0
Flags: HMW
LayerCount: 2
Fore
SplineSet
184 700 m 1
 364 700 l 1
 206 376 l 1
 92 376 l 1
 184 700 l 1
EndSplineSet
EndChar

StartChar: numbersign
Encoding: 35 35 61
Width: 665
VWidth: 0
Flags: HMW
LayerCount: 2
Fore
SplineSet
116 404 m 1
 137 542 l 1
 699 542 l 1
 675 404 l 1
 524 404 l 1
 493 412 l 1
 291 412 l 1
 260 404 l 1
 116 404 l 1
32 164 m 1
 57 302 l 1
 192 302 l 1
 227 294 l 1
 459 294 l 1
 492 302 l 1
 620 302 l 1
 595 164 l 1
 32 164 l 1
554 700 m 1
 705 700 l 1
 420 0 l 1
 270 0 l 1
 361 223 l 1
 380 250 l 1
 463 454 l 1
 469 490 l 1
 554 700 l 1
311 700 m 1
 462 700 l 1
 376 490 l 1
 352 453 l 1
 271 254 l 1
 268 226 l 1
 176 0 l 1
 27 0 l 1
 311 700 l 1
EndSplineSet
EndChar

StartChar: hyphen
Encoding: 45 45 62
Width: 219
VWidth: 0
Flags: HMW
LayerCount: 2
Fore
SplineSet
4 164 m 1
 30 312 l 1
 243 312 l 1
 217 164 l 1
 4 164 l 1
EndSplineSet
EndChar

StartChar: dollar
Encoding: 36 36 63
Width: 615
VWidth: 0
Flags: HMW
LayerCount: 2
Fore
SplineSet
363 818 m 1
 501 818 l 1
 463 628 l 1
 341 628 l 1
 363 818 l 1
256 66 m 1
 376 66 l 1
 356 -112 l 1
 219 -112 l 1
 256 66 l 1
499 482 m 1
 477 531 448 572 401 572 c 0
 361 572 329 547 323 517 c 0
 311 460 397 443 459 419 c 0
 555 381 617 306 603 198 c 0
 584 60 453 -11 299 -10 c 0
 175 -9 72 66 32 164 c 1
 174 258 l 1
 209 189 247 142 317 142 c 0
 361 142 396 161 402 199 c 0
 411 249 345 268 286 292 c 0
 208 326 114 396 128 516 c 0
 145 630 270 710 407 710 c 0
 537 710 606 648 650 562 c 1
 499 482 l 1
EndSplineSet
EndChar

StartChar: bar
Encoding: 124 124 64
Width: 364
VWidth: 0
Flags: HMW
LayerCount: 2
Fore
SplineSet
200 785 m 1
 373 785 l 1
 219 -215 l 1
 45 -215 l 1
 200 785 l 1
EndSplineSet
EndChar

StartChar: zero
Encoding: 48 48 65
Width: 660
VWidth: 0
Flags: HMW
LayerCount: 2
Fore
SplineSet
253 350 m 0
 244 264 244 154 324 152 c 0
 405 150 458 253 472 350 c 0
 481 436 482 546 402 548 c 0
 321 550 267 447 253 350 c 0
70 350 m 0
 98 554 230 714 420 714 c 0
 616 714 680 544 656 350 c 0
 628 144 500 -14 306 -14 c 0
 115 -14 46 156 70 350 c 0
EndSplineSet
Substitution2: "Tabular Numbers lookup" uniFF10
EndChar

StartChar: one
Encoding: 49 49 66
Width: 511
VWidth: 0
Flags: HMW
LayerCount: 2
Fore
SplineSet
114 477 m 1
 144 645 l 1
 514 715 l 1
 391 0 l 1
 206 0 l 1
 296 518 l 1
 114 477 l 1
EndSplineSet
Substitution2: "Tabular Numbers lookup" uniFF11
EndChar

StartChar: two
Encoding: 50 50 67
Width: 662
VWidth: 0
Flags: HMW
LayerCount: 2
Fore
SplineSet
-2 0 m 1
 344 314 l 2
 399 367 456 411 465 473 c 0
 470 512 450 549 400 550 c 0
 339 552 300 494 288 436 c 1
 100 436 l 1
 126 588 240 715 422 715 c 0
 576 715 682 610 664 486 c 0
 654 408 601 347 538 299 c 2
 380 178 l 1
 637 178 l 1
 609 0 l 1
 -2 0 l 1
EndSplineSet
Substitution2: "Tabular Numbers lookup" uniFF12
EndChar

StartChar: four
Encoding: 52 52 68
Width: 711
VWidth: 0
Flags: HMW
LayerCount: 2
Fore
SplineSet
1 120 m 1
 500 700 l 1
 654 700 l 1
 534 0 l 1
 334 0 l 1
 364 176 l 1
 389 186 l 1
 430 429 l 1
 275 256 l 1
 522 256 l 1
 544 284 l 1
 690 284 l 1
 662 120 l 1
 1 120 l 1
EndSplineSet
Substitution2: "Tabular Numbers lookup" uniFF14
EndChar

StartChar: slash
Encoding: 47 47 69
Width: 617
VWidth: 0
Flags: HMW
LayerCount: 2
Fore
SplineSet
531 700 m 1
 700 700 l 1
 133 -150 l 1
 -42 -150 l 1
 531 700 l 1
EndSplineSet
EndChar

StartChar: backslash
Encoding: 92 92 70
Width: 538
VWidth: 0
Flags: HMW
LayerCount: 2
Fore
SplineSet
108 700 m 1
 268 700 l 1
 496 0 l 1
 337 0 l 1
 108 700 l 1
EndSplineSet
EndChar

StartChar: eight
Encoding: 56 56 71
Width: 631
VWidth: 0
Flags: HMW
LayerCount: 2
Fore
SplineSet
136 532 m 0
 154 655 279 718 406 718 c 0
 527 718 642 654 624 530 c 0
 606 402 470 338 352 338 c 0
 240 338 118 404 136 532 c 0
311 512 m 0
 306 477 323 443 361 443 c 0
 403 443 436 477 442 514 c 0
 447 550 430 582 392 582 c 0
 349 582 317 550 311 512 c 0
54 190 m 0
 74 334 228 398 352 398 c 0
 468 398 610 334 590 190 c 0
 570 56 428 -18 292 -18 c 0
 162 -18 35 57 54 190 c 0
249 219 m 0
 242 174 265 138 309 138 c 0
 359 138 397 173 404 221 c 0
 410 260 387 298 344 298 c 0
 295 298 257 260 249 219 c 0
EndSplineSet
Substitution2: "Tabular Numbers lookup" uniFF18
EndChar

StartChar: nine
Encoding: 57 57 72
Width: 676
VWidth: 0
Flags: HMW
LayerCount: 2
Fore
SplineSet
493 450 m 0
 501 506 468 552 410 553 c 0
 350 554 297 509 288 450 c 0
 280 394 312 345 370 344 c 0
 430 343 484 391 493 450 c 0
340 4 m 1
 92 4 l 1
 353 245 l 1
 402 266 l 1
 364 236 330 222 282 222 c 0
 170 222 85 323 99 450 c 0
 119 619 265 718 427 718 c 0
 586 718 704 616 682 450 c 0
 670 367 619 300 562 240 c 2
 340 4 l 1
EndSplineSet
Substitution2: "Tabular Numbers lookup" uniFF19
EndChar

StartChar: three
Encoding: 51 51 73
Width: 623
VWidth: 0
Flags: HMW
LayerCount: 2
Fore
SplineSet
308 338 m 1
 319 419 l 1
 381 423 450 452 456 505 c 0
 459 537 440 561 400 561 c 0
 352 563 318 526 306 486 c 1
 130 487 l 1
 154 618 262 714 414 714 c 0
 556 714 663 637 646 517 c 0
 626 377 462 340 308 338 c 1
303 -18 m 0
 139 -17 48 98 59 234 c 1
 246 234 l 1
 243 175 269 138 325 136 c 0
 375 135 422 161 430 212 c 0
 442 273 382 298 303 300 c 1
 316 395 l 1
 477 393 635 346 614 192 c 0
 596 60 464 -19 303 -18 c 0
EndSplineSet
Substitution2: "Tabular Numbers lookup" uniFF13
EndChar

StartChar: five
Encoding: 53 53 74
Width: 649
VWidth: 0
Flags: HMW
LayerCount: 2
Fore
SplineSet
630 222 m 0
 610 64 452 -13 312 -14 c 0
 199 -14 110 18 36 61 c 1
 121 226 l 1
 174 187 231 164 282 164 c 0
 350 164 415 185 424 246 c 0
 432 305 370 323 316 324 c 0
 256 325 180 313 110 287 c 1
 267 700 l 1
 686 700 l 1
 660 532 l 1
 384 532 l 1
 326 424 l 1
 364 440 407 448 451 448 c 0
 567 446 645 350 630 222 c 0
EndSplineSet
Substitution2: "Tabular Numbers lookup" uniFF15
EndChar

StartChar: six
Encoding: 54 54 75
Width: 676
VWidth: 0
Flags: HMW
LayerCount: 2
Fore
SplineSet
258 250 m 0
 250 194 282 148 340 147 c 0
 400 146 453 191 462 250 c 0
 470 306 438 355 380 356 c 0
 320 357 267 309 258 250 c 0
410 696 m 1
 658 696 l 1
 398 455 l 1
 349 434 l 1
 387 464 420 478 468 478 c 0
 580 478 666 377 652 250 c 0
 632 81 486 -18 324 -18 c 0
 165 -18 46 84 68 250 c 0
 80 333 131 400 188 460 c 2
 410 696 l 1
EndSplineSet
Substitution2: "Tabular Numbers lookup" uniFF16
EndChar

StartChar: seven
Encoding: 55 55 76
Width: 607
VWidth: 0
Flags: HMW
LayerCount: 2
Fore
SplineSet
90 518 m 1
 118 700 l 1
 702 700 l 1
 264 0 l 1
 52 0 l 1
 390 518 l 1
 90 518 l 1
EndSplineSet
Substitution2: "Tabular Numbers lookup" uniFF17
EndChar

StartChar: plus
Encoding: 43 43 77
Width: 671
VWidth: 0
Flags: HMW
LayerCount: 2
Fore
SplineSet
67 190 m 1
 96 356 l 1
 644 356 l 1
 616 190 l 1
 67 190 l 1
316 552 m 1
 492 553 l 1
 396 -6 l 1
 220 -6 l 1
 316 552 l 1
EndSplineSet
EndChar

StartChar: equal
Encoding: 61 61 78
Width: 610
VWidth: 0
Flags: HMW
LayerCount: 2
Fore
SplineSet
34 67 m 1
 60 215 l 1
 572 215 l 1
 546 67 l 1
 34 67 l 1
72 290 m 1
 98 438 l 1
 610 438 l 1
 584 290 l 1
 72 290 l 1
EndSplineSet
EndChar

StartChar: percent
Encoding: 37 37 79
Width: 941
VWidth: 0
Flags: HMW
LayerCount: 2
Fore
SplineSet
80 530 m 0
 94 634 192 722 302 722 c 0
 411 722 482 630 468 529 c 0
 454 425 357 338 247 338 c 0
 138 338 66 429 80 530 c 0
218 528 m 0
 215 501 232 472 266 472 c 0
 297 472 326 502 330 531 c 0
 333 558 318 587 284 587 c 0
 253 587 222 557 218 528 c 0
538 172 m 0
 552 276 650 363 760 363 c 0
 869 363 941 271 927 170 c 0
 913 66 816 -21 706 -21 c 0
 597 -21 524 71 538 172 c 0
677 170 m 0
 673 143 692 114 722 114 c 0
 753 114 783 139 789 172 c 0
 793 199 774 228 744 228 c 0
 713 228 683 203 677 170 c 0
744 700 m 1
 929 700 l 1
 262 0 l 1
 78 0 l 1
 744 700 l 1
EndSplineSet
EndChar

StartChar: ampersand
Encoding: 38 38 80
Width: 752
VWidth: 0
Flags: HMW
LayerCount: 2
Fore
SplineSet
258 368 m 2
 217 422 182 474 190 540 c 0
 204 638 310 718 436 718 c 0
 554 718 634 640 621 546 c 0
 608 444 521 398 418 336 c 0
 351 296 242 282 230 204 c 0
 223 162 251 132 304 130 c 0
 426 124 544 244 624 348 c 1
 725 258 l 1
 623 130 465 -15 267 -14 c 0
 139 -14 33 63 50 189 c 0
 70 343 241 380 337 421 c 0
 397 448 462 484 468 529 c 0
 470 554 453 582 417 582 c 0
 380 582 356 558 350 528 c 0
 342 484 380 442 420 392 c 2
 718 0 l 1
 532 0 l 1
 258 368 l 2
EndSplineSet
EndChar

StartChar: question
Encoding: 63 63 81
Width: 628
VWidth: 0
Flags: HMW
LayerCount: 2
Fore
SplineSet
467 500 m 0
 475 549 442 577 386 578 c 0
 322 580 258 540 214 490 c 1
 114 590 l 1
 197 668 293 722 411 722 c 0
 540 722 658 637 638 500 c 0
 620 377 506 310 396 284 c 1
 378 210 l 1
 236 210 l 1
 246 390 l 1
 278 390 l 1
 374 392 454 440 467 500 c 0
173 65 m 0
 173 115 220 156 278 156 c 0
 337 156 382 115 382 65 c 0
 382 15 336 -26 278 -26 c 0
 219 -26 173 14 173 65 c 0
EndSplineSet
EndChar

StartChar: parenleft
Encoding: 40 40 82
Width: 339
VWidth: 0
Flags: HMW
LayerCount: 2
Fore
SplineSet
278 780 m 1
 434 779 l 1
 348 628 279 463 251 290 c 0
 226 126 237 -42 285 -200 c 1
 133 -200 l 1
 77 -43 62 125 86 290 c 0
 112 464 180 632 278 780 c 1
EndSplineSet
EndChar

StartChar: parenright
Encoding: 41 41 83
Width: 339
VWidth: 0
Flags: HMW
LayerCount: 2
Fore
SplineSet
117 -200 m 1
 -38 -199 l 1
 48 -48 116 117 144 290 c 0
 169 454 158 622 110 780 c 1
 262 780 l 1
 318 623 334 455 310 290 c 0
 284 116 215 -52 117 -200 c 1
EndSplineSet
EndChar

StartChar: asterisk
Encoding: 42 42 84
Width: 574
VWidth: 0
Flags: HMW
LayerCount: 2
Fore
SplineSet
565 604 m 1
 589 452 l 1
 342 412 l 1
 330 493 l 1
 565 604 l 1
516 297 m 1
 374 203 l 1
 302 432 l 1
 369 476 l 1
 516 297 l 1
220 206 m 1
 106 303 l 1
 306 476 l 1
 366 426 l 1
 220 206 l 1
85 454 m 1
 156 603 l 1
 358 488 l 1
 322 413 l 1
 85 454 l 1
300 700 m 1
 460 700 l 1
 379 452 l 1
 298 452 l 1
 300 700 l 1
EndSplineSet
EndChar

StartChar: less
Encoding: 60 60 85
Width: 621
VWidth: 0
Flags: HMW
LayerCount: 2
Fore
SplineSet
316 265 m 1
 560 159 l 1
 532 -4 l 1
 70 209 l 1
 90 326 l 1
 626 539 l 1
 594 364 l 1
 316 265 l 1
EndSplineSet
EndChar

StartChar: greater
Encoding: 62 62 86
Width: 621
VWidth: 0
Flags: HMW
LayerCount: 2
Fore
SplineSet
342 266 m 1
 98 372 l 1
 126 535 l 1
 588 322 l 1
 566 205 l 1
 32 -8 l 1
 63 168 l 1
 342 266 l 1
EndSplineSet
EndChar

StartChar: bracketleft
Encoding: 91 91 87
Width: 369
VWidth: 0
Flags: HMW
LayerCount: 2
Fore
SplineSet
334 632 m 1
 226 -72 l 1
 324 -72 l 1
 300 -220 l 1
 32 -220 l 1
 187 780 l 1
 455 780 l 1
 432 632 l 1
 334 632 l 1
EndSplineSet
EndChar

StartChar: bracketright
Encoding: 93 93 88
Width: 369
VWidth: 0
Flags: HMW
LayerCount: 2
Fore
SplineSet
88 -72 m 1
 196 632 l 1
 98 632 l 1
 121 780 l 1
 390 780 l 1
 235 -220 l 1
 -34 -220 l 1
 -10 -72 l 1
 88 -72 l 1
EndSplineSet
EndChar

StartChar: asciicircum
Encoding: 94 94 89
Width: 494
VWidth: 0
Flags: HMW
LayerCount: 2
Fore
SplineSet
320 565 m 1
 232 444 l 1
 76 444 l 1
 286 710 l 1
 391 710 l 1
 511 444 l 1
 364 444 l 1
 320 565 l 1
EndSplineSet
EndChar

StartChar: underscore
Encoding: 95 95 90
Width: 524
VWidth: 0
Flags: HMW
LayerCount: 2
Fore
SplineSet
-56 -160 m 1
 -37 -52 l 1
 490 -52 l 1
 471 -160 l 1
 -56 -160 l 1
EndSplineSet
EndChar

StartChar: grave
Encoding: 96 96 91
Width: 363
VWidth: 0
Flags: HMW
LayerCount: 2
Fore
SplineSet
128 654 m 1
 258 708 l 1
 382 546 l 1
 284 502 l 1
 128 654 l 1
EndSplineSet
EndChar

StartChar: braceleft
Encoding: 123 123 92
Width: 411
VWidth: 0
Flags: HMW
LayerCount: 2
Fore
SplineSet
360 594 m 2
 344 490 l 2
 326 388 297 289 160 280 c 1
 162 300 l 1
 295 288 295 184 280 90 c 2
 264 -15 l 2
 260 -42 271 -64 301 -64 c 2
 336 -65 l 1
 316 -200 l 1
 223 -200 l 2
 135 -199 54 -154 68 -60 c 2
 96 118 l 2
 103 181 96 208 50 228 c 1
 68 352 l 1
 117 369 138 398 147 463 c 2
 174 640 l 2
 188 734 272 778 364 780 c 1
 468 780 l 1
 448 646 l 1
 416 646 l 2
 386 646 364 622 360 594 c 2
EndSplineSet
EndChar

StartChar: braceright
Encoding: 125 125 93
Width: 411
VWidth: 0
Flags: HMW
LayerCount: 2
Fore
SplineSet
109 -15 m 2
 125 90 l 2
 143 192 172 291 309 300 c 1
 307 280 l 1
 174 292 173 396 188 490 c 2
 205 596 l 2
 209 622 197 644 168 644 c 2
 132 644 l 1
 152 780 l 1
 246 780 l 2
 334 779 414 734 400 640 c 2
 373 462 l 2
 366 399 372 372 418 352 c 1
 401 228 l 1
 352 211 331 182 322 117 c 2
 295 -60 l 2
 281 -154 196 -198 104 -200 c 1
 1 -200 l 1
 20 -66 l 1
 53 -66 l 2
 83 -66 105 -43 109 -15 c 2
EndSplineSet
EndChar

StartChar: asciitilde
Encoding: 126 126 94
Width: 558
VWidth: 0
Flags: HMW
LayerCount: 2
Fore
SplineSet
166 159 m 1
 36 164 l 1
 35 172 34 181 35 189 c 0
 39 227 55 262 81 292 c 0
 113 328 156 353 220 352 c 0
 264 352 296 331 336 302 c 0
 359 286 379 268 398 268 c 0
 417 268 430 288 434 304 c 0
 436 316 435 329 433 340 c 1
 564 334 l 1
 565 325 565 316 564 306 c 0
 560 269 548 232 522 202 c 0
 492 170 453 148 400 148 c 0
 358 148 325 169 284 198 c 0
 259 215 236 233 212 232 c 0
 185 231 168 209 164 190 c 0
 162 178 164 168 166 159 c 1
EndSplineSet
EndChar

StartChar: exclamdown
Encoding: 161 161 95
Width: 345
VWidth: 0
Flags: HMW
LayerCount: 2
Fore
SplineSet
212 -224 m 1
 2 -224 l 1
 116 234 l 1
 256 234 l 1
 212 -224 l 1
319 406 m 0
 312 352 261 312 203 312 c 0
 145 312 104 352 112 408 c 0
 119 462 170 502 228 502 c 0
 286 502 327 462 319 406 c 0
EndSplineSet
EndChar

StartChar: cent
Encoding: 162 162 96
Width: 562
VWidth: 0
Flags: HMW
LayerCount: 2
Fore
SplineSet
194 38 m 1
 319 38 l 1
 304 -112 l 1
 156 -112 l 1
 194 38 l 1
224 230 m 0
 214 168 254 127 312 125 c 0
 368 123 413 155 449 189 c 1
 425 24 l 1
 387 2 338 -10 282 -10 c 0
 134 -10 30 88 50 230 c 0
 71 374 201 470 354 470 c 0
 410 470 455 457 492 435 c 1
 467 270 l 1
 441 308 408 336 356 336 c 0
 296 336 235 290 224 230 c 0
276 578 m 1
 423 578 l 1
 385 428 l 1
 261 428 l 1
 276 578 l 1
EndSplineSet
EndChar

StartChar: sterling
Encoding: 163 163 97
Width: 601
VWidth: 0
Flags: HMW
LayerCount: 2
Fore
SplineSet
100 370 m 1
 476 370 l 1
 457 262 l 1
 80 262 l 1
 100 370 l 1
472 463 m 1
 473 509 465 559 401 560 c 0
 356 561 315 533 306 487 c 0
 290 414 368 364 358 272 c 0
 342 160 205 78 114 52 c 1
 194 156 l 1
 531 157 l 1
 504 0 l 1
 19 0 l 1
 111 95 180 184 198 298 c 0
 210 385 123 426 134 522 c 0
 150 642 282 710 408 710 c 0
 545 710 634 623 632 520 c 1
 472 463 l 1
EndSplineSet
EndChar

StartChar: currency
Encoding: 164 164 98
Width: 558
VWidth: 0
Flags: HMW
LayerCount: 2
Fore
SplineSet
76 505 m 1
 151 570 l 1
 233 462 l 1
 164 402 l 1
 76 505 l 1
65 30 m 1
 8 102 l 1
 122 198 l 1
 178 130 l 1
 65 30 l 1
488 402 m 1
 430 472 l 1
 545 570 l 1
 600 500 l 1
 488 402 l 1
372 134 m 1
 446 198 l 1
 529 92 l 1
 460 31 l 1
 372 134 l 1
71 300 m 0
 90 432 203 540 339 540 c 0
 473 540 554 428 536 300 c 0
 517 168 404 60 268 60 c 0
 134 60 53 172 71 300 c 0
222 299 m 0
 215 254 239 217 286 216 c 0
 335 215 377 254 385 301 c 0
 392 346 369 383 322 384 c 0
 273 385 230 346 222 299 c 0
EndSplineSet
EndChar

StartChar: yen
Encoding: 165 165 99
Width: 675
VWidth: 0
Flags: HMW
LayerCount: 2
Fore
SplineSet
58 258 m 1
 78 365 l 1
 666 365 l 1
 647 258 l 1
 58 258 l 1
34 108 m 1
 52 215 l 1
 640 215 l 1
 622 108 l 1
 34 108 l 1
546 700 m 1
 771 700 l 1
 456 277 l 1
 409 0 l 1
 212 0 l 1
 262 284 l 1
 92 700 l 1
 309 700 l 1
 386 459 l 1
 546 700 l 1
EndSplineSet
EndChar

StartChar: brokenbar
Encoding: 166 166 100
Width: 364
VWidth: 0
Flags: HMW
LayerCount: 2
Fore
SplineSet
188 695 m 1
 362 695 l 1
 314 422 l 1
 140 422 l 1
 188 695 l 1
290 278 m 1
 243 5 l 1
 69 5 l 1
 116 278 l 1
 290 278 l 1
EndSplineSet
EndChar

StartChar: section
Encoding: 167 167 101
Width: 609
VWidth: 0
Flags: HMW
LayerCount: 2
Fore
SplineSet
485 541 m 1
 458 567 420 588 388 588 c 0
 364 588 337 578 335 562 c 0
 333 538 385 534 420 524 c 0
 492 504 545 451 535 379 c 0
 519 270 396 230 289 227 c 1
 296 270 l 1
 330 280 372 299 378 339 c 0
 388 393 318 411 274 430 c 0
 217 456 169 500 178 576 c 0
 192 676 296 728 390 728 c 0
 465 728 534 698 572 654 c 1
 485 541 l 1
132 177 m 1
 180 137 233 113 276 114 c 0
 302 114 328 124 331 142 c 0
 335 170 287 178 250 188 c 0
 178 208 107 251 117 327 c 0
 132 435 263 476 371 479 c 1
 364 438 l 1
 329 425 287 408 281 368 c 0
 271 310 352 302 396 282 c 0
 458 254 508 205 498 130 c 0
 484 26 371 -26 273 -26 c 0
 171 -26 99 9 44 63 c 1
 132 177 l 1
EndSplineSet
EndChar

StartChar: dieresis
Encoding: 168 168 102
Width: 507
VWidth: 0
Flags: HMW
LayerCount: 2
Fore
SplineSet
361 625 m 0
 367 676 417 713 468 713 c 0
 520 713 560 675 554 623 c 0
 548 572 498 534 447 534 c 0
 395 534 355 573 361 625 c 0
112 625 m 0
 118 676 168 713 219 713 c 0
 271 713 311 675 305 623 c 0
 299 572 249 534 198 534 c 0
 146 534 106 573 112 625 c 0
EndSplineSet
EndChar

StartChar: copyright
Encoding: 169 169 103
Width: 776
VWidth: 0
Flags: HMW
LayerCount: 2
Fore
SplineSet
332 350 m 0
 322 286 362 242 424 240 c 0
 478 239 520 266 554 293 c 1
 538 170 l 1
 501 146 462 130 408 130 c 0
 276 130 190 224 206 350 c 0
 223 478 332 570 467 570 c 0
 521 570 557 554 592 529 c 1
 576 406 l 1
 550 436 517 460 466 460 c 0
 402 460 343 416 332 350 c 0
130 350 m 0
 106 189 200 41 372 40 c 0
 546 39 693 181 720 350 c 0
 744 511 650 659 478 660 c 0
 304 661 157 519 130 350 c 0
74 350 m 0
 101 550 271 710 475 710 c 0
 676 710 801 544 776 350 c 0
 749 150 578 -10 374 -10 c 0
 173 -10 49 156 74 350 c 0
EndSplineSet
EndChar

StartChar: registered
Encoding: 174 174 104
Width: 776
VWidth: 0
Flags: HMW
LayerCount: 2
Fore
SplineSet
406 319 m 1
 506 319 l 1
 586 150 l 1
 456 150 l 1
 406 319 l 1
310 570 m 1
 426 570 l 1
 360 150 l 1
 244 150 l 1
 310 570 l 1
368 472 m 1
 382 570 l 1
 466 570 l 1
 562 568 627 518 616 437 c 0
 605 351 533 300 433 298 c 1
 339 297 l 1
 353 386 l 1
 430 386 l 1
 462 387 491 401 495 430 c 0
 499 458 477 471 448 472 c 1
 368 472 l 1
130 350 m 0
 106 189 200 41 372 40 c 0
 546 39 693 181 720 350 c 0
 744 511 650 659 478 660 c 0
 304 661 157 519 130 350 c 0
74 350 m 0
 101 550 271 710 475 710 c 0
 676 710 801 544 776 350 c 0
 749 150 578 -10 374 -10 c 0
 173 -10 49 156 74 350 c 0
EndSplineSet
EndChar

StartChar: ordfeminine
Encoding: 170 170 105
Width: 271
VWidth: 0
Flags: HMW
LayerCount: 2
Fore
SplineSet
164 529 m 0
 163 517 173 509 186 509 c 0
 212 509 232 527 240 554 c 1
 243 524 l 1
 231 484 199 456 152 456 c 0
 106 456 72 484 78 528 c 0
 85 574 133 600 184 600 c 0
 214 600 243 589 261 577 c 1
 255 538 l 1
 240 548 227 556 205 556 c 0
 187 556 166 545 164 529 c 0
143 618 m 1
 124 681 l 1
 156 693 193 705 232 705 c 0
 288 705 337 681 333 629 c 1
 305 460 l 1
 222 460 l 1
 249 604 l 1
 248 622 242 635 220 637 c 0
 191 640 160 625 143 618 c 1
EndSplineSet
EndChar

StartChar: ordmasculine
Encoding: 186 186 106
Width: 269
VWidth: 0
Flags: HMW
LayerCount: 2
Fore
SplineSet
88 581 m 0
 98 651 162 700 236 700 c 0
 309 700 364 649 354 579 c 0
 344 509 278 460 204 460 c 0
 131 460 78 511 88 581 c 0
176 579 m 0
 173 555 186 532 209 531 c 0
 233 530 262 554 266 581 c 0
 269 605 255 629 232 630 c 0
 208 631 180 606 176 579 c 0
EndSplineSet
EndChar

StartChar: guillemotleft
Encoding: 171 171 107
Width: 533
VWidth: 0
Flags: HMW
LayerCount: 2
Fore
SplineSet
376 256 m 1
 489 62 l 1
 376 -6 l 1
 250 260 l 1
 459 514 l 1
 556 441 l 1
 376 256 l 1
166 256 m 1
 279 62 l 1
 166 -6 l 1
 40 260 l 1
 249 514 l 1
 345 441 l 1
 166 256 l 1
EndSplineSet
EndChar

StartChar: guillemotright
Encoding: 187 187 108
Width: 533
VWidth: 0
Flags: HMW
LayerCount: 2
Fore
SplineSet
191 254 m 1
 78 448 l 1
 191 516 l 1
 317 250 l 1
 108 -4 l 1
 12 69 l 1
 191 254 l 1
402 254 m 1
 288 448 l 1
 402 516 l 1
 528 250 l 1
 318 -4 l 1
 222 69 l 1
 402 254 l 1
EndSplineSet
EndChar

StartChar: uni00AD
Encoding: 173 173 109
Width: 203
VWidth: 0
Flags: HMW
LayerCount: 2
Fore
SplineSet
12 200 m 1
 24 275 l 1
 222 275 l 1
 209 200 l 1
 12 200 l 1
EndSplineSet
EndChar

StartChar: logicalnot
Encoding: 172 172 110
Width: 639
VWidth: 0
Flags: HMW
LayerCount: 2
Fore
SplineSet
82 264 m 1
 106 412 l 1
 622 412 l 1
 582 175 l 1
 466 175 l 1
 484 264 l 1
 82 264 l 1
EndSplineSet
EndChar

StartChar: macron
Encoding: 175 175 111
Width: 521
VWidth: 0
Flags: HMW
LayerCount: 2
Fore
SplineSet
146 564 m 1
 169 712 l 1
 539 712 l 1
 516 564 l 1
 146 564 l 1
EndSplineSet
EndChar

StartChar: degree
Encoding: 176 176 112
Width: 292
VWidth: 0
Flags: HMW
LayerCount: 2
Fore
SplineSet
89 597 m 0
 99 667 163 720 237 720 c 0
 311 720 364 665 354 595 c 0
 344 525 278 472 204 472 c 0
 130 472 79 527 89 597 c 0
172 595 m 0
 169 570 183 547 209 546 c 0
 236 545 266 569 270 597 c 0
 273 622 258 647 232 648 c 0
 205 649 176 623 172 595 c 0
EndSplineSet
EndChar

StartChar: plusminus
Encoding: 177 177 113
Width: 619
VWidth: 0
Flags: HMW
LayerCount: 2
Fore
SplineSet
46 8 m 1
 68 153 l 1
 566 153 l 1
 542 8 l 1
 46 8 l 1
95 328 m 1
 120 482 l 1
 616 482 l 1
 592 328 l 1
 95 328 l 1
302 620 m 1
 476 620 l 1
 408 190 l 1
 236 190 l 1
 302 620 l 1
EndSplineSet
EndChar

StartChar: uni00B2
Encoding: 178 178 114
Width: 414
VWidth: 0
Flags: HMW
LayerCount: 2
Fore
SplineSet
41 282 m 1
 252 470 l 2
 286 501 322 529 328 566 c 0
 331 588 319 611 291 612 c 0
 255 614 230 578 222 544 c 1
 108 545 l 1
 126 635 193 711 303 711 c 0
 396 711 459 647 447 572 c 0
 440 526 409 491 371 462 c 2
 275 389 l 1
 428 388 l 1
 410 282 l 1
 41 282 l 1
EndSplineSet
EndChar

StartChar: uni00B3
Encoding: 179 179 115
Width: 369
VWidth: 0
Flags: HMW
LayerCount: 2
Fore
SplineSet
209 483 m 1
 216 531 l 1
 254 535 295 552 300 584 c 0
 302 602 289 616 267 616 c 0
 238 616 218 596 210 572 c 1
 103 573 l 1
 121 649 182 708 274 708 c 0
 358 708 425 662 413 590 c 0
 400 507 301 485 209 483 c 1
204 270 m 0
 104 271 53 338 58 420 c 1
 169 420 l 1
 169 386 183 364 215 362 c 0
 243 360 276 379 280 408 c 0
 287 444 249 458 203 460 c 1
 212 516 l 1
 308 514 406 488 392 395 c 0
 381 317 300 269 204 270 c 0
EndSplineSet
EndChar

StartChar: acute
Encoding: 180 180 116
Width: 363
VWidth: 0
Flags: HMW
LayerCount: 2
Fore
SplineSet
399 649 m 1
 204 502 l 1
 110 551 l 1
 278 708 l 1
 399 649 l 1
EndSplineSet
EndChar

StartChar: mu
Encoding: 181 181 117
Width: 587
VWidth: 0
Flags: HMW
LayerCount: 2
Fore
SplineSet
282 460 m 1
 236 210 l 2
 229 168 241 138 285 138 c 0
 327 138 352 165 360 212 c 2
 406 460 l 1
 572 460 l 1
 496 0 l 1
 322 0 l 1
 331 50 l 1
 310 18 279 -2 248 -2 c 0
 228 -2 210 1 190 18 c 1
 135 -320 l 1
 -30 -320 l 1
 104 460 l 1
 282 460 l 1
EndSplineSet
EndChar

StartChar: paragraph
Encoding: 182 182 118
Width: 678
VWidth: 0
Flags: HMW
LayerCount: 2
Fore
SplineSet
298 271 m 1
 178 279 94 358 112 486 c 0
 132 622 242 700 370 700 c 2
 715 700 l 1
 558 -220 l 1
 408 -220 l 1
 548 598 l 1
 503 598 l 1
 362 -220 l 1
 213 -220 l 1
 298 271 l 1
EndSplineSet
EndChar

StartChar: periodcentered
Encoding: 183 183 119
Width: 319
VWidth: 0
Flags: HMW
LayerCount: 2
Fore
SplineSet
75 277 m 0
 83 332 134 380 193 380 c 0
 253 380 292 330 284 275 c 0
 276 220 225 174 166 174 c 0
 106 174 67 222 75 277 c 0
EndSplineSet
EndChar

StartChar: uni00B9
Encoding: 185 185 120
Width: 471
VWidth: 0
Flags: HMW
LayerCount: 2
Fore
SplineSet
191 559 m 1
 208 661 l 1
 432 704 l 1
 358 274 l 1
 246 274 l 1
 300 584 l 1
 191 559 l 1
EndSplineSet
EndChar

StartChar: cedilla
Encoding: 184 184 121
Width: 394
VWidth: 0
Flags: HMW
LayerCount: 2
Fore
SplineSet
156 74 m 1
 285 69 l 1
 168 -56 l 1
 180 -53 194 -50 208 -50 c 0
 257 -52 298 -95 291 -156 c 0
 281 -228 206 -266 140 -268 c 0
 82 -269 35 -256 -14 -228 c 1
 44 -153 l 1
 68 -169 100 -178 122 -178 c 0
 148 -178 184 -166 186 -142 c 0
 188 -118 154 -113 132 -113 c 0
 111 -112 75 -117 40 -127 c 1
 156 74 l 1
EndSplineSet
EndChar

StartChar: questiondown
Encoding: 191 191 122
Width: 628
VWidth: 0
Flags: HMW
LayerCount: 2
Fore
SplineSet
227 200 m 0
 219 151 252 123 308 122 c 0
 372 120 436 160 480 210 c 1
 580 110 l 1
 497 32 402 -22 284 -22 c 0
 155 -22 36 63 56 200 c 0
 74 323 188 390 298 416 c 1
 316 490 l 1
 458 490 l 1
 448 310 l 1
 416 310 l 1
 320 308 240 260 227 200 c 0
517 635 m 0
 510 586 456 544 400 544 c 0
 344 544 301 587 308 637 c 0
 315 686 368 726 424 726 c 0
 480 726 524 685 517 635 c 0
EndSplineSet
EndChar

StartChar: multiply
Encoding: 215 215 123
Width: 578
VWidth: 0
Flags: HMW
LayerCount: 2
Fore
SplineSet
117 -2 m 1
 30 107 l 1
 209 258 l 1
 82 412 l 1
 198 513 l 1
 319 357 l 1
 494 512 l 1
 582 403 l 1
 402 252 l 1
 530 98 l 1
 413 -3 l 1
 292 153 l 1
 117 -2 l 1
EndSplineSet
EndChar

StartChar: Oslash
Encoding: 216 216 124
Width: 766
VWidth: 0
Flags: HMW
LayerCount: 2
Fore
SplineSet
265 350 m 0
 249 249 290 160 398 159 c 0
 507 157 588 242 606 350 c 0
 622 451 582 540 474 541 c 0
 365 543 283 458 265 350 c 0
62 350 m 0
 94 561 275 718 493 718 c 0
 707 718 840 554 810 350 c 0
 778 139 596 -26 377 -26 c 0
 162 -26 32 146 62 350 c 0
777 758 m 1
 846 698 l 1
 88 -58 l 1
 22 -2 l 1
 777 758 l 1
EndSplineSet
EndChar

StartChar: Thorn
Encoding: 222 222 125
Width: 612
VWidth: 0
Flags: HMW
LayerCount: 2
Fore
SplineSet
168 700 m 1
 333 700 l 1
 213 0 l 1
 49 0 l 1
 168 700 l 1
227 436 m 1
 254 584 l 1
 380 584 l 1
 546 582 646 502 623 354 c 0
 600 206 483 126 312 124 c 1
 174 124 l 1
 201 273 l 1
 328 273 l 1
 394 274 444 294 455 354 c 0
 466 413 427 433 365 435 c 1
 227 436 l 1
EndSplineSet
EndChar

StartChar: divide
Encoding: 247 247 126
Width: 625
VWidth: 0
Flags: HMW
LayerCount: 2
Fore
SplineSet
281 585 m 0
 289 640 340 688 399 688 c 0
 459 688 497 638 489 583 c 0
 481 528 431 481 372 481 c 0
 312 481 273 530 281 585 c 0
200 107 m 0
 208 162 259 210 318 210 c 0
 378 210 416 160 408 105 c 0
 400 50 349 4 290 4 c 0
 230 4 192 52 200 107 c 0
32 270 m 1
 60 423 l 1
 658 423 l 1
 630 270 l 1
 32 270 l 1
EndSplineSet
EndChar

StartChar: oslash
Encoding: 248 248 127
Width: 529
VWidth: 0
Flags: HMW
LayerCount: 2
Fore
SplineSet
40 230 m 0
 61 378 191 470 340 470 c 0
 485 470 589 376 569 230 c 0
 548 82 418 -10 269 -10 c 0
 124 -10 20 84 40 230 c 0
200 230 m 0
 190 169 223 123 282 122 c 0
 342 121 400 166 410 230 c 0
 419 286 386 337 328 338 c 0
 269 339 210 289 200 230 c 0
501 508 m 1
 561 468 l 1
 96 -52 l 1
 38 -14 l 1
 501 508 l 1
EndSplineSet
EndChar

StartChar: circumflex
Encoding: 710 710 128
Width: 465
VWidth: 0
Flags: HMW
LayerCount: 2
Fore
SplineSet
316 623 m 1
 219 542 l 1
 110 625 l 1
 331 762 l 1
 514 619 l 1
 385 541 l 1
 316 623 l 1
EndSplineSet
EndChar

StartChar: ogonek
Encoding: 731 731 129
Width: 252
VWidth: 0
Flags: HMW
LayerCount: 2
Fore
SplineSet
154 -106 m 1
 176 -182 l 1
 153 -203 122 -220 72 -220 c 0
 13 -220 -36 -183 -29 -119 c 0
 -20 -47 61 -8 127 25 c 1
 167 0 l 1
 124 -27 84 -56 78 -92 c 0
 76 -110 82 -123 101 -125 c 0
 119 -127 140 -116 154 -106 c 1
EndSplineSet
EndChar

StartChar: tilde
Encoding: 732 732 130
Width: 514
VWidth: 0
Flags: HMW
LayerCount: 2
Fore
SplineSet
146 643 m 1
 166 691 212 741 278 739 c 0
 333 738 355 685 406 687 c 0
 436 688 460 714 482 740 c 1
 550 656 l 1
 524 616 464 566 401 568 c 0
 351 570 316 626 268 622 c 0
 235 620 223 590 215 572 c 1
 146 643 l 1
EndSplineSet
EndChar

StartChar: ring
Encoding: 730 730 131
Width: 332
VWidth: 0
Flags: HMW
LayerCount: 2
Fore
SplineSet
141 765 m 0
 150 834 213 884 285 884 c 0
 357 884 410 833 400 763 c 0
 391 694 324 645 252 645 c 0
 180 645 131 696 141 765 c 0
226 764 m 0
 224 742 236 721 258 720 c 0
 282 719 309 741 313 765 c 0
 315 787 302 809 280 810 c 0
 256 811 230 788 226 764 c 0
EndSplineSet
EndChar

StartChar: dotaccent
Encoding: 729 729 132
Width: 291
VWidth: 0
Flags: HMW
LayerCount: 2
Fore
SplineSet
162 822 m 0
 168 873 217 910 269 910 c 0
 321 910 361 871 355 819 c 0
 349 768 300 731 248 731 c 0
 196 731 156 770 162 822 c 0
EndSplineSet
EndChar

StartChar: uni2010
Encoding: 8208 8208 133
Width: 219
VWidth: 0
Flags: HMW
LayerCount: 2
Fore
SplineSet
4 164 m 1
 30 312 l 1
 243 312 l 1
 217 164 l 1
 4 164 l 1
EndSplineSet
EndChar

StartChar: endash
Encoding: 8211 8211 134
Width: 772
VWidth: 0
Flags: HMW
LayerCount: 2
Fore
SplineSet
67 164 m 1
 93 312 l 1
 726 312 l 1
 700 164 l 1
 67 164 l 1
EndSplineSet
EndChar

StartChar: figuredash
Encoding: 8210 8210 135
Width: 619
VWidth: 0
Flags: HMW
LayerCount: 2
Fore
SplineSet
67 164 m 1
 93 312 l 1
 568 312 l 1
 542 164 l 1
 67 164 l 1
EndSplineSet
EndChar

StartChar: emdash
Encoding: 8212 8212 136
Width: 926
VWidth: 0
Flags: HMW
LayerCount: 2
Fore
SplineSet
67 164 m 1
 93 312 l 1
 882 312 l 1
 857 164 l 1
 67 164 l 1
EndSplineSet
EndChar

StartChar: minus
Encoding: 8722 8722 137
Width: 576
VWidth: 0
Flags: HMW
LayerCount: 2
Fore
SplineSet
51 164 m 1
 77 312 l 1
 552 312 l 1
 526 164 l 1
 51 164 l 1
EndSplineSet
EndChar

StartChar: quoteright
Encoding: 8217 8217 138
Width: 337
VWidth: 0
Flags: HMW
LayerCount: 2
Fore
SplineSet
189 700 m 1
 366 700 l 1
 219 438 l 1
 93 438 l 1
 189 700 l 1
EndSplineSet
EndChar

StartChar: quoteleft
Encoding: 8216 8216 139
Width: 337
VWidth: 0
Flags: HMW
LayerCount: 2
Fore
SplineSet
288 438 m 1
 112 438 l 1
 258 700 l 1
 384 700 l 1
 288 438 l 1
EndSplineSet
EndChar

StartChar: quotesinglbase
Encoding: 8218 8218 140
Width: 337
VWidth: 0
Flags: HMW
LayerCount: 2
Fore
SplineSet
93 80 m 1
 270 80 l 1
 123 -182 l 1
 -3 -182 l 1
 93 80 l 1
EndSplineSet
EndChar

StartChar: quotedblleft
Encoding: 8220 8220 141
Width: 570
VWidth: 0
Flags: HMW
LayerCount: 2
Fore
SplineSet
288 438 m 1
 112 438 l 1
 258 700 l 1
 384 700 l 1
 288 438 l 1
522 438 m 1
 344 438 l 1
 492 700 l 1
 618 700 l 1
 522 438 l 1
EndSplineSet
EndChar

StartChar: quotedblright
Encoding: 8221 8221 142
Width: 570
VWidth: 0
Flags: HMW
LayerCount: 2
Fore
SplineSet
189 700 m 1
 366 700 l 1
 219 438 l 1
 93 438 l 1
 189 700 l 1
422 700 m 1
 600 700 l 1
 452 438 l 1
 326 438 l 1
 422 700 l 1
EndSplineSet
EndChar

StartChar: perthousand
Encoding: 8240 8240 143
Width: 1404
VWidth: 0
Flags: HMW
LayerCount: 2
Fore
SplineSet
1002 172 m 0
 1016 276 1114 363 1224 363 c 0
 1333 363 1404 271 1390 170 c 0
 1376 66 1278 -21 1168 -21 c 0
 1059 -21 988 71 1002 172 c 0
1140 170 m 0
 1137 143 1153 116 1183 114 c 0
 1214 112 1248 143 1252 172 c 0
 1255 199 1239 226 1209 228 c 0
 1178 230 1144 199 1140 170 c 0
80 530 m 0
 94 634 192 722 302 722 c 0
 411 722 482 630 468 529 c 0
 454 425 357 338 247 338 c 0
 138 338 66 429 80 530 c 0
218 528 m 0
 215 501 232 474 262 472 c 0
 293 470 326 502 330 531 c 0
 333 558 318 585 288 587 c 0
 257 589 222 557 218 528 c 0
538 172 m 0
 552 276 650 363 760 363 c 0
 869 363 941 271 927 170 c 0
 913 66 816 -21 706 -21 c 0
 597 -21 524 71 538 172 c 0
677 170 m 0
 674 143 690 116 720 114 c 0
 751 112 785 143 789 172 c 0
 792 199 776 226 746 228 c 0
 715 230 681 199 677 170 c 0
744 700 m 1
 929 700 l 1
 262 0 l 1
 78 0 l 1
 744 700 l 1
EndSplineSet
EndChar

StartChar: guilsinglleft
Encoding: 8249 8249 144
Width: 339
VWidth: 0
Flags: HMW
LayerCount: 2
Fore
SplineSet
166 256 m 1
 279 62 l 1
 166 -6 l 1
 40 260 l 1
 249 514 l 1
 345 441 l 1
 166 256 l 1
EndSplineSet
EndChar

StartChar: guilsinglright
Encoding: 8250 8250 145
Width: 339
VWidth: 0
Flags: HMW
LayerCount: 2
Fore
SplineSet
206 254 m 1
 94 448 l 1
 206 516 l 1
 333 250 l 1
 124 -4 l 1
 28 69 l 1
 206 254 l 1
EndSplineSet
EndChar

StartChar: uni2031
Encoding: 8241 8241 146
Width: 1868
VWidth: 0
Flags: HMW
LayerCount: 2
Fore
SplineSet
1466 172 m 0
 1480 276 1577 363 1687 363 c 0
 1796 363 1868 271 1854 170 c 0
 1840 66 1742 -21 1632 -21 c 0
 1523 -21 1452 71 1466 172 c 0
1603 170 m 0
 1600 143 1616 116 1646 114 c 0
 1677 112 1712 143 1716 172 c 0
 1719 199 1702 226 1672 228 c 0
 1641 230 1607 199 1603 170 c 0
1002 172 m 0
 1016 276 1114 363 1224 363 c 0
 1333 363 1404 271 1390 170 c 0
 1376 66 1278 -21 1168 -21 c 0
 1059 -21 988 71 1002 172 c 0
1140 170 m 0
 1137 143 1153 116 1183 114 c 0
 1214 112 1248 143 1252 172 c 0
 1255 199 1239 226 1209 228 c 0
 1178 230 1144 199 1140 170 c 0
80 530 m 0
 94 634 192 722 302 722 c 0
 411 722 482 630 468 529 c 0
 454 425 357 338 247 338 c 0
 138 338 66 429 80 530 c 0
218 528 m 0
 215 501 232 474 262 472 c 0
 293 470 326 502 330 531 c 0
 333 558 318 585 288 587 c 0
 257 589 222 557 218 528 c 0
538 172 m 0
 552 276 650 363 760 363 c 0
 869 363 941 271 927 170 c 0
 913 66 816 -21 706 -21 c 0
 597 -21 524 71 538 172 c 0
677 170 m 0
 674 143 690 116 720 114 c 0
 751 112 785 143 789 172 c 0
 792 199 776 226 746 228 c 0
 715 230 681 199 677 170 c 0
744 700 m 1
 929 700 l 1
 262 0 l 1
 78 0 l 1
 744 700 l 1
EndSplineSet
EndChar

StartChar: uni203D
Encoding: 8253 8253 147
Width: 628
VWidth: 0
Flags: HMW
LayerCount: 2
Fore
SplineSet
480 476 m 0
 492 542 447 578 377 578 c 0
 313 579 254 547 214 491 c 1
 114 590 l 1
 178 664 288 720 408 720 c 0
 536 720 658 637 638 500 c 0
 615 344 442 279 312 274 c 1
 312 348 l 1
 385 354 466 400 480 476 c 0
272 502 m 1
 429 502 l 1
 350 210 l 1
 250 210 l 1
 272 502 l 1
176 69 m 0
 183 122 237 164 294 164 c 0
 352 164 395 121 388 67 c 0
 381 14 327 -26 270 -26 c 0
 212 -26 169 15 176 69 c 0
EndSplineSet
EndChar

StartChar: Euro
Encoding: 8364 8364 148
Width: 656
VWidth: 0
Flags: HMW
LayerCount: 2
Fore
SplineSet
99 374 m 1
 116 468 l 1
 592 468 l 1
 576 374 l 1
 99 374 l 1
58 239 m 1
 75 334 l 1
 552 334 l 1
 535 239 l 1
 58 239 l 1
302 350 m 0
 289 242 306 138 406 136 c 0
 464 134 519 162 565 196 c 1
 539 19 l 1
 493 -5 442 -22 388 -22 c 0
 186 -22 113 168 138 350 c 0
 166 544 305 723 506 723 c 0
 558 723 605 707 649 682 c 1
 622 503 l 1
 586 541 542 565 488 565 c 0
 387 564 320 470 302 350 c 0
EndSplineSet
EndChar

StartChar: fraction
Encoding: 8260 8260 149
Width: 715
VWidth: 0
Flags: HMW
LayerCount: 2
Fore
SplineSet
651 700 m 1
 793 699 l 1
 169 0 l 1
 27 0 l 1
 651 700 l 1
EndSplineSet
EndChar

StartChar: onequarter
Encoding: 188 188 150
Width: 817
VWidth: 0
Flags: HMW
LayerCount: 2
Fore
SplineSet
704 700 m 1
 815 699 l 1
 190 0 l 1
 79 0 l 1
 704 700 l 1
88 559 m 1
 106 661 l 1
 330 704 l 1
 256 274 l 1
 144 274 l 1
 197 584 l 1
 88 559 l 1
378 72 m 1
 484 153 l 1
 665 154 l 1
 678 170 l 1
 794 170 l 1
 776 72 l 1
 378 72 l 1
506 110 m 1
 374 68 l 1
 678 420 l 1
 773 420 l 1
 700 0 l 1
 579 0 l 1
 595 94 l 1
 610 100 l 1
 637 254 l 1
 506 110 l 1
EndSplineSet
EndChar

StartChar: onehalf
Encoding: 189 189 151
Width: 888
VWidth: 0
Flags: HMW
LayerCount: 2
Fore
SplineSet
704 700 m 1
 815 699 l 1
 190 0 l 1
 79 0 l 1
 704 700 l 1
88 559 m 1
 106 661 l 1
 330 704 l 1
 256 274 l 1
 144 274 l 1
 197 584 l 1
 88 559 l 1
463 2 m 1
 675 190 l 2
 709 221 744 249 750 286 c 0
 753 308 741 331 713 332 c 0
 677 334 653 298 645 264 c 1
 530 265 l 1
 548 355 615 431 725 431 c 0
 818 431 881 367 869 292 c 0
 862 246 832 211 794 182 c 2
 697 109 l 1
 851 108 l 1
 832 2 l 1
 463 2 l 1
EndSplineSet
EndChar

StartChar: threequarters
Encoding: 190 190 152
Width: 870
VWidth: 0
Flags: HMW
LayerCount: 2
Fore
SplineSet
764 700 m 1
 876 699 l 1
 252 0 l 1
 140 0 l 1
 764 700 l 1
218 483 m 1
 226 531 l 1
 264 535 303 552 308 584 c 0
 310 602 298 616 276 616 c 0
 247 616 227 596 219 572 c 1
 111 573 l 1
 129 649 191 708 283 708 c 0
 367 708 434 662 422 590 c 0
 409 507 310 485 218 483 c 1
212 270 m 0
 112 271 61 338 66 420 c 1
 178 420 l 1
 178 386 192 364 224 362 c 0
 252 360 284 379 288 408 c 0
 295 444 258 458 212 460 c 1
 220 516 l 1
 316 514 415 488 401 395 c 0
 390 317 308 269 212 270 c 0
431 72 m 1
 538 153 l 1
 718 154 l 1
 731 170 l 1
 848 170 l 1
 830 72 l 1
 431 72 l 1
560 110 m 1
 426 68 l 1
 732 420 l 1
 826 420 l 1
 754 0 l 1
 632 0 l 1
 648 94 l 1
 663 100 l 1
 690 254 l 1
 560 110 l 1
EndSplineSet
EndChar

StartChar: uni2150
Encoding: 8528 8528 153
Width: 942
VWidth: 0
Flags: HMW
LayerCount: 2
Fore
SplineSet
688 700 m 1
 830 699 l 1
 204 0 l 1
 62 0 l 1
 688 700 l 1
88 559 m 1
 106 661 l 1
 330 704 l 1
 256 274 l 1
 144 274 l 1
 197 584 l 1
 88 559 l 1
602 312 m 1
 620 420 l 1
 972 420 l 1
 703 0 l 1
 574 0 l 1
 781 310 l 1
 602 312 l 1
EndSplineSet
EndChar

StartChar: uni2151
Encoding: 8529 8529 154
Width: 886
VWidth: 0
Flags: HMW
LayerCount: 2
Fore
SplineSet
678 700 m 1
 821 699 l 1
 197 0 l 1
 54 0 l 1
 678 700 l 1
88 559 m 1
 106 661 l 1
 330 704 l 1
 256 274 l 1
 144 274 l 1
 197 584 l 1
 88 559 l 1
770 273 m 0
 774 305 757 332 723 334 c 0
 688 336 652 305 647 271 c 0
 643 239 661 211 695 209 c 0
 730 207 765 239 770 273 c 0
677 5 m 1
 524 5 l 1
 682 148 l 1
 712 160 l 1
 690 143 671 136 643 136 c 0
 576 136 526 197 534 272 c 0
 547 373 635 432 731 432 c 0
 827 432 898 372 884 272 c 0
 876 223 845 182 811 146 c 1
 677 5 l 1
EndSplineSet
EndChar

StartChar: uni2152
Encoding: 8530 8530 155
Width: 1213
VWidth: 0
Flags: HMW
LayerCount: 2
Fore
SplineSet
678 700 m 1
 821 699 l 1
 197 0 l 1
 54 0 l 1
 678 700 l 1
88 559 m 1
 106 661 l 1
 330 704 l 1
 256 274 l 1
 144 274 l 1
 197 584 l 1
 88 559 l 1
572 287 m 1
 590 388 l 1
 814 431 l 1
 740 1 l 1
 628 1 l 1
 682 312 l 1
 572 287 l 1
948 210 m 0
 942 158 944 95 990 92 c 0
 1037 89 1072 153 1080 210 c 0
 1086 262 1085 325 1039 328 c 0
 992 331 956 267 948 210 c 0
838 210 m 0
 854 332 934 428 1046 428 c 0
 1164 428 1204 328 1190 210 c 0
 1174 88 1098 -8 982 -8 c 0
 868 -8 824 93 838 210 c 0
EndSplineSet
EndChar

StartChar: onethird
Encoding: 8531 8531 156
Width: 882
VWidth: 0
Flags: HMW
LayerCount: 2
Fore
SplineSet
678 700 m 1
 820 699 l 1
 196 0 l 1
 54 0 l 1
 678 700 l 1
88 559 m 1
 106 661 l 1
 330 704 l 1
 256 274 l 1
 144 274 l 1
 197 584 l 1
 88 559 l 1
670 203 m 1
 678 251 l 1
 716 255 757 272 762 304 c 0
 764 322 751 336 729 336 c 0
 700 336 680 316 672 292 c 1
 564 293 l 1
 582 369 644 428 736 428 c 0
 820 428 887 382 875 310 c 0
 862 227 762 205 670 203 c 1
665 -10 m 0
 565 -9 514 58 519 140 c 1
 631 140 l 1
 631 106 645 84 677 82 c 0
 705 80 736 99 740 128 c 0
 747 164 711 178 665 180 c 1
 674 236 l 1
 770 234 868 208 854 115 c 0
 843 37 761 -11 665 -10 c 0
EndSplineSet
EndChar

StartChar: twothirds
Encoding: 8532 8532 157
Width: 1013
VWidth: 0
Flags: HMW
LayerCount: 2
Fore
SplineSet
826 700 m 1
 968 699 l 1
 344 0 l 1
 201 0 l 1
 826 700 l 1
46 282 m 1
 257 470 l 2
 291 501 326 529 332 566 c 0
 335 588 324 611 296 612 c 0
 260 614 236 578 228 544 c 1
 113 545 l 1
 131 635 198 711 308 711 c 0
 401 711 464 647 452 572 c 0
 445 526 414 491 376 462 c 2
 280 389 l 1
 433 388 l 1
 414 282 l 1
 46 282 l 1
802 203 m 1
 809 251 l 1
 847 255 888 272 893 304 c 0
 895 322 882 336 860 336 c 0
 831 336 812 316 804 292 c 1
 696 293 l 1
 714 369 776 428 868 428 c 0
 952 428 1018 382 1006 310 c 0
 993 227 894 205 802 203 c 1
797 -10 m 0
 697 -9 645 58 650 140 c 1
 762 140 l 1
 762 106 776 84 808 82 c 0
 836 80 868 99 872 128 c 0
 879 164 842 178 796 180 c 1
 805 236 l 1
 901 234 998 208 984 115 c 0
 973 37 893 -11 797 -10 c 0
EndSplineSet
EndChar

StartChar: uni2155
Encoding: 8533 8533 158
Width: 871
VWidth: 0
Flags: HMW
LayerCount: 2
Fore
SplineSet
678 700 m 1
 821 699 l 1
 197 0 l 1
 54 0 l 1
 678 700 l 1
88 559 m 1
 106 661 l 1
 330 704 l 1
 256 274 l 1
 144 274 l 1
 197 584 l 1
 88 559 l 1
848 130 m 0
 835 36 740 -9 656 -10 c 0
 588 -11 535 9 490 35 c 1
 541 134 l 1
 573 112 607 96 637 96 c 0
 676 96 722 111 726 147 c 0
 729 180 692 192 662 193 c 0
 625 195 579 185 537 171 c 1
 622 224 l 1
 657 252 695 269 740 268 c 0
 809 266 858 208 848 130 c 0
706 316 m 1
 652 218 l 1
 530 166 l 1
 634 418 l 1
 887 418 l 1
 869 317 l 1
 706 316 l 1
EndSplineSet
EndChar

StartChar: uni2156
Encoding: 8534 8534 159
Width: 1014
VWidth: 0
Flags: HMW
LayerCount: 2
Fore
SplineSet
826 700 m 1
 968 699 l 1
 344 0 l 1
 201 0 l 1
 826 700 l 1
46 282 m 1
 257 470 l 2
 291 501 326 529 332 566 c 0
 335 588 324 611 296 612 c 0
 260 614 236 578 228 544 c 1
 113 545 l 1
 131 635 198 711 308 711 c 0
 401 711 464 647 452 572 c 0
 445 526 414 491 376 462 c 2
 280 389 l 1
 433 388 l 1
 414 282 l 1
 46 282 l 1
979 130 m 0
 966 36 872 -9 788 -10 c 0
 720 -11 667 9 622 35 c 1
 672 134 l 1
 704 112 738 96 768 96 c 0
 807 96 852 111 856 147 c 0
 859 180 823 192 793 193 c 0
 756 195 710 185 668 171 c 1
 752 224 l 1
 787 252 827 269 872 268 c 0
 941 266 989 208 979 130 c 0
837 316 m 1
 783 218 l 1
 662 166 l 1
 766 418 l 1
 1018 418 l 1
 1000 317 l 1
 837 316 l 1
EndSplineSet
EndChar

StartChar: uni2157
Encoding: 8535 8535 160
Width: 932
VWidth: 0
Flags: HMW
LayerCount: 2
Fore
SplineSet
748 700 m 1
 890 699 l 1
 266 0 l 1
 124 0 l 1
 748 700 l 1
214 483 m 1
 222 531 l 1
 260 535 299 552 304 584 c 0
 306 602 294 616 272 616 c 0
 243 616 223 596 215 572 c 1
 107 573 l 1
 125 649 187 708 279 708 c 0
 363 708 430 662 418 590 c 0
 405 507 306 485 214 483 c 1
210 270 m 0
 110 271 57 338 62 420 c 1
 174 420 l 1
 174 386 188 364 220 362 c 0
 248 360 280 379 284 408 c 0
 291 444 254 458 208 460 c 1
 218 516 l 1
 314 514 411 488 397 395 c 0
 386 317 306 269 210 270 c 0
893 130 m 0
 880 36 786 -9 702 -10 c 0
 634 -11 580 9 535 35 c 1
 586 134 l 1
 618 112 652 96 682 96 c 0
 721 96 766 111 770 147 c 0
 773 180 737 192 707 193 c 0
 670 195 624 185 582 171 c 1
 666 224 l 1
 701 252 741 269 786 268 c 0
 855 266 903 208 893 130 c 0
751 316 m 1
 697 218 l 1
 576 166 l 1
 679 418 l 1
 932 418 l 1
 914 317 l 1
 751 316 l 1
EndSplineSet
EndChar

StartChar: uni2158
Encoding: 8536 8536 161
Width: 1029
VWidth: 0
Flags: HMW
LayerCount: 2
Fore
SplineSet
813 698 m 1
 955 698 l 1
 331 -0 l 1
 188 -0 l 1
 813 698 l 1
47 352 m 1
 154 433 l 1
 334 434 l 1
 348 450 l 1
 464 450 l 1
 446 352 l 1
 47 352 l 1
176 390 m 1
 43 348 l 1
 348 700 l 1
 442 700 l 1
 370 280 l 1
 248 280 l 1
 264 374 l 1
 280 380 l 1
 306 534 l 1
 176 390 l 1
998 130 m 0
 985 36 890 -9 806 -10 c 0
 738 -11 685 8 640 34 c 1
 691 133 l 1
 723 111 757 96 787 96 c 0
 826 96 871 110 875 146 c 0
 878 179 841 191 811 192 c 0
 774 194 729 184 687 170 c 1
 771 223 l 1
 806 251 846 267 891 266 c 0
 960 264 1008 208 998 130 c 0
856 316 m 1
 802 217 l 1
 681 166 l 1
 784 416 l 1
 1037 417 l 1
 1019 316 l 1
 856 316 l 1
EndSplineSet
EndChar

StartChar: uni2159
Encoding: 8537 8537 162
Width: 885
VWidth: 0
Flags: HMW
LayerCount: 2
Fore
SplineSet
702 700 m 1
 844 699 l 1
 220 0 l 1
 78 0 l 1
 702 700 l 1
88 559 m 1
 106 661 l 1
 330 704 l 1
 256 274 l 1
 144 274 l 1
 197 584 l 1
 88 559 l 1
619 147 m 0
 615 115 634 88 668 86 c 0
 703 84 738 115 743 149 c 0
 747 181 730 209 696 211 c 0
 661 213 624 181 619 147 c 0
714 415 m 1
 867 415 l 1
 708 272 l 1
 678 260 l 1
 700 276 718 284 746 284 c 0
 813 285 865 223 857 148 c 0
 845 47 755 -12 659 -12 c 0
 563 -12 492 48 506 148 c 0
 514 197 544 238 578 274 c 1
 714 415 l 1
EndSplineSet
EndChar

StartChar: uni215A
Encoding: 8538 8538 163
Width: 924
VWidth: 0
Flags: HMW
LayerCount: 2
Fore
SplineSet
766 700 m 1
 908 699 l 1
 284 0 l 1
 142 0 l 1
 766 700 l 1
413 410 m 0
 400 316 306 271 222 270 c 0
 154 269 100 289 55 315 c 1
 106 414 l 1
 138 392 172 376 202 376 c 0
 241 376 286 391 290 427 c 0
 293 460 257 472 227 473 c 0
 190 475 144 465 102 451 c 1
 186 504 l 1
 221 532 261 549 306 548 c 0
 375 546 423 488 413 410 c 0
270 596 m 1
 217 498 l 1
 96 446 l 1
 198 698 l 1
 452 698 l 1
 434 597 l 1
 270 596 l 1
660 147 m 0
 656 115 674 88 708 86 c 0
 743 84 777 115 782 149 c 0
 786 181 770 209 736 211 c 0
 701 213 665 181 660 147 c 0
754 415 m 1
 906 415 l 1
 748 272 l 1
 718 260 l 1
 740 276 758 284 786 284 c 0
 853 285 904 223 896 148 c 0
 884 47 795 -12 699 -12 c 0
 603 -12 532 48 546 148 c 0
 554 197 584 238 618 274 c 1
 754 415 l 1
EndSplineSet
EndChar

StartChar: oneeighth
Encoding: 8539 8539 164
Width: 902
VWidth: 0
Flags: HMW
LayerCount: 2
Fore
SplineSet
702 700 m 1
 844 699 l 1
 220 0 l 1
 78 0 l 1
 702 700 l 1
88 559 m 1
 106 661 l 1
 330 703 l 1
 256 274 l 1
 144 274 l 1
 197 584 l 1
 88 559 l 1
593 320 m 0
 603 393 680 430 754 430 c 0
 826 430 898 392 888 318 c 0
 878 242 795 204 725 204 c 0
 657 204 583 243 593 320 c 0
700 307 m 0
 698 287 706 267 728 266 c 0
 750 265 775 287 778 309 c 0
 780 330 769 349 748 350 c 0
 725 351 704 329 700 307 c 0
544 115 m 0
 555 201 650 238 722 238 c 0
 792 238 878 200 867 113 c 0
 856 34 768 -10 688 -10 c 0
 610 -10 533 35 544 115 c 0
662 131 m 0
 658 106 671 84 697 83 c 0
 724 82 750 106 754 133 c 0
 757 155 744 178 719 179 c 0
 693 180 666 155 662 131 c 0
EndSplineSet
EndChar

StartChar: threeeighths
Encoding: 8540 8540 165
Width: 955
VWidth: 0
Flags: HMW
LayerCount: 2
Fore
SplineSet
756 700 m 1
 898 699 l 1
 274 0 l 1
 132 0 l 1
 756 700 l 1
214 483 m 1
 222 531 l 1
 260 535 299 552 304 584 c 0
 306 602 294 616 272 616 c 0
 243 616 223 596 215 572 c 1
 107 573 l 1
 125 649 187 708 279 708 c 0
 363 708 430 662 418 590 c 0
 405 507 306 485 214 483 c 1
210 270 m 0
 110 271 57 338 62 420 c 1
 174 420 l 1
 174 386 188 364 220 362 c 0
 248 360 280 379 284 408 c 0
 291 444 254 458 208 460 c 1
 218 516 l 1
 314 514 411 488 397 395 c 0
 386 317 306 269 210 270 c 0
646 320 m 0
 656 393 734 430 808 430 c 0
 880 430 950 392 940 318 c 0
 930 242 848 204 778 204 c 0
 710 204 636 243 646 320 c 0
752 307 m 0
 750 287 760 267 782 266 c 0
 804 265 827 287 830 309 c 0
 832 330 823 349 802 350 c 0
 779 351 756 329 752 307 c 0
596 115 m 0
 607 201 702 238 774 238 c 0
 844 238 931 200 920 113 c 0
 909 34 822 -10 742 -10 c 0
 664 -10 585 35 596 115 c 0
715 131 m 0
 711 106 724 84 750 83 c 0
 777 82 804 106 808 133 c 0
 811 155 797 178 772 179 c 0
 746 180 719 155 715 131 c 0
EndSplineSet
EndChar

StartChar: fiveeighths
Encoding: 8541 8541 166
Width: 965
VWidth: 0
Flags: HMW
LayerCount: 2
Fore
SplineSet
766 700 m 1
 908 699 l 1
 284 0 l 1
 142 0 l 1
 766 700 l 1
405 410 m 0
 392 316 298 271 214 270 c 0
 146 269 92 289 47 315 c 1
 98 414 l 1
 130 392 164 376 194 376 c 0
 233 376 278 391 282 427 c 0
 285 460 248 472 218 473 c 0
 181 475 136 465 94 451 c 1
 178 504 l 1
 213 532 253 549 298 548 c 0
 367 546 415 488 405 410 c 0
263 596 m 1
 209 498 l 1
 88 446 l 1
 191 698 l 1
 444 698 l 1
 426 597 l 1
 263 596 l 1
657 320 m 0
 667 393 744 430 818 430 c 0
 890 430 960 392 950 318 c 0
 940 242 859 204 789 204 c 0
 721 204 647 243 657 320 c 0
763 307 m 0
 761 287 770 267 792 266 c 0
 814 265 837 287 840 309 c 0
 842 330 833 349 812 350 c 0
 789 351 767 329 763 307 c 0
607 115 m 0
 618 201 713 238 785 238 c 0
 855 238 941 200 930 113 c 0
 919 34 832 -10 752 -10 c 0
 674 -10 596 35 607 115 c 0
725 131 m 0
 721 106 734 84 760 83 c 0
 787 82 814 106 818 133 c 0
 821 155 808 178 783 179 c 0
 757 180 729 155 725 131 c 0
EndSplineSet
EndChar

StartChar: seveneighths
Encoding: 8542 8542 167
Width: 859
VWidth: 0
Flags: HMW
LayerCount: 2
Fore
SplineSet
651 700 m 1
 793 699 l 1
 169 0 l 1
 27 0 l 1
 651 700 l 1
92 592 m 1
 112 700 l 1
 463 700 l 1
 194 280 l 1
 64 280 l 1
 272 590 l 1
 92 592 l 1
550 320 m 0
 560 393 637 430 711 430 c 0
 783 430 854 392 844 318 c 0
 834 242 752 204 682 204 c 0
 614 204 540 243 550 320 c 0
656 307 m 0
 654 287 663 267 685 266 c 0
 707 265 731 287 734 309 c 0
 736 330 726 349 705 350 c 0
 682 351 660 329 656 307 c 0
500 115 m 0
 511 201 606 238 678 238 c 0
 748 238 834 200 823 113 c 0
 812 34 726 -10 646 -10 c 0
 568 -10 489 35 500 115 c 0
619 131 m 0
 615 106 628 84 654 83 c 0
 681 82 708 106 712 133 c 0
 715 155 701 178 676 179 c 0
 650 180 623 155 619 131 c 0
EndSplineSet
EndChar

StartChar: uni2074
Encoding: 8308 8308 168
Width: 425
VWidth: 0
Flags: HMW
LayerCount: 2
Fore
SplineSet
40 352 m 1
 146 433 l 1
 327 434 l 1
 340 450 l 1
 456 450 l 1
 438 352 l 1
 40 352 l 1
168 390 m 1
 35 348 l 1
 340 700 l 1
 434 700 l 1
 362 280 l 1
 240 280 l 1
 256 374 l 1
 272 380 l 1
 298 534 l 1
 168 390 l 1
EndSplineSet
EndChar

StartChar: uni2075
Encoding: 8309 8309 169
Width: 384
VWidth: 0
Flags: HMW
LayerCount: 2
Fore
SplineSet
405 410 m 0
 392 316 298 271 214 270 c 0
 146 269 92 289 47 315 c 1
 98 414 l 1
 130 392 164 376 194 376 c 0
 233 376 278 391 282 427 c 0
 285 460 248 472 218 473 c 0
 181 475 136 465 94 451 c 1
 178 504 l 1
 213 532 253 549 298 548 c 0
 367 546 415 488 405 410 c 0
263 596 m 1
 209 498 l 1
 88 446 l 1
 191 698 l 1
 444 698 l 1
 426 597 l 1
 263 596 l 1
EndSplineSet
EndChar

StartChar: uni2076
Encoding: 8310 8310 170
Width: 382
VWidth: 0
Flags: HMW
LayerCount: 2
Fore
SplineSet
176 427 m 0
 172 395 190 368 224 366 c 0
 259 364 294 395 299 429 c 0
 303 461 286 489 252 491 c 0
 217 493 181 461 176 427 c 0
270 695 m 1
 423 695 l 1
 265 552 l 1
 234 540 l 1
 256 556 274 564 302 564 c 0
 369 565 422 503 414 428 c 0
 402 327 312 268 216 268 c 0
 120 268 48 328 62 428 c 0
 70 477 101 518 135 554 c 1
 270 695 l 1
EndSplineSet
EndChar

StartChar: uni2077
Encoding: 8311 8311 171
Width: 374
VWidth: 0
Flags: HMW
LayerCount: 2
Fore
SplineSet
92 592 m 1
 112 700 l 1
 463 700 l 1
 194 280 l 1
 64 280 l 1
 272 590 l 1
 92 592 l 1
EndSplineSet
EndChar

StartChar: uni2078
Encoding: 8312 8312 172
Width: 362
VWidth: 0
Flags: HMW
LayerCount: 2
Fore
SplineSet
109 600 m 0
 119 673 196 710 270 710 c 0
 342 710 412 672 402 598 c 0
 392 522 310 484 240 484 c 0
 172 484 99 523 109 600 c 0
214 587 m 0
 212 567 221 547 243 546 c 0
 265 545 289 567 292 589 c 0
 294 610 285 629 264 630 c 0
 241 631 218 609 214 587 c 0
59 395 m 0
 70 481 165 518 237 518 c 0
 307 518 392 480 381 393 c 0
 370 314 284 270 204 270 c 0
 126 270 48 315 59 395 c 0
177 411 m 0
 173 386 186 364 212 363 c 0
 239 362 266 386 270 413 c 0
 273 435 259 458 234 459 c 0
 208 460 181 435 177 411 c 0
EndSplineSet
EndChar

StartChar: uni2079
Encoding: 8313 8313 173
Width: 378
VWidth: 0
Flags: HMW
LayerCount: 2
Fore
SplineSet
320 553 m 0
 324 585 306 612 272 614 c 0
 237 616 202 585 197 551 c 0
 193 519 210 491 244 489 c 0
 279 487 315 519 320 553 c 0
226 285 m 1
 73 285 l 1
 232 428 l 1
 262 440 l 1
 240 423 220 416 192 416 c 0
 125 416 75 477 83 552 c 0
 96 653 184 712 280 712 c 0
 376 712 448 652 434 552 c 0
 426 503 394 462 360 426 c 1
 226 285 l 1
EndSplineSet
EndChar

StartChar: uni2070
Encoding: 8304 8304 174
Width: 384
VWidth: 0
Flags: HMW
LayerCount: 2
Fore
SplineSet
183 490 m 0
 177 438 178 375 224 372 c 0
 271 369 306 433 314 490 c 0
 320 542 319 605 273 608 c 0
 226 611 191 547 183 490 c 0
72 490 m 0
 88 612 169 708 281 708 c 0
 399 708 439 608 425 490 c 0
 409 368 333 272 217 272 c 0
 103 272 58 373 72 490 c 0
EndSplineSet
EndChar

StartChar: uni2080
Encoding: 8320 8320 175
Width: 384
VWidth: 0
Flags: HMW
LayerCount: 2
Fore
SplineSet
135 210 m 0
 129 158 130 95 176 92 c 0
 223 89 258 153 266 210 c 0
 272 262 272 325 226 328 c 0
 179 331 143 267 135 210 c 0
24 210 m 0
 40 332 121 428 233 428 c 0
 351 428 391 328 377 210 c 0
 361 88 285 -8 169 -8 c 0
 55 -8 10 93 24 210 c 0
EndSplineSet
EndChar

StartChar: uni2084
Encoding: 8324 8324 176
Width: 431
VWidth: 0
Flags: HMW
LayerCount: 2
Fore
SplineSet
-10 72 m 1
 97 153 l 1
 277 154 l 1
 290 170 l 1
 406 170 l 1
 388 72 l 1
 -10 72 l 1
118 110 m 1
 -14 68 l 1
 291 420 l 1
 385 420 l 1
 312 0 l 1
 192 0 l 1
 208 94 l 1
 222 100 l 1
 249 254 l 1
 118 110 l 1
EndSplineSet
EndChar

StartChar: uni2085
Encoding: 8325 8325 177
Width: 395
VWidth: 0
Flags: HMW
LayerCount: 2
Fore
SplineSet
361 130 m 0
 348 36 254 -9 170 -10 c 0
 102 -11 48 9 3 35 c 1
 54 134 l 1
 86 112 120 96 150 96 c 0
 189 96 234 111 238 147 c 0
 241 180 205 192 175 193 c 0
 138 195 92 185 50 171 c 1
 134 224 l 1
 169 252 209 269 254 268 c 0
 323 266 371 208 361 130 c 0
219 316 m 1
 165 218 l 1
 44 166 l 1
 147 418 l 1
 400 418 l 1
 382 317 l 1
 219 316 l 1
EndSplineSet
EndChar

StartChar: uni2086
Encoding: 8326 8326 178
Width: 396
VWidth: 0
Flags: HMW
LayerCount: 2
Fore
SplineSet
132 147 m 0
 128 115 146 88 180 86 c 0
 215 84 251 115 256 149 c 0
 260 181 242 209 208 211 c 0
 173 213 137 181 132 147 c 0
228 415 m 1
 380 415 l 1
 221 272 l 1
 190 260 l 1
 212 276 232 284 260 284 c 0
 327 285 378 223 370 148 c 0
 358 47 268 -12 172 -12 c 0
 76 -12 5 48 19 148 c 0
 27 197 58 238 92 274 c 1
 228 415 l 1
EndSplineSet
EndChar

StartChar: uni2087
Encoding: 8327 8327 179
Width: 381
VWidth: 0
Flags: HMW
LayerCount: 2
Fore
SplineSet
50 312 m 1
 68 420 l 1
 421 420 l 1
 151 0 l 1
 22 0 l 1
 228 310 l 1
 50 312 l 1
EndSplineSet
EndChar

StartChar: uni2088
Encoding: 8328 8328 180
Width: 370
VWidth: 0
Flags: HMW
LayerCount: 2
Fore
SplineSet
66 320 m 0
 76 393 153 430 227 430 c 0
 299 430 370 392 360 318 c 0
 350 242 268 204 198 204 c 0
 130 204 56 243 66 320 c 0
172 307 m 0
 170 287 178 267 200 266 c 0
 222 265 247 287 250 309 c 0
 252 330 241 349 220 350 c 0
 197 351 176 329 172 307 c 0
16 115 m 0
 27 201 122 238 194 238 c 0
 264 238 350 200 339 113 c 0
 328 34 242 -10 162 -10 c 0
 84 -10 5 35 16 115 c 0
134 131 m 0
 130 106 144 84 170 83 c 0
 197 82 224 106 228 133 c 0
 231 155 217 178 192 179 c 0
 166 180 138 155 134 131 c 0
EndSplineSet
EndChar

StartChar: uni2089
Encoding: 8329 8329 181
Width: 401
VWidth: 0
Flags: HMW
LayerCount: 2
Fore
SplineSet
279 273 m 0
 283 305 265 332 231 334 c 0
 196 336 160 305 155 271 c 0
 151 239 169 211 203 209 c 0
 238 207 274 239 279 273 c 0
185 5 m 1
 32 5 l 1
 191 148 l 1
 222 160 l 1
 200 143 180 136 152 136 c 0
 85 136 34 197 42 272 c 0
 55 373 144 432 240 432 c 0
 336 432 408 372 394 272 c 0
 386 223 354 182 320 146 c 1
 185 5 l 1
EndSplineSet
EndChar

StartChar: uni2081
Encoding: 8321 8321 182
Width: 363
VWidth: 0
Flags: HMW
LayerCount: 2
Fore
SplineSet
107 287 m 1
 125 388 l 1
 349 431 l 1
 275 1 l 1
 163 1 l 1
 216 312 l 1
 107 287 l 1
EndSplineSet
EndChar

StartChar: uni2082
Encoding: 8322 8322 183
Width: 417
VWidth: 0
Flags: HMW
LayerCount: 2
Fore
SplineSet
-3 2 m 1
 209 190 l 2
 243 221 278 249 284 286 c 0
 287 308 276 331 248 332 c 0
 212 334 186 298 178 264 c 1
 64 265 l 1
 82 355 149 431 259 431 c 0
 352 431 415 367 403 292 c 0
 396 246 366 211 328 182 c 2
 231 109 l 1
 384 108 l 1
 366 2 l 1
 -3 2 l 1
EndSplineSet
EndChar

StartChar: uni2083
Encoding: 8323 8323 184
Width: 378
VWidth: 0
Flags: HMW
LayerCount: 2
Fore
SplineSet
166 203 m 1
 174 251 l 1
 212 255 253 272 258 304 c 0
 260 322 247 336 225 336 c 0
 196 336 176 316 168 292 c 1
 60 293 l 1
 78 369 140 428 232 428 c 0
 316 428 383 382 371 310 c 0
 358 227 258 205 166 203 c 1
162 -10 m 0
 62 -9 10 58 15 140 c 1
 127 140 l 1
 127 106 141 84 173 82 c 0
 201 80 233 99 237 128 c 0
 244 164 207 178 161 180 c 1
 170 236 l 1
 266 234 364 208 350 115 c 0
 339 37 258 -11 162 -10 c 0
EndSplineSet
EndChar

StartChar: Agrave
Encoding: 192 192 185
Width: 734
VWidth: 0
Flags: HMW
LayerCount: 2
Fore
SplineSet
180 112 m 1
 211 256 l 1
 562 256 l 1
 542 112 l 1
 180 112 l 1
414 412 m 1
 288 202 l 1
 293 158 l 1
 188 0 l 1
 -34 0 l 1
 467 750 l 1
 710 0 l 1
 498 0 l 1
 445 152 l 1
 465 202 l 1
 414 412 l 1
339 960 m 1
 469 1014 l 1
 590 851 l 1
 491 807 l 1
 339 960 l 1
EndSplineSet
EndChar

StartChar: Aacute
Encoding: 193 193 186
Width: 734
VWidth: 0
Flags: HMW
LayerCount: 2
Fore
SplineSet
180 112 m 1
 211 256 l 1
 562 256 l 1
 542 112 l 1
 180 112 l 1
414 412 m 1
 288 202 l 1
 293 158 l 1
 188 0 l 1
 -34 0 l 1
 467 750 l 1
 710 0 l 1
 498 0 l 1
 445 152 l 1
 465 202 l 1
 414 412 l 1
667 954 m 1
 470 808 l 1
 377 857 l 1
 547 1013 l 1
 667 954 l 1
EndSplineSet
EndChar

StartChar: Acircumflex
Encoding: 194 194 187
Width: 734
VWidth: 0
Flags: HMW
LayerCount: 2
Fore
SplineSet
180 112 m 1
 211 256 l 1
 562 256 l 1
 542 112 l 1
 180 112 l 1
414 412 m 1
 288 202 l 1
 293 158 l 1
 188 0 l 1
 -34 0 l 1
 467 750 l 1
 710 0 l 1
 498 0 l 1
 445 152 l 1
 465 202 l 1
 414 412 l 1
496 881 m 1
 398 800 l 1
 288 883 l 1
 510 1020 l 1
 694 877 l 1
 563 799 l 1
 496 881 l 1
EndSplineSet
EndChar

StartChar: Atilde
Encoding: 195 195 188
Width: 734
VWidth: 0
Flags: HMW
LayerCount: 2
Fore
SplineSet
180 112 m 1
 211 256 l 1
 562 256 l 1
 542 112 l 1
 180 112 l 1
414 412 m 1
 288 202 l 1
 293 158 l 1
 188 0 l 1
 -34 0 l 1
 467 750 l 1
 710 0 l 1
 498 0 l 1
 445 152 l 1
 465 202 l 1
 414 412 l 1
290 880 m 1
 311 928 357 978 423 976 c 0
 478 975 500 921 550 923 c 0
 580 924 605 951 627 977 c 1
 694 892 l 1
 667 854 607 802 544 804 c 0
 494 806 459 863 412 859 c 0
 379 857 365 826 357 808 c 1
 290 880 l 1
EndSplineSet
EndChar

StartChar: Adieresis
Encoding: 196 196 189
Width: 734
VWidth: 0
Flags: HMW
LayerCount: 2
Fore
SplineSet
180 112 m 1
 211 256 l 1
 562 256 l 1
 542 112 l 1
 180 112 l 1
414 412 m 1
 288 202 l 1
 293 158 l 1
 188 0 l 1
 -34 0 l 1
 467 750 l 1
 710 0 l 1
 498 0 l 1
 445 152 l 1
 465 202 l 1
 414 412 l 1
533 826 m 0
 540 877 590 914 641 914 c 0
 693 914 733 874 726 822 c 0
 719 771 669 734 618 734 c 0
 566 734 526 774 533 826 c 0
230 834 m 0
 237 885 287 922 338 922 c 0
 390 922 430 883 423 831 c 0
 416 780 366 742 315 742 c 0
 263 742 223 782 230 834 c 0
EndSplineSet
EndChar

StartChar: Aring
Encoding: 197 197 190
Width: 734
VWidth: 0
Flags: HMW
LayerCount: 2
Fore
SplineSet
180 112 m 1
 211 256 l 1
 562 256 l 1
 542 112 l 1
 180 112 l 1
414 412 m 1
 288 202 l 1
 293 158 l 1
 188 0 l 1
 -34 0 l 1
 467 750 l 1
 710 0 l 1
 498 0 l 1
 445 152 l 1
 465 202 l 1
 414 412 l 1
348 802 m 0
 357 871 420 921 492 921 c 0
 564 921 616 870 606 800 c 0
 597 731 532 682 460 682 c 0
 388 682 338 733 348 802 c 0
434 800 m 0
 432 778 444 757 466 756 c 0
 490 755 517 778 521 802 c 0
 523 824 509 847 487 848 c 0
 463 849 438 824 434 800 c 0
EndSplineSet
EndChar

StartChar: AE
Encoding: 198 198 191
Width: 1088
VWidth: 0
Flags: HMW
LayerCount: 2
Fore
SplineSet
271 133 m 1
 310 310 l 1
 604 310 l 1
 573 133 l 1
 271 133 l 1
522 700 m 1
 700 658 l 1
 235 0 l 1
 -14 0 l 1
 522 700 l 1
610 0 m 1
 638 157 l 1
 1023 157 l 1
 996 0 l 1
 610 0 l 1
717 543 m 1
 522 700 l 1
 1115 700 l 1
 1088 543 l 1
 717 543 l 1
660 288 m 1
 686 440 l 1
 1052 440 l 1
 1025 287 l 1
 660 288 l 1
642 700 m 1
 849 700 l 1
 729 0 l 1
 522 0 l 1
 642 700 l 1
EndSplineSet
EndChar

StartChar: Ccedilla
Encoding: 199 199 192
Width: 684
VWidth: 0
Flags: HMW
LayerCount: 2
Fore
SplineSet
272 350 m 0
 254 245 318 168 423 166 c 0
 515 165 583 210 639 255 c 1
 609 50 l 1
 547 10 480 -18 389 -18 c 0
 167 -18 31 142 62 350 c 0
 94 564 277 718 504 718 c 0
 592 718 652 691 708 649 c 1
 677 444 l 1
 635 495 580 534 496 534 c 0
 388 534 291 460 272 350 c 0
318 44 m 1
 446 40 l 1
 330 -85 l 1
 342 -82 356 -81 370 -81 c 0
 418 -83 461 -125 453 -186 c 0
 443 -258 368 -296 302 -298 c 0
 244 -299 197 -285 148 -257 c 1
 206 -182 l 1
 230 -198 262 -208 284 -208 c 0
 310 -208 345 -196 347 -172 c 0
 349 -148 316 -142 294 -142 c 0
 273 -141 237 -146 202 -156 c 1
 318 44 l 1
EndSplineSet
EndChar

StartChar: Egrave
Encoding: 200 200 193
Width: 600
VWidth: 0
Flags: HMW
LayerCount: 2
Fore
SplineSet
169 0 m 1
 197 157 l 1
 542 157 l 1
 514 0 l 1
 169 0 l 1
262 543 m 1
 289 700 l 1
 635 700 l 1
 608 543 l 1
 262 543 l 1
218 288 m 1
 245 440 l 1
 572 440 l 1
 544 287 l 1
 218 288 l 1
161 700 m 1
 345 700 l 1
 224 0 l 1
 41 0 l 1
 161 700 l 1
273 939 m 1
 402 993 l 1
 524 829 l 1
 425 786 l 1
 273 939 l 1
EndSplineSet
EndChar

StartChar: Eacute
Encoding: 201 201 194
Width: 600
VWidth: 0
Flags: HMW
LayerCount: 2
Fore
SplineSet
169 0 m 1
 197 157 l 1
 542 157 l 1
 514 0 l 1
 169 0 l 1
262 543 m 1
 289 700 l 1
 635 700 l 1
 608 543 l 1
 262 543 l 1
218 288 m 1
 245 440 l 1
 572 440 l 1
 544 287 l 1
 218 288 l 1
161 700 m 1
 345 700 l 1
 224 0 l 1
 41 0 l 1
 161 700 l 1
602 933 m 1
 404 787 l 1
 311 835 l 1
 481 991 l 1
 602 933 l 1
EndSplineSet
EndChar

StartChar: Ecircumflex
Encoding: 202 202 195
Width: 600
VWidth: 0
Flags: HMW
LayerCount: 2
Fore
SplineSet
169 0 m 1
 197 157 l 1
 542 157 l 1
 514 0 l 1
 169 0 l 1
262 543 m 1
 289 700 l 1
 635 700 l 1
 608 543 l 1
 262 543 l 1
218 288 m 1
 245 440 l 1
 572 440 l 1
 544 287 l 1
 218 288 l 1
161 700 m 1
 345 700 l 1
 224 0 l 1
 41 0 l 1
 161 700 l 1
436 889 m 1
 312 794 l 1
 266 837 l 1
 442 974 l 1
 578 832 l 1
 526 794 l 1
 436 889 l 1
EndSplineSet
EndChar

StartChar: Edieresis
Encoding: 203 203 196
Width: 600
VWidth: 0
Flags: HMW
LayerCount: 2
Fore
SplineSet
169 0 m 1
 197 157 l 1
 542 157 l 1
 514 0 l 1
 169 0 l 1
262 543 m 1
 289 700 l 1
 635 700 l 1
 608 543 l 1
 262 543 l 1
218 288 m 1
 245 440 l 1
 572 440 l 1
 544 287 l 1
 218 288 l 1
161 700 m 1
 345 700 l 1
 224 0 l 1
 41 0 l 1
 161 700 l 1
458 873 m 0
 465 924 515 961 566 961 c 0
 618 961 657 922 650 870 c 0
 643 819 593 782 542 782 c 0
 490 782 451 821 458 873 c 0
208 873 m 0
 215 924 265 961 316 961 c 0
 368 961 407 922 400 870 c 0
 393 819 343 782 292 782 c 0
 240 782 201 821 208 873 c 0
EndSplineSet
EndChar

StartChar: Igrave
Encoding: 204 204 197
Width: 331
VWidth: 0
Flags: HMW
LayerCount: 2
Fore
SplineSet
161 700 m 1
 356 700 l 1
 236 0 l 1
 41 0 l 1
 161 700 l 1
126 939 m 1
 256 993 l 1
 376 829 l 1
 278 786 l 1
 126 939 l 1
EndSplineSet
EndChar

StartChar: Iacute
Encoding: 205 205 198
Width: 331
VWidth: 0
Flags: HMW
LayerCount: 2
Fore
SplineSet
161 700 m 1
 356 700 l 1
 236 0 l 1
 41 0 l 1
 161 700 l 1
454 933 m 1
 257 787 l 1
 164 835 l 1
 334 991 l 1
 454 933 l 1
EndSplineSet
EndChar

StartChar: Icircumflex
Encoding: 206 206 199
Width: 331
VWidth: 0
Flags: HMW
LayerCount: 2
Fore
SplineSet
161 700 m 1
 356 700 l 1
 236 0 l 1
 41 0 l 1
 161 700 l 1
292 874 m 1
 180 786 l 1
 97 850 l 1
 298 987 l 1
 458 844 l 1
 370 786 l 1
 292 874 l 1
EndSplineSet
EndChar

StartChar: Idieresis
Encoding: 207 207 200
Width: 331
VWidth: 0
Flags: HMW
LayerCount: 2
Fore
SplineSet
161 700 m 1
 356 700 l 1
 236 0 l 1
 41 0 l 1
 161 700 l 1
316 870 m 0
 323 921 373 958 424 958 c 0
 476 958 515 919 508 867 c 0
 501 816 451 778 400 778 c 0
 348 778 309 818 316 870 c 0
66 870 m 0
 73 921 123 958 174 958 c 0
 226 958 267 919 260 867 c 0
 253 816 203 778 152 778 c 0
 100 778 59 818 66 870 c 0
EndSplineSet
EndChar

StartChar: Ntilde
Encoding: 209 209 201
Width: 775
VWidth: 0
Flags: HMW
LayerCount: 2
Fore
SplineSet
616 700 m 1
 800 700 l 1
 675 -34 l 1
 286 356 l 1
 225 0 l 1
 41 0 l 1
 166 734 l 1
 554 344 l 1
 616 700 l 1
270 848 m 1
 291 896 337 946 403 944 c 0
 458 943 480 889 530 891 c 0
 560 892 584 918 606 944 c 1
 674 860 l 1
 647 822 587 770 524 772 c 0
 474 774 439 830 392 826 c 0
 359 824 346 794 338 776 c 1
 270 848 l 1
EndSplineSet
EndChar

StartChar: Eth
Encoding: 208 208 202
Width: 726
VWidth: 0
Flags: HMW
LayerCount: 2
Fore
SplineSet
28 300 m 1
 47 408 l 1
 404 408 l 1
 386 300 l 1
 28 300 l 1
161 700 m 1
 360 700 l 1
 240 0 l 1
 41 0 l 1
 161 700 l 1
303 0 m 1
 169 0 l 1
 199 170 l 1
 313 170 l 1
 417 172 510 224 530 350 c 0
 549 472 485 527 385 530 c 1
 259 530 l 1
 289 700 l 1
 411 700 l 1
 631 697 761 557 730 350 c 0
 698 138 529 2 303 0 c 1
EndSplineSet
EndChar

StartChar: Ograve
Encoding: 210 210 203
Width: 805
VWidth: 0
Flags: HMW
LayerCount: 2
Fore
SplineSet
265 350 m 0
 249 252 290 161 398 159 c 0
 507 157 588 245 606 350 c 0
 622 449 584 540 474 541 c 0
 365 542 283 455 265 350 c 0
62 350 m 0
 94 561 277 718 493 718 c 0
 707 718 840 554 810 350 c 0
 778 138 599 -26 377 -26 c 0
 159 -26 32 146 62 350 c 0
384 939 m 1
 514 993 l 1
 635 829 l 1
 537 786 l 1
 384 939 l 1
EndSplineSet
EndChar

StartChar: Oacute
Encoding: 211 211 204
Width: 805
VWidth: 0
Flags: HMW
LayerCount: 2
Fore
SplineSet
265 350 m 0
 249 252 290 161 398 159 c 0
 507 157 588 245 606 350 c 0
 622 449 584 540 474 541 c 0
 365 542 283 455 265 350 c 0
62 350 m 0
 94 561 277 718 493 718 c 0
 707 718 840 554 810 350 c 0
 778 138 599 -26 377 -26 c 0
 159 -26 32 146 62 350 c 0
708 933 m 1
 512 787 l 1
 418 835 l 1
 588 991 l 1
 708 933 l 1
EndSplineSet
EndChar

StartChar: Ocircumflex
Encoding: 212 212 205
Width: 805
VWidth: 0
Flags: HMW
LayerCount: 2
Fore
SplineSet
265 350 m 0
 249 252 290 161 398 159 c 0
 507 157 588 245 606 350 c 0
 622 449 584 540 474 541 c 0
 365 542 283 455 265 350 c 0
62 350 m 0
 94 561 277 718 493 718 c 0
 707 718 840 554 810 350 c 0
 778 138 599 -26 377 -26 c 0
 159 -26 32 146 62 350 c 0
544 889 m 1
 420 794 l 1
 374 837 l 1
 551 974 l 1
 687 832 l 1
 635 794 l 1
 544 889 l 1
EndSplineSet
EndChar

StartChar: Otilde
Encoding: 213 213 206
Width: 805
VWidth: 0
Flags: HMW
LayerCount: 2
Fore
SplineSet
265 350 m 0
 249 252 290 161 398 159 c 0
 507 157 588 245 606 350 c 0
 622 449 584 540 474 541 c 0
 365 542 283 455 265 350 c 0
62 350 m 0
 94 561 277 718 493 718 c 0
 707 718 840 554 810 350 c 0
 778 138 599 -26 377 -26 c 0
 159 -26 32 146 62 350 c 0
364 854 m 1
 364 898 439 934 475 934 c 0
 527 934 542 887 588 889 c 0
 612 890 632 912 652 936 c 1
 693 890 l 1
 671 856 630 818 582 820 c 0
 536 822 515 867 473 866 c 0
 437 865 422 834 414 816 c 1
 364 854 l 1
EndSplineSet
EndChar

StartChar: Odieresis
Encoding: 214 214 207
Width: 805
VWidth: 0
Flags: HMW
LayerCount: 2
Fore
SplineSet
265 350 m 0
 249 252 290 161 398 159 c 0
 507 157 588 245 606 350 c 0
 622 449 584 540 474 541 c 0
 365 542 283 455 265 350 c 0
62 350 m 0
 94 561 277 718 493 718 c 0
 707 718 840 554 810 350 c 0
 778 138 599 -26 377 -26 c 0
 159 -26 32 146 62 350 c 0
553 870 m 0
 560 921 610 958 661 958 c 0
 713 958 752 919 745 867 c 0
 738 816 688 778 637 778 c 0
 585 778 546 818 553 870 c 0
304 870 m 0
 311 921 360 958 411 958 c 0
 463 958 503 919 496 867 c 0
 489 816 439 778 388 778 c 0
 336 778 297 818 304 870 c 0
EndSplineSet
EndChar

StartChar: Ugrave
Encoding: 217 217 208
Width: 701
VWidth: 0
Flags: HMW
LayerCount: 2
Fore
SplineSet
156 700 m 1
 348 700 l 1
 269 246 l 2
 262 190 278 142 343 140 c 0
 409 138 450 187 461 246 c 1
 540 700 l 1
 731 700 l 1
 651 230 l 2
 623 58 489 -34 324 -34 c 0
 164 -34 54 60 76 230 c 1
 156 700 l 1
318 931 m 1
 448 984 l 1
 568 821 l 1
 470 778 l 1
 318 931 l 1
EndSplineSet
EndChar

StartChar: Uacute
Encoding: 218 218 209
Width: 701
VWidth: 0
Flags: HMW
LayerCount: 2
Fore
SplineSet
156 700 m 1
 348 700 l 1
 269 246 l 2
 262 190 278 142 343 140 c 0
 409 138 450 187 461 246 c 1
 540 700 l 1
 731 700 l 1
 651 230 l 2
 623 58 489 -34 324 -34 c 0
 164 -34 54 60 76 230 c 1
 156 700 l 1
649 925 m 1
 452 779 l 1
 359 827 l 1
 529 983 l 1
 649 925 l 1
EndSplineSet
EndChar

StartChar: Ucircumflex
Encoding: 219 219 210
Width: 701
VWidth: 0
Flags: HMW
LayerCount: 2
Fore
SplineSet
156 700 m 1
 348 700 l 1
 269 246 l 2
 262 190 278 142 343 140 c 0
 409 138 450 187 461 246 c 1
 540 700 l 1
 731 700 l 1
 651 230 l 2
 623 58 489 -34 324 -34 c 0
 164 -34 54 60 76 230 c 1
 156 700 l 1
475 860 m 1
 378 778 l 1
 268 862 l 1
 490 999 l 1
 673 856 l 1
 544 777 l 1
 475 860 l 1
EndSplineSet
EndChar

StartChar: Udieresis
Encoding: 220 220 211
Width: 701
VWidth: 0
Flags: HMW
LayerCount: 2
Fore
SplineSet
156 700 m 1
 348 700 l 1
 269 246 l 2
 262 190 278 142 343 140 c 0
 409 138 450 187 461 246 c 1
 540 700 l 1
 731 700 l 1
 651 230 l 2
 623 58 489 -34 324 -34 c 0
 164 -34 54 60 76 230 c 1
 156 700 l 1
524 870 m 0
 531 921 581 958 632 958 c 0
 684 958 723 919 716 867 c 0
 709 816 659 778 608 778 c 0
 556 778 517 818 524 870 c 0
228 870 m 0
 235 921 285 958 336 958 c 0
 388 958 427 919 420 867 c 0
 413 816 363 778 312 778 c 0
 260 778 221 818 228 870 c 0
EndSplineSet
EndChar

StartChar: Yacute
Encoding: 221 221 212
Width: 669
VWidth: 0
Flags: HMW
LayerCount: 2
Fore
SplineSet
633 925 m 1
 436 778 l 1
 343 827 l 1
 513 983 l 1
 633 925 l 1
544 700 m 1
 770 700 l 1
 452 276 l 1
 406 0 l 1
 210 0 l 1
 260 284 l 1
 90 700 l 1
 307 700 l 1
 384 459 l 1
 544 700 l 1
EndSplineSet
EndChar

StartChar: agrave
Encoding: 224 224 213
Width: 611
VWidth: 0
Flags: HMW
LayerCount: 2
Fore
SplineSet
442 460 m 1
 614 460 l 1
 534 0 l 1
 364 0 l 1
 442 460 l 1
40 230 m 0
 58 368 167 470 287 470 c 0
 411 470 463 356 447 230 c 0
 429 98 338 -10 216 -10 c 0
 96 -10 24 98 40 230 c 0
220 230 m 0
 212 178 238 127 291 126 c 0
 342 125 393 173 402 230 c 0
 410 283 385 332 335 334 c 0
 281 336 229 285 220 230 c 0
224 684 m 1
 352 738 l 1
 474 574 l 1
 376 531 l 1
 224 684 l 1
EndSplineSet
Substitution2: "alt a" agrave.alt
EndChar

StartChar: aacute
Encoding: 225 225 214
Width: 611
VWidth: 0
Flags: HMW
LayerCount: 2
Fore
SplineSet
442 460 m 1
 614 460 l 1
 534 0 l 1
 364 0 l 1
 442 460 l 1
40 230 m 0
 58 368 167 470 287 470 c 0
 411 470 463 356 447 230 c 0
 429 98 338 -10 216 -10 c 0
 96 -10 24 98 40 230 c 0
220 230 m 0
 212 178 238 127 291 126 c 0
 342 125 393 173 402 230 c 0
 410 283 385 332 335 334 c 0
 281 336 229 285 220 230 c 0
542 678 m 1
 346 532 l 1
 253 580 l 1
 423 736 l 1
 542 678 l 1
EndSplineSet
Substitution2: "alt a" aacute.alt
EndChar

StartChar: acircumflex
Encoding: 226 226 215
Width: 611
VWidth: 0
Flags: HMW
LayerCount: 2
Fore
SplineSet
442 460 m 1
 614 460 l 1
 534 0 l 1
 364 0 l 1
 442 460 l 1
40 230 m 0
 58 368 167 470 287 470 c 0
 411 470 463 356 447 230 c 0
 429 98 338 -10 216 -10 c 0
 96 -10 24 98 40 230 c 0
220 230 m 0
 212 178 238 127 291 126 c 0
 342 125 393 173 402 230 c 0
 410 283 385 332 335 334 c 0
 281 336 229 285 220 230 c 0
396 612 m 1
 298 531 l 1
 188 615 l 1
 411 752 l 1
 594 609 l 1
 465 530 l 1
 396 612 l 1
EndSplineSet
Substitution2: "alt a" acircumflex.alt
EndChar

StartChar: atilde
Encoding: 227 227 216
Width: 611
VWidth: 0
Flags: HMW
LayerCount: 2
Fore
SplineSet
442 460 m 1
 614 460 l 1
 534 0 l 1
 364 0 l 1
 442 460 l 1
40 230 m 0
 58 368 167 470 287 470 c 0
 411 470 463 356 447 230 c 0
 429 98 338 -10 216 -10 c 0
 96 -10 24 98 40 230 c 0
220 230 m 0
 212 178 238 127 291 126 c 0
 342 125 393 173 402 230 c 0
 410 283 385 332 335 334 c 0
 281 336 229 285 220 230 c 0
198 606 m 1
 218 656 263 703 331 703 c 0
 386 703 407 649 458 651 c 0
 488 652 512 678 534 704 c 1
 602 619 l 1
 575 581 515 530 452 532 c 0
 402 534 368 590 321 586 c 0
 288 584 274 554 266 536 c 1
 198 606 l 1
EndSplineSet
Substitution2: "alt a" atilde.alt
EndChar

StartChar: adieresis
Encoding: 228 228 217
Width: 611
VWidth: 0
Flags: HMW
LayerCount: 2
Fore
SplineSet
442 460 m 1
 614 460 l 1
 534 0 l 1
 364 0 l 1
 442 460 l 1
40 230 m 0
 58 368 167 470 287 470 c 0
 411 470 463 356 447 230 c 0
 429 98 338 -10 216 -10 c 0
 96 -10 24 98 40 230 c 0
220 230 m 0
 212 178 238 127 291 126 c 0
 342 125 393 173 402 230 c 0
 410 283 385 332 335 334 c 0
 281 336 229 285 220 230 c 0
413 622 m 0
 420 673 470 710 521 710 c 0
 573 710 613 671 606 619 c 0
 599 568 549 532 498 532 c 0
 446 532 406 570 413 622 c 0
164 622 m 0
 171 673 221 710 272 710 c 0
 324 710 363 671 356 619 c 0
 349 568 299 532 248 532 c 0
 196 532 157 570 164 622 c 0
EndSplineSet
Substitution2: "alt a" adieresis.alt
EndChar

StartChar: aring
Encoding: 229 229 218
Width: 611
VWidth: 0
Flags: HMW
LayerCount: 2
Fore
SplineSet
442 460 m 1
 614 460 l 1
 534 0 l 1
 364 0 l 1
 442 460 l 1
40 230 m 0
 58 368 167 470 287 470 c 0
 411 470 463 356 447 230 c 0
 429 98 338 -10 216 -10 c 0
 96 -10 24 98 40 230 c 0
220 230 m 0
 212 178 238 127 291 126 c 0
 342 125 393 173 402 230 c 0
 410 283 385 332 335 334 c 0
 281 336 229 285 220 230 c 0
256 652 m 0
 265 721 328 771 400 771 c 0
 472 771 525 720 515 650 c 0
 506 581 440 532 368 532 c 0
 296 532 246 583 256 652 c 0
341 650 m 0
 339 628 351 607 373 606 c 0
 397 605 424 628 428 652 c 0
 430 674 417 696 395 697 c 0
 371 698 345 674 341 650 c 0
EndSplineSet
Substitution2: "alt a" aring.alt
EndChar

StartChar: germandbls
Encoding: 223 223 219
Width: 614
VWidth: 0
Flags: HMW
LayerCount: 2
Fore
SplineSet
398 -12 m 0
 348 -12 273 2 240 20 c 1
 264 152 l 1
 291 136 330 124 360 124 c 0
 408 124 440 154 440 198 c 0
 440 290 318 298 318 378 c 0
 318 458 446 483 446 576 c 0
 446 622 420 644 379 644 c 0
 321 644 288 607 277 539 c 2
 187 -2 l 1
 13 -2 l 1
 105 536 l 2
 131 698 210 798 398 798 c 0
 526 798 626 723 626 612 c 0
 626 488 499 444 499 392 c 0
 499 330 620 339 620 196 c 0
 620 80 518 -12 398 -12 c 0
EndSplineSet
EndChar

StartChar: ae
Encoding: 230 230 220
Width: 912
VWidth: 0
Flags: HMW
LayerCount: 2
Fore
SplineSet
190 -10 m 0
 64 -10 1 42 13 128 c 0
 25 216 114 277 235 277 c 0
 294 277 344 263 430 222 c 1
 352 222 l 1
 360 279 l 2
 367 323 344 346 296 346 c 0
 252 346 182 328 142 308 c 1
 104 422 l 1
 191 458 263 474 331 474 c 0
 431 474 480 438 476 361 c 1
 461 358 l 1
 515 430 595 470 697 470 c 0
 841 470 911 389 891 244 c 0
 889 224 885 203 881 194 c 1
 514 194 l 1
 536 212 l 1
 530 145 553 110 611 110 c 0
 657 110 702 130 724 162 c 1
 876 132 l 1
 811 36 723 -10 601 -10 c 0
 491 -10 430 26 408 101 c 1
 420 100 l 1
 384 29 303 -10 190 -10 c 0
240 98 m 0
 298 98 336 128 348 184 c 1
 342 139 l 1
 344 187 l 1
 366 160 l 1
 338 178 302 188 266 188 c 0
 220 188 193 171 189 137 c 0
 186 109 202 98 240 98 c 0
539 235 m 1
 528 283 l 1
 736 283 l 1
 708 250 l 1
 712 260 711 260 712 266 c 0
 720 327 701 360 650 360 c 0
 591 360 554 317 539 235 c 1
EndSplineSet
EndChar

StartChar: ccedilla
Encoding: 231 231 221
Width: 483
VWidth: 0
Flags: HMW
LayerCount: 2
Fore
SplineSet
215 230 m 0
 205 170 242 127 302 125 c 0
 354 123 402 150 438 187 c 1
 415 26 l 1
 377 4 332 -10 272 -10 c 0
 124 -10 20 88 40 230 c 0
 61 374 190 470 343 470 c 0
 403 470 445 455 482 435 c 1
 457 273 l 1
 431 314 390 336 346 336 c 0
 284 336 226 288 215 230 c 0
204 60 m 1
 332 56 l 1
 216 -69 l 1
 228 -66 243 -64 257 -64 c 0
 305 -66 346 -109 338 -170 c 0
 328 -242 254 -280 188 -282 c 0
 130 -283 83 -268 34 -240 c 1
 92 -166 l 1
 116 -182 148 -192 170 -192 c 0
 196 -192 232 -180 234 -156 c 0
 236 -132 202 -126 180 -126 c 0
 159 -125 123 -130 88 -140 c 1
 204 60 l 1
EndSplineSet
EndChar

StartChar: egrave
Encoding: 232 232 222
Width: 573
VWidth: 0
Flags: HMW
LayerCount: 2
Fore
SplineSet
130 194 m 1
 143 282 l 1
 381 284 l 1
 379 326 370 357 325 359 c 0
 266 361 230 310 218 252 c 1
 212 230 l 1
 203 162 222 115 278 111 c 0
 325 109 362 132 388 162 c 1
 541 130 l 1
 482 46 398 -10 274 -10 c 0
 112 -10 21 90 41 230 c 0
 43 247 47 263 52 279 c 0
 90 395 193 470 338 470 c 0
 494 470 574 378 556 238 c 0
 554 227 551 210 548 194 c 1
 130 194 l 1
214 685 m 1
 344 740 l 1
 464 576 l 1
 366 532 l 1
 214 685 l 1
EndSplineSet
EndChar

StartChar: eacute
Encoding: 233 233 223
Width: 573
VWidth: 0
Flags: HMW
LayerCount: 2
Fore
SplineSet
130 194 m 1
 143 282 l 1
 381 284 l 1
 379 326 370 357 325 359 c 0
 266 361 230 310 218 252 c 1
 212 230 l 1
 203 162 222 115 278 111 c 0
 325 109 362 132 388 162 c 1
 541 130 l 1
 482 46 398 -10 274 -10 c 0
 112 -10 21 90 41 230 c 0
 43 247 47 263 52 279 c 0
 90 395 193 470 338 470 c 0
 494 470 574 378 556 238 c 0
 554 227 551 210 548 194 c 1
 130 194 l 1
552 679 m 1
 356 533 l 1
 262 582 l 1
 432 738 l 1
 552 679 l 1
EndSplineSet
EndChar

StartChar: ecircumflex
Encoding: 234 234 224
Width: 573
VWidth: 0
Flags: HMW
LayerCount: 2
Fore
SplineSet
130 194 m 1
 143 282 l 1
 381 284 l 1
 379 326 370 357 325 359 c 0
 266 361 230 310 218 252 c 1
 212 230 l 1
 203 162 222 115 278 111 c 0
 325 109 362 132 388 162 c 1
 541 130 l 1
 482 46 398 -10 274 -10 c 0
 112 -10 21 90 41 230 c 0
 43 247 47 263 52 279 c 0
 90 395 193 470 338 470 c 0
 494 470 574 378 556 238 c 0
 554 227 551 210 548 194 c 1
 130 194 l 1
372 612 m 1
 275 531 l 1
 166 615 l 1
 388 752 l 1
 570 609 l 1
 440 530 l 1
 372 612 l 1
EndSplineSet
EndChar

StartChar: edieresis
Encoding: 235 235 225
Width: 573
VWidth: 0
Flags: HMW
LayerCount: 2
Fore
SplineSet
130 194 m 1
 143 282 l 1
 381 284 l 1
 379 326 370 357 325 359 c 0
 266 361 230 310 218 252 c 1
 212 230 l 1
 203 162 222 115 278 111 c 0
 325 109 362 132 388 162 c 1
 541 130 l 1
 482 46 398 -10 274 -10 c 0
 112 -10 21 90 41 230 c 0
 43 247 47 263 52 279 c 0
 90 395 193 470 338 470 c 0
 494 470 574 378 556 238 c 0
 554 227 551 210 548 194 c 1
 130 194 l 1
398 622 m 0
 405 673 455 710 506 710 c 0
 558 710 597 671 590 619 c 0
 583 568 533 532 482 532 c 0
 430 532 391 570 398 622 c 0
148 622 m 0
 155 673 205 710 256 710 c 0
 308 710 348 671 341 619 c 0
 334 568 284 532 233 532 c 0
 181 532 141 570 148 622 c 0
EndSplineSet
EndChar

StartChar: igrave
Encoding: 236 236 226
Width: 272
VWidth: 0
Flags: HMW
LayerCount: 2
Fore
SplineSet
104 460 m 1
 270 460 l 1
 191 0 l 1
 26 0 l 1
 104 460 l 1
46 687 m 1
 176 742 l 1
 296 578 l 1
 198 534 l 1
 46 687 l 1
EndSplineSet
EndChar

StartChar: dotlessi
Encoding: 305 305 227
Width: 272
VWidth: 0
Flags: HMW
LayerCount: 2
Fore
SplineSet
104 460 m 1
 270 460 l 1
 191 0 l 1
 26 0 l 1
 104 460 l 1
EndSplineSet
EndChar

StartChar: kgreenlandic
Encoding: 312 312 228
Width: 599
VWidth: 0
Flags: HMW
LayerCount: 2
Fore
SplineSet
102 460 m 1
 266 460 l 1
 186 0 l 1
 24 0 l 1
 102 460 l 1
421 460 m 1
 630 460 l 1
 401 266 l 1
 563 0 l 1
 372 0 l 1
 204 274 l 1
 421 460 l 1
EndSplineSet
EndChar

StartChar: iacute
Encoding: 237 237 229
Width: 272
VWidth: 0
Flags: HMW
LayerCount: 2
Fore
SplineSet
104 460 m 1
 270 460 l 1
 191 0 l 1
 26 0 l 1
 104 460 l 1
398 681 m 1
 201 535 l 1
 108 584 l 1
 278 740 l 1
 398 681 l 1
EndSplineSet
EndChar

StartChar: icircumflex
Encoding: 238 238 230
Width: 272
VWidth: 0
Flags: HMW
LayerCount: 2
Fore
SplineSet
104 460 m 1
 270 460 l 1
 191 0 l 1
 26 0 l 1
 104 460 l 1
218 614 m 1
 120 532 l 1
 10 617 l 1
 233 754 l 1
 416 610 l 1
 286 532 l 1
 218 614 l 1
EndSplineSet
EndChar

StartChar: idieresis
Encoding: 239 239 231
Width: 272
VWidth: 0
Flags: HMW
LayerCount: 2
Fore
SplineSet
104 460 m 1
 270 460 l 1
 191 0 l 1
 26 0 l 1
 104 460 l 1
244 628 m 0
 251 679 301 716 352 716 c 0
 404 716 444 677 437 625 c 0
 430 574 381 537 330 537 c 0
 278 537 237 576 244 628 c 0
-5 628 m 0
 2 679 52 716 103 716 c 0
 155 716 195 677 188 625 c 0
 181 574 131 537 80 537 c 0
 28 537 -12 576 -5 628 c 0
EndSplineSet
EndChar

StartChar: ntilde
Encoding: 241 241 232
Width: 572
VWidth: 0
Flags: HMW
LayerCount: 2
Fore
SplineSet
274 460 m 1
 195 0 l 1
 24 0 l 1
 103 460 l 1
 274 460 l 1
365 280 m 1
 369 318 366 350 325 354 c 0
 283 358 253 320 243 280 c 1
 214 273 l 1
 232 375 289 469 406 470 c 0
 520 471 557 400 544 298 c 1
 494 0 l 1
 315 0 l 1
 365 280 l 1
162 607 m 1
 183 655 229 705 295 703 c 0
 350 702 372 649 422 651 c 0
 452 652 477 678 499 704 c 1
 566 619 l 1
 539 581 479 530 416 532 c 0
 366 534 332 590 285 586 c 0
 252 584 237 554 229 536 c 1
 162 607 l 1
EndSplineSet
EndChar

StartChar: ograve
Encoding: 242 242 233
Width: 584
VWidth: 0
Flags: HMW
LayerCount: 2
Fore
SplineSet
40 230 m 0
 61 374 190 470 340 470 c 0
 486 470 589 370 569 230 c 0
 548 86 419 -10 269 -10 c 0
 123 -10 20 90 40 230 c 0
216 230 m 0
 208 178 232 131 284 130 c 0
 337 129 385 174 394 230 c 0
 402 282 378 329 326 330 c 0
 273 331 225 286 216 230 c 0
228 687 m 1
 357 742 l 1
 478 578 l 1
 380 534 l 1
 228 687 l 1
EndSplineSet
EndChar

StartChar: oacute
Encoding: 243 243 234
Width: 584
VWidth: 0
Flags: HMW
LayerCount: 2
Fore
SplineSet
40 230 m 0
 61 374 190 470 340 470 c 0
 486 470 589 370 569 230 c 0
 548 86 419 -10 269 -10 c 0
 123 -10 20 90 40 230 c 0
216 230 m 0
 208 178 232 131 284 130 c 0
 337 129 385 174 394 230 c 0
 402 282 378 329 326 330 c 0
 273 331 225 286 216 230 c 0
539 681 m 1
 342 535 l 1
 249 584 l 1
 419 740 l 1
 539 681 l 1
EndSplineSet
EndChar

StartChar: ocircumflex
Encoding: 244 244 235
Width: 584
VWidth: 0
Flags: HMW
LayerCount: 2
Fore
SplineSet
40 230 m 0
 61 374 190 470 340 470 c 0
 486 470 589 370 569 230 c 0
 548 86 419 -10 269 -10 c 0
 123 -10 20 90 40 230 c 0
216 230 m 0
 208 178 232 131 284 130 c 0
 337 129 385 174 394 230 c 0
 402 282 378 329 326 330 c 0
 273 331 225 286 216 230 c 0
375 616 m 1
 278 534 l 1
 168 618 l 1
 390 755 l 1
 573 612 l 1
 444 534 l 1
 375 616 l 1
EndSplineSet
EndChar

StartChar: otilde
Encoding: 245 245 236
Width: 584
VWidth: 0
Flags: HMW
LayerCount: 2
Fore
SplineSet
40 230 m 0
 61 374 190 470 340 470 c 0
 486 470 589 370 569 230 c 0
 548 86 419 -10 269 -10 c 0
 123 -10 20 90 40 230 c 0
216 230 m 0
 208 178 232 131 284 130 c 0
 337 129 385 174 394 230 c 0
 402 282 378 329 326 330 c 0
 273 331 225 286 216 230 c 0
168 606 m 1
 168 656 248 703 302 703 c 0
 357 703 377 649 428 651 c 0
 458 652 483 678 505 704 c 1
 572 619 l 1
 545 581 485 530 422 532 c 0
 372 534 337 590 290 586 c 0
 257 584 244 554 236 536 c 1
 168 606 l 1
EndSplineSet
EndChar

StartChar: odieresis
Encoding: 246 246 237
Width: 584
VWidth: 0
Flags: HMW
LayerCount: 2
Fore
SplineSet
40 230 m 0
 61 374 190 470 340 470 c 0
 486 470 589 370 569 230 c 0
 548 86 419 -10 269 -10 c 0
 123 -10 20 90 40 230 c 0
216 230 m 0
 208 178 232 131 284 130 c 0
 337 129 385 174 394 230 c 0
 402 282 378 329 326 330 c 0
 273 331 225 286 216 230 c 0
401 628 m 0
 408 679 457 716 508 716 c 0
 560 716 600 677 593 625 c 0
 586 574 536 537 485 537 c 0
 433 537 394 576 401 628 c 0
152 628 m 0
 159 679 209 716 260 716 c 0
 312 716 351 677 344 625 c 0
 337 574 287 537 236 537 c 0
 184 537 145 576 152 628 c 0
EndSplineSet
EndChar

StartChar: ugrave
Encoding: 249 249 238
Width: 572
VWidth: 0
Flags: HMW
LayerCount: 2
Fore
SplineSet
322 0 m 1
 402 460 l 1
 573 460 l 1
 494 0 l 1
 322 0 l 1
232 180 m 1
 228 142 231 110 272 106 c 0
 314 102 344 140 354 180 c 1
 384 187 l 1
 366 85 307 -9 190 -10 c 0
 76 -11 39 60 52 162 c 1
 103 460 l 1
 282 460 l 1
 232 180 l 1
228 687 m 1
 358 742 l 1
 479 578 l 1
 381 534 l 1
 228 687 l 1
EndSplineSet
EndChar

StartChar: uacute
Encoding: 250 250 239
Width: 572
VWidth: 0
Flags: HMW
LayerCount: 2
Fore
SplineSet
322 0 m 1
 402 460 l 1
 573 460 l 1
 494 0 l 1
 322 0 l 1
232 180 m 1
 228 142 231 110 272 106 c 0
 314 102 344 140 354 180 c 1
 384 187 l 1
 366 85 307 -9 190 -10 c 0
 76 -11 39 60 52 162 c 1
 103 460 l 1
 282 460 l 1
 232 180 l 1
524 681 m 1
 328 535 l 1
 235 584 l 1
 405 740 l 1
 524 681 l 1
EndSplineSet
EndChar

StartChar: ucircumflex
Encoding: 251 251 240
Width: 572
VWidth: 0
Flags: HMW
LayerCount: 2
Fore
SplineSet
322 0 m 1
 402 460 l 1
 573 460 l 1
 494 0 l 1
 322 0 l 1
232 180 m 1
 228 142 231 110 272 106 c 0
 314 102 344 140 354 180 c 1
 384 187 l 1
 366 85 307 -9 190 -10 c 0
 76 -11 39 60 52 162 c 1
 103 460 l 1
 282 460 l 1
 232 180 l 1
368 616 m 1
 271 534 l 1
 161 618 l 1
 383 755 l 1
 566 612 l 1
 436 534 l 1
 368 616 l 1
EndSplineSet
EndChar

StartChar: udieresis
Encoding: 252 252 241
Width: 572
VWidth: 0
Flags: HMW
LayerCount: 2
Fore
SplineSet
322 0 m 1
 402 460 l 1
 573 460 l 1
 494 0 l 1
 322 0 l 1
232 180 m 1
 228 142 231 110 272 106 c 0
 314 102 344 140 354 180 c 1
 384 187 l 1
 366 85 307 -9 190 -10 c 0
 76 -11 39 60 52 162 c 1
 103 460 l 1
 282 460 l 1
 232 180 l 1
395 626 m 0
 402 677 451 714 502 714 c 0
 554 714 594 675 587 623 c 0
 580 572 530 535 479 535 c 0
 427 535 388 574 395 626 c 0
146 626 m 0
 153 677 202 714 253 714 c 0
 305 714 345 675 338 623 c 0
 331 572 281 535 230 535 c 0
 178 535 139 574 146 626 c 0
EndSplineSet
EndChar

StartChar: yacute
Encoding: 253 253 242
Width: 528
VWidth: 0
Flags: HMW
LayerCount: 2
Fore
SplineSet
597 460 m 1
 189 -220 l 1
 15 -220 l 1
 167 33 l 1
 41 460 l 1
 222 460 l 1
 303 88 l 1
 212 89 l 1
 420 460 l 1
 597 460 l 1
521 681 m 1
 324 535 l 1
 232 584 l 1
 402 740 l 1
 521 681 l 1
EndSplineSet
EndChar

StartChar: thorn
Encoding: 254 254 243
Width: 611
VWidth: 0
Flags: HMW
LayerCount: 2
Fore
SplineSet
158 -220 m 1
 -14 -220 l 1
 157 780 l 1
 328 780 l 1
 158 -220 l 1
596 230 m 0
 578 92 470 -10 350 -10 c 0
 226 -10 172 104 188 230 c 0
 206 362 299 470 421 470 c 0
 541 470 612 362 596 230 c 0
418 230 m 0
 426 282 399 333 346 334 c 0
 295 335 241 287 232 230 c 0
 224 177 253 128 303 126 c 0
 357 124 409 175 418 230 c 0
EndSplineSet
EndChar

StartChar: ydieresis
Encoding: 255 255 244
Width: 528
VWidth: 0
Flags: HMW
LayerCount: 2
Fore
SplineSet
597 460 m 1
 189 -220 l 1
 15 -220 l 1
 167 33 l 1
 41 460 l 1
 222 460 l 1
 303 88 l 1
 212 89 l 1
 420 460 l 1
 597 460 l 1
372 622 m 0
 379 673 429 710 480 710 c 0
 532 710 572 671 565 619 c 0
 558 568 507 532 456 532 c 0
 404 532 365 570 372 622 c 0
123 622 m 0
 130 673 179 710 230 710 c 0
 282 710 322 671 315 619 c 0
 308 568 258 532 207 532 c 0
 155 532 116 570 123 622 c 0
EndSplineSet
EndChar

StartChar: Amacron
Encoding: 256 256 245
Width: 734
VWidth: 0
Flags: HMW
LayerCount: 2
Fore
SplineSet
180 112 m 1
 211 256 l 1
 562 256 l 1
 542 112 l 1
 180 112 l 1
414 412 m 1
 288 202 l 1
 293 158 l 1
 188 0 l 1
 -34 0 l 1
 467 750 l 1
 710 0 l 1
 498 0 l 1
 445 152 l 1
 465 202 l 1
 414 412 l 1
293 808 m 1
 319 956 l 1
 689 956 l 1
 663 807 l 1
 293 808 l 1
EndSplineSet
EndChar

StartChar: amacron
Encoding: 257 257 246
Width: 611
VWidth: 0
Flags: HMW
LayerCount: 2
Fore
SplineSet
442 460 m 1
 614 460 l 1
 534 0 l 1
 364 0 l 1
 442 460 l 1
40 230 m 0
 58 368 167 470 287 470 c 0
 411 470 463 356 447 230 c 0
 429 98 338 -10 216 -10 c 0
 96 -10 24 98 40 230 c 0
220 230 m 0
 212 178 238 127 291 126 c 0
 342 125 393 173 402 230 c 0
 410 283 385 332 335 334 c 0
 281 336 229 285 220 230 c 0
190 532 m 1
 216 680 l 1
 586 680 l 1
 560 532 l 1
 190 532 l 1
EndSplineSet
Substitution2: "alt a" amacron.alt
EndChar

StartChar: breve
Encoding: 728 728 247
Width: 529
VWidth: 0
Flags: HMW
LayerCount: 2
Fore
SplineSet
216 850 m 1
 319 850 l 1
 320 819 336 798 366 796 c 0
 398 794 424 820 432 850 c 1
 540 849 l 1
 523 765 460 702 360 702 c 0
 262 702 212 764 216 850 c 1
EndSplineSet
EndChar

StartChar: Abreve
Encoding: 258 258 248
Width: 734
VWidth: 0
Flags: HMW
LayerCount: 2
Fore
SplineSet
180 112 m 1
 211 256 l 1
 562 256 l 1
 542 112 l 1
 180 112 l 1
414 412 m 1
 288 202 l 1
 293 158 l 1
 188 0 l 1
 -34 0 l 1
 467 750 l 1
 710 0 l 1
 498 0 l 1
 445 152 l 1
 465 202 l 1
 414 412 l 1
340 956 m 1
 444 956 l 1
 444 925 459 903 489 901 c 0
 521 899 548 925 557 955 c 1
 664 954 l 1
 646 870 584 808 484 808 c 0
 384 808 334 870 340 956 c 1
EndSplineSet
EndChar

StartChar: abreve
Encoding: 259 259 249
Width: 611
VWidth: 0
Flags: HMW
LayerCount: 2
Fore
SplineSet
442 460 m 1
 614 460 l 1
 534 0 l 1
 364 0 l 1
 442 460 l 1
40 230 m 0
 58 368 167 470 287 470 c 0
 411 470 463 356 447 230 c 0
 429 98 338 -10 216 -10 c 0
 96 -10 24 98 40 230 c 0
220 230 m 0
 212 178 238 127 291 126 c 0
 342 125 393 173 402 230 c 0
 410 283 385 332 335 334 c 0
 281 336 229 285 220 230 c 0
224 678 m 1
 328 678 l 1
 328 647 343 626 373 624 c 0
 405 622 431 648 440 678 c 1
 549 678 l 1
 531 594 468 532 368 532 c 0
 268 532 219 592 224 678 c 1
EndSplineSet
Substitution2: "alt a" abreve.alt
EndChar

StartChar: Aogonek
Encoding: 260 260 250
Width: 734
VWidth: 0
Flags: HMW
LayerCount: 2
Fore
SplineSet
180 112 m 1
 211 256 l 1
 562 256 l 1
 542 112 l 1
 180 112 l 1
414 412 m 1
 288 202 l 1
 293 158 l 1
 188 0 l 1
 -34 0 l 1
 467 750 l 1
 710 0 l 1
 498 0 l 1
 445 152 l 1
 465 202 l 1
 414 412 l 1
633 -106 m 1
 655 -182 l 1
 631 -203 600 -220 550 -220 c 0
 491 -220 442 -183 450 -119 c 0
 460 -47 541 -8 608 25 c 1
 649 0 l 1
 606 -27 565 -56 558 -92 c 0
 556 -110 561 -123 580 -125 c 0
 598 -127 619 -116 633 -106 c 1
EndSplineSet
EndChar

StartChar: aogonek
Encoding: 261 261 251
Width: 611
VWidth: 0
Flags: HMW
LayerCount: 2
Fore
SplineSet
442 460 m 1
 614 460 l 1
 534 0 l 1
 364 0 l 1
 442 460 l 1
40 230 m 0
 58 368 167 470 287 470 c 0
 411 470 463 356 447 230 c 0
 429 98 338 -10 216 -10 c 0
 96 -10 24 98 40 230 c 0
220 230 m 0
 212 178 238 127 291 126 c 0
 342 125 393 173 402 230 c 0
 410 283 385 332 335 334 c 0
 281 336 229 285 220 230 c 0
479 -106 m 1
 500 -182 l 1
 476 -203 446 -220 396 -220 c 0
 337 -220 288 -183 296 -119 c 0
 306 -47 387 -8 454 25 c 1
 494 0 l 1
 451 -27 411 -56 404 -92 c 0
 402 -110 407 -123 426 -125 c 0
 444 -127 465 -116 479 -106 c 1
EndSplineSet
Substitution2: "alt a" aogonek.alt
EndChar

StartChar: Cacute
Encoding: 262 262 252
Width: 684
VWidth: 0
Flags: HMW
LayerCount: 2
Fore
SplineSet
272 350 m 0
 254 245 318 168 423 166 c 0
 515 165 583 210 639 255 c 1
 609 50 l 1
 547 10 480 -18 389 -18 c 0
 167 -18 31 142 62 350 c 0
 94 564 277 718 504 718 c 0
 592 718 652 691 708 649 c 1
 677 444 l 1
 635 495 580 534 496 534 c 0
 388 534 291 460 272 350 c 0
672 925 m 1
 475 779 l 1
 382 827 l 1
 552 983 l 1
 672 925 l 1
EndSplineSet
EndChar

StartChar: cacute
Encoding: 263 263 253
Width: 483
VWidth: 0
Flags: HMW
LayerCount: 2
Fore
SplineSet
215 230 m 0
 205 170 242 127 302 125 c 0
 354 123 402 150 438 187 c 1
 415 26 l 1
 377 4 332 -10 272 -10 c 0
 124 -10 20 88 40 230 c 0
 61 374 190 470 343 470 c 0
 403 470 445 455 482 435 c 1
 457 273 l 1
 431 314 390 336 346 336 c 0
 284 336 226 288 215 230 c 0
512 678 m 1
 315 532 l 1
 222 580 l 1
 392 736 l 1
 512 678 l 1
EndSplineSet
EndChar

StartChar: Ccircumflex
Encoding: 264 264 254
Width: 684
VWidth: 0
Flags: HMW
LayerCount: 2
Fore
SplineSet
272 350 m 0
 254 245 318 168 423 166 c 0
 515 165 583 210 639 255 c 1
 609 50 l 1
 547 10 480 -18 389 -18 c 0
 167 -18 31 142 62 350 c 0
 94 564 277 718 504 718 c 0
 592 718 652 691 708 649 c 1
 677 444 l 1
 635 495 580 534 496 534 c 0
 388 534 291 460 272 350 c 0
537 860 m 1
 440 778 l 1
 331 862 l 1
 553 999 l 1
 736 856 l 1
 606 777 l 1
 537 860 l 1
EndSplineSet
EndChar

StartChar: ccircumflex
Encoding: 265 265 255
Width: 483
VWidth: 0
Flags: HMW
LayerCount: 2
Fore
SplineSet
215 230 m 0
 205 170 242 127 302 125 c 0
 354 123 402 150 438 187 c 1
 415 26 l 1
 377 4 332 -10 272 -10 c 0
 124 -10 20 88 40 230 c 0
 61 374 190 470 343 470 c 0
 403 470 445 455 482 435 c 1
 457 273 l 1
 431 314 390 336 346 336 c 0
 284 336 226 288 215 230 c 0
338 612 m 1
 240 531 l 1
 130 615 l 1
 353 752 l 1
 536 609 l 1
 407 530 l 1
 338 612 l 1
EndSplineSet
EndChar

StartChar: Cdotaccent
Encoding: 266 266 256
Width: 684
VWidth: 0
Flags: HMW
LayerCount: 2
Fore
SplineSet
272 350 m 0
 254 245 318 168 423 166 c 0
 515 165 583 210 639 255 c 1
 609 50 l 1
 547 10 480 -18 389 -18 c 0
 167 -18 31 142 62 350 c 0
 94 564 277 718 504 718 c 0
 592 718 652 691 708 649 c 1
 677 444 l 1
 635 495 580 534 496 534 c 0
 388 534 291 460 272 350 c 0
407 870 m 0
 414 921 464 958 515 958 c 0
 567 958 607 919 600 867 c 0
 593 816 543 778 492 778 c 0
 440 778 400 818 407 870 c 0
EndSplineSet
EndChar

StartChar: cdotaccent
Encoding: 267 267 257
Width: 483
VWidth: 0
Flags: HMW
LayerCount: 2
Fore
SplineSet
215 230 m 0
 205 170 242 127 302 125 c 0
 354 123 402 150 438 187 c 1
 415 26 l 1
 377 4 332 -10 272 -10 c 0
 124 -10 20 88 40 230 c 0
 61 374 190 470 343 470 c 0
 403 470 445 455 482 435 c 1
 457 273 l 1
 431 314 390 336 346 336 c 0
 284 336 226 288 215 230 c 0
248 630 m 0
 255 681 305 718 356 718 c 0
 408 718 447 680 440 628 c 0
 433 577 383 540 332 540 c 0
 280 540 241 578 248 630 c 0
EndSplineSet
EndChar

StartChar: Ccaron
Encoding: 268 268 258
Width: 684
VWidth: 0
Flags: HMW
LayerCount: 2
Fore
SplineSet
272 350 m 0
 254 245 318 168 423 166 c 0
 515 165 583 210 639 255 c 1
 609 50 l 1
 547 10 480 -18 389 -18 c 0
 167 -18 31 142 62 350 c 0
 94 564 277 718 504 718 c 0
 592 718 652 691 708 649 c 1
 677 444 l 1
 635 495 580 534 496 534 c 0
 388 534 291 460 272 350 c 0
539 917 m 1
 636 998 l 1
 746 915 l 1
 524 778 l 1
 341 921 l 1
 470 1000 l 1
 539 917 l 1
EndSplineSet
EndChar

StartChar: ccaron
Encoding: 269 269 259
Width: 483
VWidth: 0
Flags: HMW
LayerCount: 2
Fore
SplineSet
215 230 m 0
 205 170 242 127 302 125 c 0
 354 123 402 150 438 187 c 1
 415 26 l 1
 377 4 332 -10 272 -10 c 0
 124 -10 20 88 40 230 c 0
 61 374 190 470 343 470 c 0
 403 470 445 455 482 435 c 1
 457 273 l 1
 431 314 390 336 346 336 c 0
 284 336 226 288 215 230 c 0
340 670 m 1
 436 752 l 1
 546 668 l 1
 324 531 l 1
 140 674 l 1
 270 752 l 1
 340 670 l 1
EndSplineSet
EndChar

StartChar: Dcaron
Encoding: 270 270 260
Width: 726
VWidth: 0
Flags: HMW
LayerCount: 2
Fore
SplineSet
161 700 m 1
 360 700 l 1
 240 0 l 1
 41 0 l 1
 161 700 l 1
303 0 m 1
 169 0 l 1
 199 170 l 1
 313 170 l 1
 417 172 510 224 530 350 c 0
 549 472 485 527 385 530 c 1
 259 530 l 1
 289 700 l 1
 411 700 l 1
 631 697 761 557 730 350 c 0
 698 138 529 2 303 0 c 1
503 917 m 1
 600 998 l 1
 710 915 l 1
 488 778 l 1
 304 921 l 1
 434 1000 l 1
 503 917 l 1
EndSplineSet
EndChar

StartChar: dcaron
Encoding: 271 271 261
Width: 611
VWidth: 0
Flags: HMW
LayerCount: 2
Fore
SplineSet
497 780 m 1
 668 780 l 1
 534 0 l 1
 363 0 l 1
 497 780 l 1
40 230 m 0
 58 368 167 470 287 470 c 0
 411 470 464 356 448 230 c 0
 430 98 338 -10 216 -10 c 0
 96 -10 24 98 40 230 c 0
220 230 m 0
 212 178 238 127 291 126 c 0
 342 125 395 173 404 230 c 0
 412 283 385 332 335 334 c 0
 281 336 229 285 220 230 c 0
778 779 m 1
 946 745 l 1
 778 498 l 1
 648 522 l 1
 778 779 l 1
EndSplineSet
EndChar

StartChar: Dcroat
Encoding: 272 272 262
Width: 726
VWidth: 0
Flags: HMW
LayerCount: 2
Fore
SplineSet
26 294 m 1
 45 402 l 1
 394 402 l 1
 376 294 l 1
 26 294 l 1
161 700 m 1
 360 700 l 1
 240 0 l 1
 41 0 l 1
 161 700 l 1
303 0 m 1
 169 0 l 1
 199 170 l 1
 313 170 l 1
 417 172 510 224 530 350 c 0
 549 472 485 527 385 530 c 1
 259 530 l 1
 289 700 l 1
 411 700 l 1
 631 697 761 557 730 350 c 0
 698 138 529 2 303 0 c 1
EndSplineSet
EndChar

StartChar: dcroat
Encoding: 273 273 263
Width: 611
VWidth: 0
Flags: HMW
LayerCount: 2
Fore
SplineSet
352 558 m 1
 372 665 l 1
 737 665 l 1
 718 558 l 1
 352 558 l 1
497 780 m 1
 668 780 l 1
 534 0 l 1
 363 0 l 1
 497 780 l 1
40 230 m 0
 58 368 167 470 287 470 c 0
 411 470 464 356 448 230 c 0
 430 98 338 -10 216 -10 c 0
 96 -10 24 98 40 230 c 0
220 230 m 0
 212 178 238 127 291 126 c 0
 342 125 395 173 404 230 c 0
 412 283 385 332 335 334 c 0
 281 336 229 285 220 230 c 0
EndSplineSet
EndChar

StartChar: Emacron
Encoding: 274 274 264
Width: 600
VWidth: 0
Flags: HMW
LayerCount: 2
Fore
SplineSet
169 0 m 1
 197 157 l 1
 542 157 l 1
 514 0 l 1
 169 0 l 1
262 543 m 1
 289 700 l 1
 635 700 l 1
 608 543 l 1
 262 543 l 1
218 288 m 1
 245 440 l 1
 572 440 l 1
 544 287 l 1
 218 288 l 1
161 700 m 1
 345 700 l 1
 224 0 l 1
 41 0 l 1
 161 700 l 1
226 778 m 1
 252 926 l 1
 622 926 l 1
 596 778 l 1
 226 778 l 1
EndSplineSet
EndChar

StartChar: emacron
Encoding: 275 275 265
Width: 573
VWidth: 0
Flags: HMW
LayerCount: 2
Fore
SplineSet
130 194 m 1
 143 282 l 1
 381 284 l 1
 379 326 370 357 325 359 c 0
 266 361 230 310 218 252 c 1
 212 230 l 1
 203 162 222 115 278 111 c 0
 325 109 362 132 388 162 c 1
 541 130 l 1
 482 46 398 -10 274 -10 c 0
 112 -10 21 90 41 230 c 0
 43 247 47 263 52 279 c 0
 90 395 193 470 338 470 c 0
 494 470 574 378 556 238 c 0
 554 227 551 210 548 194 c 1
 130 194 l 1
168 531 m 1
 194 679 l 1
 566 679 l 1
 539 531 l 1
 168 531 l 1
EndSplineSet
EndChar

StartChar: Ebreve
Encoding: 276 276 266
Width: 600
VWidth: 0
Flags: HMW
LayerCount: 2
Fore
SplineSet
169 0 m 1
 197 157 l 1
 542 157 l 1
 514 0 l 1
 169 0 l 1
262 543 m 1
 289 700 l 1
 635 700 l 1
 608 543 l 1
 262 543 l 1
218 288 m 1
 245 440 l 1
 572 440 l 1
 544 287 l 1
 218 288 l 1
161 700 m 1
 345 700 l 1
 224 0 l 1
 41 0 l 1
 161 700 l 1
272 926 m 1
 376 926 l 1
 376 895 391 874 421 872 c 0
 453 870 479 896 488 926 c 1
 597 925 l 1
 579 841 516 778 416 778 c 0
 316 778 266 840 272 926 c 1
EndSplineSet
EndChar

StartChar: ebreve
Encoding: 277 277 267
Width: 573
VWidth: 0
Flags: HMW
LayerCount: 2
Fore
SplineSet
130 194 m 1
 143 282 l 1
 381 284 l 1
 379 326 370 357 325 359 c 0
 266 361 230 310 218 252 c 1
 212 230 l 1
 203 162 222 115 278 111 c 0
 325 109 362 132 388 162 c 1
 541 130 l 1
 482 46 398 -10 274 -10 c 0
 112 -10 21 90 41 230 c 0
 43 247 47 263 52 279 c 0
 90 395 193 470 338 470 c 0
 494 470 574 378 556 238 c 0
 554 227 551 210 548 194 c 1
 130 194 l 1
216 679 m 1
 320 678 l 1
 320 647 335 626 365 624 c 0
 397 622 423 648 432 678 c 1
 541 678 l 1
 523 594 460 532 360 532 c 0
 260 532 210 593 216 679 c 1
EndSplineSet
EndChar

StartChar: Edotaccent
Encoding: 278 278 268
Width: 600
VWidth: 0
Flags: HMW
LayerCount: 2
Fore
SplineSet
169 0 m 1
 197 157 l 1
 542 157 l 1
 514 0 l 1
 169 0 l 1
262 543 m 1
 289 700 l 1
 635 700 l 1
 608 543 l 1
 262 543 l 1
218 288 m 1
 245 440 l 1
 572 440 l 1
 544 287 l 1
 218 288 l 1
161 700 m 1
 345 700 l 1
 224 0 l 1
 41 0 l 1
 161 700 l 1
330 870 m 0
 337 921 386 958 437 958 c 0
 489 958 529 919 522 867 c 0
 515 816 465 778 414 778 c 0
 362 778 323 818 330 870 c 0
EndSplineSet
EndChar

StartChar: edotaccent
Encoding: 279 279 269
Width: 573
VWidth: 0
Flags: HMW
LayerCount: 2
Fore
SplineSet
130 194 m 1
 143 282 l 1
 381 284 l 1
 379 326 370 357 325 359 c 0
 266 361 230 310 218 252 c 1
 212 230 l 1
 203 162 222 115 278 111 c 0
 325 109 362 132 388 162 c 1
 541 130 l 1
 482 46 398 -10 274 -10 c 0
 112 -10 21 90 41 230 c 0
 43 247 47 263 52 279 c 0
 90 395 193 470 338 470 c 0
 494 470 574 378 556 238 c 0
 554 227 551 210 548 194 c 1
 130 194 l 1
274 622 m 0
 281 673 330 710 381 710 c 0
 433 710 473 671 466 619 c 0
 459 568 409 532 358 532 c 0
 306 532 267 570 274 622 c 0
EndSplineSet
EndChar

StartChar: Eogonek
Encoding: 280 280 270
Width: 600
VWidth: 0
Flags: HMW
LayerCount: 2
Fore
SplineSet
169 0 m 1
 197 157 l 1
 542 157 l 1
 514 0 l 1
 169 0 l 1
262 543 m 1
 289 700 l 1
 635 700 l 1
 608 543 l 1
 262 543 l 1
218 288 m 1
 245 440 l 1
 572 440 l 1
 544 287 l 1
 218 288 l 1
161 700 m 1
 345 700 l 1
 224 0 l 1
 41 0 l 1
 161 700 l 1
351 -106 m 1
 372 -182 l 1
 348 -203 318 -220 268 -220 c 0
 209 -220 160 -183 168 -119 c 0
 178 -47 259 -8 326 25 c 1
 366 0 l 1
 323 -27 283 -56 276 -92 c 0
 274 -110 279 -123 298 -125 c 0
 316 -127 337 -116 351 -106 c 1
EndSplineSet
EndChar

StartChar: eogonek
Encoding: 281 281 271
Width: 573
VWidth: 0
Flags: HMW
LayerCount: 2
Fore
SplineSet
130 194 m 1
 143 282 l 1
 381 284 l 1
 379 326 370 357 325 359 c 0
 266 361 230 310 218 252 c 1
 212 230 l 1
 203 162 222 115 278 111 c 0
 325 109 362 132 388 162 c 1
 541 130 l 1
 482 46 398 -10 274 -10 c 0
 112 -10 21 90 41 230 c 0
 43 247 47 263 52 279 c 0
 90 395 193 470 338 470 c 0
 494 470 574 378 556 238 c 0
 554 227 551 210 548 194 c 1
 130 194 l 1
281 -94 m 1
 302 -170 l 1
 278 -191 248 -208 198 -208 c 0
 139 -208 90 -172 98 -108 c 0
 108 -36 189 3 256 36 c 1
 296 8 l 1
 252 -17 213 -46 206 -82 c 0
 204 -100 209 -112 228 -114 c 0
 246 -116 267 -104 281 -94 c 1
EndSplineSet
EndChar

StartChar: Ecaron
Encoding: 282 282 272
Width: 600
VWidth: 0
Flags: HMW
LayerCount: 2
Fore
SplineSet
169 0 m 1
 197 157 l 1
 542 157 l 1
 514 0 l 1
 169 0 l 1
262 543 m 1
 289 700 l 1
 635 700 l 1
 608 543 l 1
 262 543 l 1
218 288 m 1
 245 440 l 1
 572 440 l 1
 544 287 l 1
 218 288 l 1
161 700 m 1
 345 700 l 1
 224 0 l 1
 41 0 l 1
 161 700 l 1
430 917 m 1
 528 998 l 1
 637 915 l 1
 415 778 l 1
 232 921 l 1
 361 1000 l 1
 430 917 l 1
EndSplineSet
EndChar

StartChar: ecaron
Encoding: 283 283 273
Width: 573
VWidth: 0
Flags: HMW
LayerCount: 2
Fore
SplineSet
130 194 m 1
 143 282 l 1
 381 284 l 1
 379 326 370 357 325 359 c 0
 266 361 230 310 218 252 c 1
 212 230 l 1
 203 162 222 115 278 111 c 0
 325 109 362 132 388 162 c 1
 541 130 l 1
 482 46 398 -10 274 -10 c 0
 112 -10 21 90 41 230 c 0
 43 247 47 263 52 279 c 0
 90 395 193 470 338 470 c 0
 494 470 574 378 556 238 c 0
 554 227 551 210 548 194 c 1
 130 194 l 1
374 670 m 1
 470 752 l 1
 580 668 l 1
 359 531 l 1
 176 674 l 1
 305 752 l 1
 374 670 l 1
EndSplineSet
EndChar

StartChar: Gcircumflex
Encoding: 284 284 274
Width: 801
VWidth: 0
Flags: HMW
LayerCount: 2
Fore
SplineSet
426 246 m 1
 452 392 l 1
 804 391 l 1
 783 168 628 -26 386 -26 c 0
 166 -26 32 140 62 350 c 0
 95 567 285 719 509 718 c 0
 647 718 740 648 800 546 c 1
 616 462 l 1
 594 513 558 551 492 552 c 0
 380 554 282 466 262 350 c 0
 244 239 293 141 410 140 c 0
 498 139 557 187 595 247 c 1
 426 246 l 1
542 860 m 1
 446 778 l 1
 336 862 l 1
 558 999 l 1
 740 856 l 1
 612 777 l 1
 542 860 l 1
EndSplineSet
EndChar

StartChar: gcircumflex
Encoding: 285 285 275
Width: 603
VWidth: 0
Flags: HMW
LayerCount: 2
Fore
SplineSet
4 -34 m 1
 166 -34 l 1
 170 -82 191 -106 240 -106 c 0
 305 -107 352 -56 364 10 c 1
 442 460 l 1
 606 460 l 1
 528 10 l 2
 502 -154 389 -242 236 -242 c 0
 76 -242 5 -162 4 -34 c 1
42 238 m 0
 60 376 168 470 287 470 c 0
 409 470 466 364 450 238 c 0
 433 106 340 6 218 6 c 0
 99 6 26 106 42 238 c 0
221 237 m 0
 213 184 242 144 294 142 c 0
 344 140 398 182 406 239 c 0
 414 293 383 332 335 334 c 0
 282 336 229 292 221 237 c 0
408 612 m 1
 310 531 l 1
 201 615 l 1
 423 752 l 1
 606 609 l 1
 476 530 l 1
 408 612 l 1
EndSplineSet
EndChar

StartChar: Gbreve
Encoding: 286 286 276
Width: 801
VWidth: 0
Flags: HMW
LayerCount: 2
Fore
SplineSet
426 246 m 1
 452 392 l 1
 804 391 l 1
 783 168 628 -26 386 -26 c 0
 166 -26 32 140 62 350 c 0
 95 567 285 719 509 718 c 0
 647 718 740 648 800 546 c 1
 616 462 l 1
 594 513 558 551 492 552 c 0
 380 554 282 466 262 350 c 0
 244 239 293 141 410 140 c 0
 498 139 557 187 595 247 c 1
 426 246 l 1
386 926 m 1
 490 926 l 1
 490 895 505 874 535 872 c 0
 567 870 594 896 603 926 c 1
 711 925 l 1
 693 841 630 778 530 778 c 0
 430 778 380 840 386 926 c 1
EndSplineSet
EndChar

StartChar: gbreve
Encoding: 287 287 277
Width: 603
VWidth: 0
Flags: HMW
LayerCount: 2
Fore
SplineSet
4 -34 m 1
 166 -34 l 1
 170 -82 191 -106 240 -106 c 0
 305 -107 352 -56 364 10 c 1
 442 460 l 1
 606 460 l 1
 528 10 l 2
 502 -154 389 -242 236 -242 c 0
 76 -242 5 -162 4 -34 c 1
42 238 m 0
 60 376 168 470 287 470 c 0
 409 470 466 364 450 238 c 0
 433 106 340 6 218 6 c 0
 99 6 26 106 42 238 c 0
221 237 m 0
 213 184 242 144 294 142 c 0
 344 140 398 182 406 239 c 0
 414 293 383 332 335 334 c 0
 282 336 229 292 221 237 c 0
252 679 m 1
 356 678 l 1
 356 647 370 626 400 624 c 0
 432 622 459 648 468 678 c 1
 576 678 l 1
 558 594 494 532 394 532 c 0
 294 532 246 593 252 679 c 1
EndSplineSet
EndChar

StartChar: Gdotaccent
Encoding: 288 288 278
Width: 801
VWidth: 0
Flags: HMW
LayerCount: 2
Fore
SplineSet
426 246 m 1
 452 392 l 1
 804 391 l 1
 783 168 628 -26 386 -26 c 0
 166 -26 32 140 62 350 c 0
 95 567 285 719 509 718 c 0
 647 718 740 648 800 546 c 1
 616 462 l 1
 594 513 558 551 492 552 c 0
 380 554 282 466 262 350 c 0
 244 239 293 141 410 140 c 0
 498 139 557 187 595 247 c 1
 426 246 l 1
444 870 m 0
 451 921 501 958 552 958 c 0
 604 958 643 919 636 867 c 0
 629 816 580 778 529 778 c 0
 477 778 437 818 444 870 c 0
EndSplineSet
EndChar

StartChar: gdotaccent
Encoding: 289 289 279
Width: 603
VWidth: 0
Flags: HMW
LayerCount: 2
Fore
SplineSet
4 -34 m 1
 166 -34 l 1
 170 -82 191 -106 240 -106 c 0
 305 -107 352 -56 364 10 c 1
 442 460 l 1
 606 460 l 1
 528 10 l 2
 502 -154 389 -242 236 -242 c 0
 76 -242 5 -162 4 -34 c 1
42 238 m 0
 60 376 168 470 287 470 c 0
 409 470 466 364 450 238 c 0
 433 106 340 6 218 6 c 0
 99 6 26 106 42 238 c 0
221 237 m 0
 213 184 242 144 294 142 c 0
 344 140 398 182 406 239 c 0
 414 293 383 332 335 334 c 0
 282 336 229 292 221 237 c 0
290 630 m 0
 297 681 347 718 398 718 c 0
 450 718 489 679 482 627 c 0
 475 576 426 539 375 539 c 0
 323 539 283 578 290 630 c 0
EndSplineSet
EndChar

StartChar: uni0122
Encoding: 290 290 280
Width: 801
VWidth: 0
Flags: HMW
LayerCount: 2
Fore
SplineSet
426 246 m 1
 452 392 l 1
 804 391 l 1
 783 168 628 -26 386 -26 c 0
 166 -26 32 140 62 350 c 0
 95 567 285 719 509 718 c 0
 647 718 740 648 800 546 c 1
 616 462 l 1
 594 513 558 551 492 552 c 0
 380 554 282 466 262 350 c 0
 244 239 293 141 410 140 c 0
 498 139 557 187 595 247 c 1
 426 246 l 1
285 -87 m 1
 454 -122 l 1
 286 -369 l 1
 156 -344 l 1
 285 -87 l 1
EndSplineSet
EndChar

StartChar: Hcircumflex
Encoding: 292 292 281
Width: 783
VWidth: 0
Flags: HMW
LayerCount: 2
Fore
SplineSet
134 280 m 1
 164 452 l 1
 696 452 l 1
 666 279 l 1
 134 280 l 1
617 700 m 1
 809 700 l 1
 689 0 l 1
 497 0 l 1
 617 700 l 1
161 700 m 1
 353 700 l 1
 232 0 l 1
 41 0 l 1
 161 700 l 1
516 860 m 1
 418 778 l 1
 309 862 l 1
 531 999 l 1
 714 856 l 1
 585 777 l 1
 516 860 l 1
EndSplineSet
EndChar

StartChar: hcircumflex
Encoding: 293 293 282
Width: 563
VWidth: 0
Flags: HMW
LayerCount: 2
Fore
SplineSet
330 780 m 1
 195 0 l 1
 24 0 l 1
 158 780 l 1
 330 780 l 1
365 280 m 1
 369 318 366 350 325 354 c 0
 283 358 254 320 244 280 c 1
 214 281 l 1
 232 383 291 477 408 478 c 0
 522 479 551 406 538 306 c 1
 486 0 l 1
 315 0 l 1
 365 280 l 1
330 922 m 1
 234 840 l 1
 124 924 l 1
 346 1060 l 1
 528 917 l 1
 399 839 l 1
 330 922 l 1
EndSplineSet
EndChar

StartChar: Itilde
Encoding: 296 296 283
Width: 331
VWidth: 0
Flags: HMW
LayerCount: 2
Fore
SplineSet
161 700 m 1
 356 700 l 1
 236 0 l 1
 41 0 l 1
 161 700 l 1
84 854 m 1
 105 902 151 952 217 950 c 0
 272 949 294 896 344 898 c 0
 374 899 400 926 422 952 c 1
 489 866 l 1
 462 828 401 778 338 780 c 0
 288 782 255 837 208 833 c 0
 175 831 159 801 151 783 c 1
 84 854 l 1
EndSplineSet
EndChar

StartChar: itilde
Encoding: 297 297 284
Width: 272
VWidth: 0
Flags: HMW
LayerCount: 2
Fore
SplineSet
104 460 m 1
 270 460 l 1
 191 0 l 1
 26 0 l 1
 104 460 l 1
12 607 m 1
 33 655 78 705 144 703 c 0
 199 702 221 649 271 651 c 0
 301 652 327 678 349 704 c 1
 416 619 l 1
 389 581 329 530 266 532 c 0
 216 534 182 590 135 586 c 0
 102 584 88 554 80 536 c 1
 12 607 l 1
EndSplineSet
EndChar

StartChar: Imacron
Encoding: 298 298 285
Width: 331
VWidth: 0
Flags: HMW
LayerCount: 2
Fore
SplineSet
161 700 m 1
 356 700 l 1
 236 0 l 1
 41 0 l 1
 161 700 l 1
86 778 m 1
 112 926 l 1
 482 926 l 1
 456 778 l 1
 86 778 l 1
EndSplineSet
EndChar

StartChar: imacron
Encoding: 299 299 286
Width: 272
VWidth: 0
Flags: HMW
LayerCount: 2
Fore
SplineSet
104 460 m 1
 270 460 l 1
 191 0 l 1
 26 0 l 1
 104 460 l 1
14 531 m 1
 40 679 l 1
 411 679 l 1
 385 531 l 1
 14 531 l 1
EndSplineSet
EndChar

StartChar: Ibreve
Encoding: 300 300 287
Width: 331
VWidth: 0
Flags: HMW
LayerCount: 2
Fore
SplineSet
161 700 m 1
 356 700 l 1
 236 0 l 1
 41 0 l 1
 161 700 l 1
134 926 m 1
 237 926 l 1
 237 895 252 874 282 872 c 0
 314 870 341 896 350 926 c 1
 458 925 l 1
 440 841 376 778 276 778 c 0
 176 778 128 840 134 926 c 1
EndSplineSet
EndChar

StartChar: ibreve
Encoding: 301 301 288
Width: 272
VWidth: 0
Flags: HMW
LayerCount: 2
Fore
SplineSet
104 460 m 1
 270 460 l 1
 191 0 l 1
 26 0 l 1
 104 460 l 1
61 679 m 1
 164 678 l 1
 164 647 180 626 210 624 c 0
 242 622 268 648 277 678 c 1
 386 678 l 1
 368 594 304 532 204 532 c 0
 104 532 55 593 61 679 c 1
EndSplineSet
EndChar

StartChar: Iogonek
Encoding: 302 302 289
Width: 331
VWidth: 0
Flags: HMW
LayerCount: 2
Fore
SplineSet
161 700 m 1
 356 700 l 1
 236 0 l 1
 41 0 l 1
 161 700 l 1
188 -102 m 1
 211 -179 l 1
 187 -200 156 -218 106 -218 c 0
 47 -218 -2 -181 6 -117 c 0
 16 -45 96 -5 163 28 c 1
 205 0 l 1
 161 -25 120 -54 113 -90 c 0
 111 -108 117 -120 136 -122 c 0
 154 -124 174 -112 188 -102 c 1
EndSplineSet
EndChar

StartChar: iogonek
Encoding: 303 303 290
Width: 272
VWidth: 0
Flags: HMW
LayerCount: 2
Fore
SplineSet
120 628 m 0
 127 679 177 716 228 716 c 0
 280 716 319 678 312 626 c 0
 305 575 255 538 204 538 c 0
 152 538 113 576 120 628 c 0
104 460 m 1
 270 460 l 1
 191 0 l 1
 26 0 l 1
 104 460 l 1
144 -106 m 1
 166 -182 l 1
 142 -203 110 -220 60 -220 c 0
 1 -220 -47 -183 -39 -119 c 0
 -29 -47 52 -8 119 25 c 1
 160 0 l 1
 117 -27 75 -56 68 -92 c 0
 66 -110 71 -123 90 -125 c 0
 108 -127 130 -116 144 -106 c 1
EndSplineSet
EndChar

StartChar: Idotaccent
Encoding: 304 304 291
Width: 331
VWidth: 0
Flags: HMW
LayerCount: 2
Fore
SplineSet
161 700 m 1
 356 700 l 1
 236 0 l 1
 41 0 l 1
 161 700 l 1
190 870 m 0
 197 921 247 958 298 958 c 0
 350 958 391 919 384 867 c 0
 377 816 327 778 276 778 c 0
 224 778 183 818 190 870 c 0
EndSplineSet
EndChar

StartChar: uni0136
Encoding: 310 310 292
Width: 717
VWidth: 0
Flags: HMW
LayerCount: 2
Fore
SplineSet
161 700 m 1
 360 700 l 1
 240 0 l 1
 41 0 l 1
 161 700 l 1
574 700 m 1
 804 700 l 1
 472 368 l 1
 693 0 l 1
 468 0 l 1
 248 370 l 1
 574 700 l 1
282 -61 m 1
 451 -95 l 1
 282 -342 l 1
 152 -318 l 1
 282 -61 l 1
EndSplineSet
EndChar

StartChar: uni0137
Encoding: 311 311 293
Width: 599
VWidth: 0
Flags: HMW
LayerCount: 2
Fore
SplineSet
157 780 m 1
 320 780 l 1
 186 0 l 1
 24 0 l 1
 157 780 l 1
421 460 m 1
 630 460 l 1
 401 266 l 1
 563 0 l 1
 372 0 l 1
 204 274 l 1
 421 460 l 1
208 -61 m 1
 378 -95 l 1
 209 -342 l 1
 79 -318 l 1
 208 -61 l 1
EndSplineSet
EndChar

StartChar: Lacute
Encoding: 313 313 294
Width: 534
VWidth: 0
Flags: HMW
LayerCount: 2
Fore
SplineSet
161 700 m 1
 353 700 l 1
 261 166 l 1
 536 166 l 1
 508 0 l 1
 41 0 l 1
 161 700 l 1
600 925 m 1
 402 779 l 1
 310 827 l 1
 480 983 l 1
 600 925 l 1
EndSplineSet
EndChar

StartChar: lacute
Encoding: 314 314 295
Width: 273
VWidth: 0
Flags: HMW
LayerCount: 2
Fore
SplineSet
157 780 m 1
 330 780 l 1
 195 0 l 1
 24 0 l 1
 157 780 l 1
446 987 m 1
 249 840 l 1
 156 889 l 1
 326 1045 l 1
 446 987 l 1
EndSplineSet
EndChar

StartChar: uni013B
Encoding: 315 315 296
Width: 534
VWidth: 0
Flags: HMW
LayerCount: 2
Fore
SplineSet
161 700 m 1
 353 700 l 1
 261 166 l 1
 536 166 l 1
 508 0 l 1
 41 0 l 1
 161 700 l 1
220 -61 m 1
 389 -95 l 1
 220 -342 l 1
 90 -318 l 1
 220 -61 l 1
EndSplineSet
EndChar

StartChar: uni013C
Encoding: 316 316 297
Width: 273
VWidth: 0
Flags: HMW
LayerCount: 2
Fore
SplineSet
157 780 m 1
 330 780 l 1
 195 0 l 1
 24 0 l 1
 157 780 l 1
55 -61 m 1
 224 -95 l 1
 56 -342 l 1
 -74 -318 l 1
 55 -61 l 1
EndSplineSet
EndChar

StartChar: Lcaron
Encoding: 317 317 298
Width: 534
VWidth: 0
Flags: HMW
LayerCount: 2
Fore
SplineSet
161 700 m 1
 353 700 l 1
 261 166 l 1
 536 166 l 1
 508 0 l 1
 41 0 l 1
 161 700 l 1
518 717 m 1
 686 683 l 1
 518 436 l 1
 388 460 l 1
 518 717 l 1
EndSplineSet
EndChar

StartChar: lcaron
Encoding: 318 318 299
Width: 273
VWidth: 0
Flags: HMW
LayerCount: 2
Fore
SplineSet
157 780 m 1
 330 780 l 1
 195 0 l 1
 24 0 l 1
 157 780 l 1
458 779 m 1
 627 745 l 1
 459 498 l 1
 329 522 l 1
 458 779 l 1
EndSplineSet
EndChar

StartChar: Ldot
Encoding: 319 319 300
Width: 534
VWidth: 0
Flags: HMW
LayerCount: 2
Fore
SplineSet
161 700 m 1
 353 700 l 1
 261 166 l 1
 536 166 l 1
 508 0 l 1
 41 0 l 1
 161 700 l 1
380 437 m 0
 388 492 439 538 498 538 c 0
 558 538 596 490 588 435 c 0
 580 380 529 332 470 332 c 0
 410 332 372 382 380 437 c 0
EndSplineSet
EndChar

StartChar: ldot
Encoding: 320 320 301
Width: 493
VWidth: 0
Flags: HMW
LayerCount: 2
Fore
SplineSet
157 780 m 1
 330 780 l 1
 195 0 l 1
 24 0 l 1
 157 780 l 1
297 408 m 0
 305 463 356 510 415 510 c 0
 475 510 513 461 505 406 c 0
 497 351 447 304 388 304 c 0
 328 304 289 353 297 408 c 0
EndSplineSet
EndChar

StartChar: eth
Encoding: 240 240 302
Width: 641
VWidth: 0
Flags: HMW
LayerCount: 2
Fore
SplineSet
304 -18 m 0
 162 -18 54 74 54 217 c 0
 54 364 162 478 302 478 c 0
 390 478 458 429 519 331 c 1
 478 332 l 1
 423 491 334 591 192 690 c 1
 324 772 l 1
 538 588 621 445 621 279 c 0
 621 116 487 -18 304 -18 c 0
320 134 m 0
 385 134 432 189 432 247 c 0
 432 296 400 335 349 335 c 0
 287 335 236 281 236 221 c 0
 236 173 268 134 320 134 c 0
212 508 m 1
 196 566 l 1
 566 679 l 1
 582 622 l 1
 212 508 l 1
EndSplineSet
EndChar

StartChar: racute
Encoding: 341 341 303
Width: 419
VWidth: 0
Flags: HMW
LayerCount: 2
Fore
SplineSet
271 460 m 1
 191 0 l 1
 24 0 l 1
 103 460 l 1
 271 460 l 1
370 283 m 1
 357 297 341 310 318 310 c 0
 271 311 239 265 228 212 c 1
 202 281 l 1
 219 377 293 474 385 472 c 0
 419 471 445 453 462 430 c 1
 370 283 l 1
490 678 m 1
 293 532 l 1
 200 581 l 1
 370 737 l 1
 490 678 l 1
EndSplineSet
EndChar

StartChar: rcaron
Encoding: 345 345 304
Width: 419
VWidth: 0
Flags: HMW
LayerCount: 2
Fore
SplineSet
271 460 m 1
 191 0 l 1
 24 0 l 1
 103 460 l 1
 271 460 l 1
370 283 m 1
 357 297 341 310 318 310 c 0
 271 311 239 265 228 212 c 1
 202 281 l 1
 219 377 293 474 385 472 c 0
 419 471 445 453 462 430 c 1
 370 283 l 1
318 671 m 1
 414 752 l 1
 524 669 l 1
 302 532 l 1
 119 675 l 1
 249 753 l 1
 318 671 l 1
EndSplineSet
EndChar

StartChar: Rcaron
Encoding: 344 344 305
Width: 653
VWidth: 0
Flags: HMW
LayerCount: 2
Fore
SplineSet
281 308 m 1
 472 308 l 1
 623 0 l 1
 406 0 l 1
 281 308 l 1
161 700 m 1
 353 700 l 1
 232 0 l 1
 41 0 l 1
 161 700 l 1
254 536 m 1
 282 700 l 1
 424 700 l 1
 589 698 687 608 665 466 c 0
 643 322 524 233 354 231 c 1
 200 231 l 1
 227 380 l 1
 354 380 l 1
 410 382 455 408 464 458 c 0
 472 506 443 533 390 535 c 1
 254 536 l 1
446 917 m 1
 543 998 l 1
 653 915 l 1
 430 778 l 1
 248 921 l 1
 378 1000 l 1
 446 917 l 1
EndSplineSet
EndChar

StartChar: uni0213
Encoding: 531 531 306
Width: 419
VWidth: 0
Flags: HMW
LayerCount: 2
Fore
SplineSet
271 460 m 1
 191 0 l 1
 24 0 l 1
 103 460 l 1
 271 460 l 1
370 283 m 1
 357 297 341 310 318 310 c 0
 271 311 239 265 228 212 c 1
 202 281 l 1
 219 377 293 474 385 472 c 0
 419 471 445 453 462 430 c 1
 370 283 l 1
136 531 m 1
 237 532 l 1
 245 562 271 587 303 586 c 0
 335 585 351 564 353 531 c 1
 456 532 l 1
 466 614 428 678 328 679 c 0
 226 680 160 614 136 531 c 1
EndSplineSet
EndChar

StartChar: uni0212
Encoding: 530 530 307
Width: 653
VWidth: 0
Flags: HMW
LayerCount: 2
Fore
SplineSet
281 308 m 1
 472 308 l 1
 623 0 l 1
 406 0 l 1
 281 308 l 1
161 700 m 1
 353 700 l 1
 232 0 l 1
 41 0 l 1
 161 700 l 1
254 536 m 1
 282 700 l 1
 424 700 l 1
 589 698 687 608 665 466 c 0
 643 322 524 233 354 231 c 1
 200 231 l 1
 227 380 l 1
 354 380 l 1
 410 382 455 408 464 458 c 0
 472 506 443 533 390 535 c 1
 254 536 l 1
275 777 m 1
 377 778 l 1
 385 808 411 833 443 832 c 0
 475 831 491 811 493 778 c 1
 596 778 l 1
 606 860 568 925 468 926 c 0
 366 927 299 860 275 777 c 1
EndSplineSet
EndChar

StartChar: OE
Encoding: 338 338 308
Width: 955
VWidth: 0
Flags: HMW
LayerCount: 2
Fore
SplineSet
566 288 m 1
 592 440 l 1
 962 440 l 1
 935 287 l 1
 566 288 l 1
546 670 m 1
 730 670 l 1
 620 30 l 1
 436 30 l 1
 546 670 l 1
931 156 m 1
 906 0 l 1
 357 0 l 1
 159 4 34 156 62 350 c 0
 92 552 261 697 465 700 c 1
 1026 700 l 1
 998 543 l 1
 622 543 l 1
 604 530 l 1
 486 530 l 1
 361 528 282 466 261 350 c 0
 241 238 293 173 414 170 c 1
 528 170 l 1
 550 157 l 1
 931 156 l 1
EndSplineSet
EndChar

StartChar: oe
Encoding: 339 339 309
Width: 873
VWidth: 0
Flags: HMW
LayerCount: 2
Fore
SplineSet
679 250 m 2
 685 303 680 356 628 359 c 0
 576 363 534 317 523 260 c 1
 515 230 l 1
 507 168 516 109 578 107 c 0
 625 105 660 132 689 162 c 1
 840 130 l 1
 790 54 698 -10 598 -10 c 0
 469 -10 412 108 428 230 c 0
 430 247 434 263 439 279 c 0
 473 386 568 470 686 470 c 0
 806 470 868 358 854 234 c 0
 852 224 848 204 846 194 c 1
 676 231 l 1
 679 250 l 2
474 194 m 1
 488 282 l 1
 842 282 l 1
 846 194 l 1
 474 194 l 1
44 230 m 0
 63 366 173 470 303 470 c 0
 433 470 482 358 466 230 c 0
 448 97 361 -10 232 -10 c 0
 102 -10 27 98 44 230 c 0
212 230 m 0
 204 176 227 131 280 130 c 0
 335 129 377 173 386 230 c 0
 394 283 376 329 322 330 c 0
 268 331 221 287 212 230 c 0
EndSplineSet
EndChar

StartChar: a.alt
Encoding: 65536 -1 310
Width: 542
VWidth: 0
Flags: HMW
LayerCount: 2
Fore
SplineSet
186 140 m 0
 184 113 206 99 231 98 c 0
 282 96 323 136 337 188 c 1
 344 128 l 1
 325 43 252 -10 160 -10 c 0
 74 -10 3 42 15 134 c 0
 29 226 115 276 220 276 c 0
 285 276 343 258 377 228 c 1
 365 154 l 1
 337 176 304 188 264 188 c 0
 223 188 189 172 186 140 c 0
140 308 m 1
 102 423 l 1
 166 449 242 474 324 474 c 0
 433 474 534 426 520 322 c 1
 466 0 l 1
 303 0 l 1
 354 282 l 1
 359 320 339 343 291 345 c 0
 236 348 173 322 140 308 c 1
EndSplineSet
EndChar

StartChar: Jcircumflex
Encoding: 308 308 312
Width: 346
VWidth: 0
Flags: HMW
LayerCount: 2
Fore
SplineSet
-112 -52 m 1
 -92 -68 -66 -84 -39 -84 c 0
 -3 -83 32 -52 40 -5 c 1
 161 700 l 1
 372 700 l 1
 244 -52 l 2
 221 -186 99 -244 -33 -244 c 0
 -111 -244 -180 -216 -234 -184 c 1
 -112 -52 l 1
296 860 m 1
 200 778 l 1
 90 862 l 1
 312 999 l 1
 495 856 l 1
 366 777 l 1
 296 860 l 1
EndSplineSet
EndChar

StartChar: jcircumflex
Encoding: 309 309 313
Width: 269
VWidth: 0
Flags: HMW
LayerCount: 2
Fore
SplineSet
-80 -66 m 1
 -70 -80 -57 -92 -40 -92 c 0
 -9 -92 14 -64 20 -30 c 1
 104 460 l 1
 268 460 l 1
 176 -77 l 2
 158 -175 85 -245 -30 -244 c 0
 -94 -244 -131 -216 -161 -189 c 1
 -80 -66 l 1
215 612 m 1
 118 531 l 1
 8 615 l 1
 230 752 l 1
 413 609 l 1
 284 530 l 1
 215 612 l 1
EndSplineSet
EndChar

StartChar: Nacute
Encoding: 323 323 314
Width: 775
VWidth: 0
Flags: HMW
LayerCount: 2
Fore
SplineSet
616 700 m 1
 800 700 l 1
 675 -34 l 1
 286 356 l 1
 225 0 l 1
 41 0 l 1
 166 734 l 1
 554 344 l 1
 616 700 l 1
658 910 m 1
 461 764 l 1
 368 813 l 1
 538 969 l 1
 658 910 l 1
EndSplineSet
EndChar

StartChar: nacute
Encoding: 324 324 315
Width: 572
VWidth: 0
Flags: HMW
LayerCount: 2
Fore
SplineSet
274 460 m 1
 195 0 l 1
 24 0 l 1
 103 460 l 1
 274 460 l 1
365 280 m 1
 369 318 366 350 325 354 c 0
 283 358 253 320 243 280 c 1
 215 273 l 1
 233 375 289 469 406 470 c 0
 520 471 557 400 544 298 c 1
 494 0 l 1
 315 0 l 1
 365 280 l 1
544 678 m 1
 346 532 l 1
 254 580 l 1
 424 736 l 1
 544 678 l 1
EndSplineSet
EndChar

StartChar: uni0145
Encoding: 325 325 316
Width: 775
VWidth: 0
Flags: HMW
LayerCount: 2
Fore
SplineSet
302 -61 m 1
 470 -94 l 1
 302 -341 l 1
 172 -316 l 1
 302 -61 l 1
616 700 m 1
 800 700 l 1
 675 -34 l 1
 286 356 l 1
 225 0 l 1
 41 0 l 1
 166 734 l 1
 554 344 l 1
 616 700 l 1
EndSplineSet
EndChar

StartChar: uni0146
Encoding: 326 326 317
Width: 572
VWidth: 0
Flags: HMW
LayerCount: 2
Fore
SplineSet
274 460 m 1
 195 0 l 1
 24 0 l 1
 103 460 l 1
 274 460 l 1
365 280 m 1
 369 318 366 350 325 354 c 0
 283 358 253 320 243 280 c 1
 214 273 l 1
 232 375 289 469 406 470 c 0
 520 471 557 400 544 298 c 1
 494 0 l 1
 315 0 l 1
 365 280 l 1
204 -61 m 1
 373 -95 l 1
 205 -342 l 1
 75 -318 l 1
 204 -61 l 1
EndSplineSet
EndChar

StartChar: Ncaron
Encoding: 327 327 318
Width: 775
VWidth: 0
Flags: HMW
LayerCount: 2
Fore
SplineSet
481 910 m 1
 578 992 l 1
 687 907 l 1
 466 770 l 1
 282 913 l 1
 412 992 l 1
 481 910 l 1
616 700 m 1
 800 700 l 1
 675 -34 l 1
 286 356 l 1
 225 0 l 1
 41 0 l 1
 166 734 l 1
 554 344 l 1
 616 700 l 1
EndSplineSet
EndChar

StartChar: ncaron
Encoding: 328 328 319
Width: 572
VWidth: 0
Flags: HMW
LayerCount: 2
Fore
SplineSet
274 460 m 1
 195 0 l 1
 24 0 l 1
 103 460 l 1
 274 460 l 1
365 280 m 1
 369 318 366 350 325 354 c 0
 283 358 253 320 243 280 c 1
 214 273 l 1
 232 375 289 469 406 470 c 0
 520 471 557 400 544 298 c 1
 494 0 l 1
 315 0 l 1
 365 280 l 1
369 670 m 1
 466 752 l 1
 576 668 l 1
 353 531 l 1
 170 674 l 1
 300 752 l 1
 369 670 l 1
EndSplineSet
EndChar

StartChar: Omacron
Encoding: 332 332 320
Width: 805
VWidth: 0
Flags: HMW
LayerCount: 2
Fore
SplineSet
265 350 m 0
 249 252 290 161 398 159 c 0
 507 157 588 245 606 350 c 0
 622 449 584 540 474 541 c 0
 365 542 283 455 265 350 c 0
62 350 m 0
 94 561 277 718 493 718 c 0
 707 718 840 554 810 350 c 0
 778 138 599 -26 377 -26 c 0
 159 -26 32 146 62 350 c 0
324 778 m 1
 349 926 l 1
 719 926 l 1
 693 778 l 1
 324 778 l 1
EndSplineSet
EndChar

StartChar: omacron
Encoding: 333 333 321
Width: 584
VWidth: 0
Flags: HMW
LayerCount: 2
Fore
SplineSet
40 230 m 0
 61 374 190 470 340 470 c 0
 486 470 589 370 569 230 c 0
 548 86 419 -10 269 -10 c 0
 123 -10 20 90 40 230 c 0
216 230 m 0
 208 178 232 131 284 130 c 0
 337 129 385 174 394 230 c 0
 402 282 378 329 326 330 c 0
 273 331 225 286 216 230 c 0
171 531 m 1
 197 679 l 1
 566 679 l 1
 540 531 l 1
 171 531 l 1
EndSplineSet
EndChar

StartChar: Obreve
Encoding: 334 334 322
Width: 805
VWidth: 0
Flags: HMW
LayerCount: 2
Fore
SplineSet
265 350 m 0
 249 252 290 161 398 159 c 0
 507 157 588 245 606 350 c 0
 622 449 584 540 474 541 c 0
 365 542 283 455 265 350 c 0
62 350 m 0
 94 561 277 718 493 718 c 0
 707 718 840 554 810 350 c 0
 778 138 599 -26 377 -26 c 0
 159 -26 32 146 62 350 c 0
370 926 m 1
 474 926 l 1
 474 895 490 874 520 872 c 0
 552 870 578 896 587 926 c 1
 696 925 l 1
 678 841 614 778 514 778 c 0
 414 778 364 840 370 926 c 1
EndSplineSet
EndChar

StartChar: obreve
Encoding: 335 335 323
Width: 584
VWidth: 0
Flags: HMW
LayerCount: 2
Fore
SplineSet
40 230 m 0
 61 374 190 470 340 470 c 0
 486 470 589 370 569 230 c 0
 548 86 419 -10 269 -10 c 0
 123 -10 20 90 40 230 c 0
216 230 m 0
 208 178 232 131 284 130 c 0
 337 129 385 174 394 230 c 0
 402 282 378 329 326 330 c 0
 273 331 225 286 216 230 c 0
218 679 m 1
 322 678 l 1
 322 647 337 626 367 624 c 0
 399 622 425 648 434 678 c 1
 543 678 l 1
 525 594 461 532 361 532 c 0
 261 532 212 593 218 679 c 1
EndSplineSet
EndChar

StartChar: Racute
Encoding: 340 340 324
Width: 653
VWidth: 0
Flags: HMW
LayerCount: 2
Fore
SplineSet
281 308 m 1
 472 308 l 1
 623 0 l 1
 406 0 l 1
 281 308 l 1
161 700 m 1
 353 700 l 1
 232 0 l 1
 41 0 l 1
 161 700 l 1
254 536 m 1
 282 700 l 1
 424 700 l 1
 589 698 687 608 665 466 c 0
 643 322 524 233 354 231 c 1
 200 231 l 1
 227 380 l 1
 354 380 l 1
 410 382 455 408 464 458 c 0
 472 506 443 533 390 535 c 1
 254 536 l 1
606 925 m 1
 410 779 l 1
 316 827 l 1
 486 983 l 1
 606 925 l 1
EndSplineSet
EndChar

StartChar: uni0156
Encoding: 342 342 325
Width: 653
VWidth: 0
Flags: HMW
LayerCount: 2
Fore
SplineSet
281 308 m 1
 472 308 l 1
 623 0 l 1
 406 0 l 1
 281 308 l 1
161 700 m 1
 353 700 l 1
 232 0 l 1
 41 0 l 1
 161 700 l 1
254 536 m 1
 282 700 l 1
 424 700 l 1
 589 698 687 608 665 466 c 0
 643 322 524 233 354 231 c 1
 200 231 l 1
 227 380 l 1
 354 380 l 1
 410 382 455 408 464 458 c 0
 472 506 443 533 390 535 c 1
 254 536 l 1
280 -61 m 1
 447 -95 l 1
 279 -342 l 1
 150 -318 l 1
 280 -61 l 1
EndSplineSet
EndChar

StartChar: uni0157
Encoding: 343 343 326
Width: 419
VWidth: 0
Flags: HMW
LayerCount: 2
Fore
SplineSet
271 460 m 1
 191 0 l 1
 24 0 l 1
 103 460 l 1
 271 460 l 1
370 283 m 1
 357 297 341 310 318 310 c 0
 271 311 239 265 228 212 c 1
 202 281 l 1
 219 377 293 474 385 472 c 0
 419 471 445 453 462 430 c 1
 370 283 l 1
54 -61 m 1
 222 -95 l 1
 54 -342 l 1
 -76 -318 l 1
 54 -61 l 1
EndSplineSet
EndChar

StartChar: Scedilla
Encoding: 350 350 327
Width: 629
VWidth: 0
Flags: HMW
LayerCount: 2
Fore
SplineSet
174 258 m 1
 208 190 244 142 314 142 c 0
 356 142 392 160 400 197 c 0
 411 249 344 267 286 291 c 0
 207 327 116 391 131 514 c 0
 150 640 271 718 414 718 c 0
 548 718 626 652 654 562 c 1
 502 482 l 1
 479 526 452 556 404 556 c 0
 368 556 332 537 325 508 c 0
 314 462 404 440 460 418 c 0
 558 380 616 306 602 198 c 0
 580 51 450 -26 292 -26 c 0
 166 -26 63 48 30 164 c 1
 174 258 l 1
259 61 m 1
 388 56 l 1
 272 -69 l 1
 284 -66 298 -64 312 -64 c 0
 360 -66 402 -108 394 -169 c 0
 384 -241 310 -280 244 -282 c 0
 186 -283 139 -268 90 -240 c 1
 148 -166 l 1
 172 -182 204 -191 226 -191 c 0
 252 -191 287 -180 289 -156 c 0
 291 -132 258 -126 236 -126 c 0
 215 -125 178 -130 143 -140 c 1
 259 61 l 1
EndSplineSet
EndChar

StartChar: scedilla
Encoding: 351 351 328
Width: 458
VWidth: 0
Flags: HMW
LayerCount: 2
Fore
SplineSet
77 179 m 1
 137 127 185 99 223 102 c 0
 241 102 262 114 265 132 c 0
 270 166 224 176 186 190 c 0
 122 216 70 257 80 337 c 0
 93 424 177 470 273 470 c 0
 349 470 410 442 468 407 c 1
 402 294 l 1
 368 327 323 357 283 356 c 0
 260 356 238 347 234 331 c 0
 227 297 289 286 329 270 c 0
 391 245 442 206 433 130 c 0
 420 28 343 -21 238 -22 c 0
 144 -23 68 12 -1 62 c 1
 77 179 l 1
198 64 m 1
 327 60 l 1
 210 -64 l 1
 222 -61 237 -60 251 -60 c 0
 300 -62 341 -104 334 -165 c 0
 324 -237 249 -275 183 -277 c 0
 125 -278 77 -264 28 -236 c 1
 86 -162 l 1
 110 -178 142 -187 164 -187 c 0
 190 -187 226 -176 228 -152 c 0
 230 -128 196 -122 174 -122 c 0
 153 -121 117 -126 82 -136 c 1
 198 64 l 1
EndSplineSet
EndChar

StartChar: Zcaron
Encoding: 381 381 329
Width: 622
VWidth: 0
Flags: HMW
LayerCount: 2
Fore
SplineSet
123 526 m 1
 153 700 l 1
 708 700 l 1
 308 166 l 1
 576 166 l 1
 546 0 l 1
 -24 0 l 1
 370 526 l 1
 123 526 l 1
462 917 m 1
 558 998 l 1
 669 915 l 1
 446 778 l 1
 264 921 l 1
 393 1000 l 1
 462 917 l 1
EndSplineSet
EndChar

StartChar: zcaron
Encoding: 382 382 330
Width: 517
VWidth: 0
Flags: HMW
LayerCount: 2
Fore
SplineSet
368 670 m 1
 465 750 l 1
 574 667 l 1
 353 530 l 1
 170 673 l 1
 299 751 l 1
 368 670 l 1
258 304 m 1
 82 304 l 1
 110 460 l 1
 566 460 l 1
 306 156 l 1
 477 156 l 1
 450 0 l 1
 -17 0 l 1
 258 304 l 1
EndSplineSet
EndChar

StartChar: Ydieresis
Encoding: 376 376 331
Width: 669
VWidth: 0
Flags: HMW
LayerCount: 2
Fore
SplineSet
214 883 m 0
 221 934 271 972 322 972 c 0
 374 972 413 932 406 880 c 0
 399 829 349 792 298 792 c 0
 246 792 207 831 214 883 c 0
510 883 m 0
 517 934 567 972 618 972 c 0
 670 972 710 932 703 880 c 0
 696 829 646 792 595 792 c 0
 543 792 503 831 510 883 c 0
544 700 m 1
 770 700 l 1
 452 276 l 1
 406 0 l 1
 210 0 l 1
 260 284 l 1
 90 700 l 1
 307 700 l 1
 384 459 l 1
 544 700 l 1
EndSplineSet
EndChar

StartChar: Scaron
Encoding: 352 352 332
Width: 629
VWidth: 0
Flags: HMW
LayerCount: 2
Fore
SplineSet
174 258 m 1
 208 190 244 142 314 142 c 0
 356 142 392 160 400 197 c 0
 411 249 344 266 286 291 c 0
 207 327 117 393 132 515 c 0
 151 641 273 718 414 718 c 0
 548 718 628 650 654 562 c 1
 502 482 l 1
 479 526 453 556 405 556 c 0
 369 556 332 537 325 508 c 0
 313 462 404 440 460 418 c 0
 558 380 616 306 602 198 c 0
 580 50 450 -26 292 -26 c 0
 166 -26 63 48 30 164 c 1
 174 258 l 1
450 917 m 1
 547 998 l 1
 656 915 l 1
 434 778 l 1
 252 921 l 1
 380 1000 l 1
 450 917 l 1
EndSplineSet
EndChar

StartChar: scaron
Encoding: 353 353 333
Width: 458
VWidth: 0
Flags: HMW
LayerCount: 2
Fore
SplineSet
77 178 m 1
 137 130 183 107 222 108 c 0
 240 108 262 113 264 131 c 0
 268 161 191 173 154 191 c 0
 97 219 56 263 65 333 c 0
 79 425 175 470 273 470 c 0
 349 470 412 442 468 407 c 1
 402 293 l 1
 366 326 316 350 274 350 c 0
 251 350 228 343 226 326 c 0
 222 298 290 285 329 270 c 0
 391 245 442 206 433 130 c 0
 420 28 342 -22 236 -22 c 0
 142 -23 65 12 -1 62 c 1
 77 178 l 1
305 654 m 1
 402 735 l 1
 512 651 l 1
 290 514 l 1
 106 657 l 1
 236 736 l 1
 305 654 l 1
EndSplineSet
EndChar

StartChar: Lslash
Encoding: 321 321 334
Width: 542
VWidth: 0
Flags: HMW
LayerCount: 2
Fore
SplineSet
32 300 m 1
 0 382 l 1
 424 647 l 1
 456 566 l 1
 32 300 l 1
161 700 m 1
 353 700 l 1
 261 166 l 1
 536 166 l 1
 508 0 l 1
 41 0 l 1
 161 700 l 1
EndSplineSet
EndChar

StartChar: lslash
Encoding: 322 322 335
Width: 273
VWidth: 0
Flags: HMW
LayerCount: 2
Fore
SplineSet
16 300 m 1
 -16 382 l 1
 369 619 l 1
 400 538 l 1
 16 300 l 1
157 780 m 1
 330 780 l 1
 195 0 l 1
 24 0 l 1
 157 780 l 1
EndSplineSet
EndChar

StartChar: uni0218
Encoding: 536 536 336
Width: 629
VWidth: 0
Flags: HMW
LayerCount: 2
Fore
SplineSet
174 258 m 1
 208 190 244 142 314 142 c 0
 356 142 392 160 400 197 c 0
 411 249 344 266 286 291 c 0
 207 327 117 393 132 515 c 0
 151 641 273 718 414 718 c 0
 548 718 628 650 654 562 c 1
 502 482 l 1
 479 526 453 556 405 556 c 0
 369 556 332 537 325 508 c 0
 313 462 404 440 460 418 c 0
 558 380 616 306 602 198 c 0
 580 50 450 -26 292 -26 c 0
 166 -26 63 48 30 164 c 1
 174 258 l 1
202 -71 m 1
 372 -105 l 1
 202 -352 l 1
 73 -328 l 1
 202 -71 l 1
EndSplineSet
EndChar

StartChar: uni0219
Encoding: 537 537 337
Width: 458
VWidth: 0
Flags: HMW
LayerCount: 2
Fore
SplineSet
77 178 m 1
 137 130 183 107 222 108 c 0
 240 108 262 113 264 131 c 0
 268 161 191 173 154 191 c 0
 97 219 56 263 65 333 c 0
 79 425 175 470 273 470 c 0
 349 470 412 442 468 407 c 1
 402 293 l 1
 366 326 316 350 274 350 c 0
 251 350 228 343 226 326 c 0
 222 298 290 285 329 270 c 0
 391 245 442 206 433 130 c 0
 420 28 342 -22 236 -22 c 0
 142 -23 65 12 -1 62 c 1
 77 178 l 1
148 -67 m 1
 316 -101 l 1
 148 -348 l 1
 18 -324 l 1
 148 -67 l 1
EndSplineSet
EndChar

StartChar: pi
Encoding: 960 960 338
Width: 602
VWidth: 0
Flags: HMW
LayerCount: 2
Fore
SplineSet
132 430 m 1
 292 430 l 1
 218 0 l 1
 58 0 l 1
 132 430 l 1
79 460 m 1
 618 460 l 1
 592 320 l 1
 55 320 l 1
 79 460 l 1
375 430 m 1
 534 430 l 1
 492 190 l 1
 486 137 498 128 532 120 c 1
 512 -8 l 1
 396 -8 307 -2 323 121 c 1
 375 430 l 1
EndSplineSet
EndChar

StartChar: trademark
Encoding: 8482 8482 339
Width: 747
VWidth: 0
Flags: HMW
LayerCount: 2
Fore
SplineSet
104 613 m 1
 119 700 l 1
 407 700 l 1
 392 613 l 1
 297 613 l 1
 251 350 l 1
 154 350 l 1
 200 613 l 1
 104 613 l 1
670 594 m 1
 764 724 l 1
 757 350 l 1
 656 350 l 1
 670 594 l 1
464 718 m 1
 514 585 l 1
 446 350 l 1
 342 350 l 1
 464 718 l 1
767 725 m 1
 740 590 l 1
 558 380 l 1
 444 599 l 1
 464 717 l 1
 576 518 l 1
 767 725 l 1
EndSplineSet
EndChar

StartChar: uni2219
Encoding: 8729 8729 340
Width: 319
VWidth: 0
Flags: HMW
LayerCount: 2
Fore
SplineSet
105 453 m 0
 113 508 164 555 223 555 c 0
 283 555 322 506 314 451 c 0
 306 396 255 348 196 348 c 0
 136 348 97 398 105 453 c 0
EndSplineSet
EndChar

StartChar: agrave.alt
Encoding: 65537 -1 341
Width: 545
VWidth: 0
Flags: HMW
LayerCount: 2
Fore
SplineSet
186 137 m 0
 183 111 205 99 231 98 c 0
 284 96 326 132 340 188 c 1
 346 129 l 1
 327 44 256 -10 162 -10 c 0
 70 -10 3 42 15 130 c 0
 29 224 124 276 230 276 c 0
 289 276 348 259 380 231 c 1
 368 154 l 1
 339 177 310 189 267 188 c 0
 231 187 191 169 186 137 c 0
144 308 m 1
 105 423 l 1
 169 449 244 474 324 474 c 0
 435 474 537 426 524 322 c 1
 469 0 l 1
 306 0 l 1
 356 284 l 1
 359 320 340 343 296 345 c 0
 237 348 179 323 144 308 c 1
195 687 m 1
 325 740 l 1
 446 577 l 1
 348 534 l 1
 195 687 l 1
EndSplineSet
EndChar

StartChar: aacute.alt
Encoding: 65538 -1 342
Width: 545
VWidth: 0
Flags: HMW
LayerCount: 2
Fore
SplineSet
186 137 m 0
 183 111 205 99 231 98 c 0
 284 96 326 132 340 188 c 1
 346 129 l 1
 327 44 256 -10 162 -10 c 0
 70 -10 3 42 15 130 c 0
 29 224 124 276 230 276 c 0
 289 276 348 259 380 231 c 1
 368 154 l 1
 339 177 310 189 267 188 c 0
 231 187 191 169 186 137 c 0
144 308 m 1
 105 423 l 1
 169 449 244 474 324 474 c 0
 435 474 537 426 524 322 c 1
 469 0 l 1
 306 0 l 1
 356 284 l 1
 359 320 340 343 296 345 c 0
 237 348 179 323 144 308 c 1
538 681 m 1
 341 534 l 1
 248 583 l 1
 418 739 l 1
 538 681 l 1
EndSplineSet
EndChar

StartChar: acircumflex.alt
Encoding: 65539 -1 343
Width: 545
VWidth: 0
Flags: HMW
LayerCount: 2
Fore
SplineSet
186 137 m 0
 183 111 205 99 231 98 c 0
 284 96 326 132 340 188 c 1
 346 129 l 1
 327 44 256 -10 162 -10 c 0
 70 -10 3 42 15 130 c 0
 29 224 124 276 230 276 c 0
 289 276 348 259 380 231 c 1
 368 154 l 1
 339 177 310 189 267 188 c 0
 231 187 191 169 186 137 c 0
144 308 m 1
 105 423 l 1
 169 449 244 474 324 474 c 0
 435 474 537 426 524 322 c 1
 469 0 l 1
 306 0 l 1
 356 284 l 1
 359 320 340 343 296 345 c 0
 237 348 179 323 144 308 c 1
358 616 m 1
 262 534 l 1
 151 618 l 1
 373 754 l 1
 557 611 l 1
 427 533 l 1
 358 616 l 1
EndSplineSet
EndChar

StartChar: atilde.alt
Encoding: 65540 -1 344
Width: 545
VWidth: 0
Flags: HMW
LayerCount: 2
Fore
SplineSet
186 137 m 0
 183 111 205 99 231 98 c 0
 284 96 326 132 340 188 c 1
 346 129 l 1
 327 44 256 -10 162 -10 c 0
 70 -10 3 42 15 130 c 0
 29 224 124 276 230 276 c 0
 289 276 348 259 380 231 c 1
 368 154 l 1
 339 177 310 189 267 188 c 0
 231 187 191 169 186 137 c 0
144 308 m 1
 105 423 l 1
 169 449 244 474 324 474 c 0
 435 474 537 426 524 322 c 1
 469 0 l 1
 306 0 l 1
 356 284 l 1
 359 320 340 343 296 345 c 0
 237 348 179 323 144 308 c 1
152 610 m 1
 173 658 220 708 286 706 c 0
 341 705 363 652 413 654 c 0
 443 655 468 682 490 708 c 1
 556 622 l 1
 529 584 470 534 407 536 c 0
 357 538 322 593 275 589 c 0
 242 587 228 557 220 539 c 1
 152 610 l 1
EndSplineSet
EndChar

StartChar: adieresis.alt
Encoding: 65541 -1 345
Width: 545
VWidth: 0
Flags: HMW
LayerCount: 2
Fore
SplineSet
186 137 m 0
 183 111 205 99 231 98 c 0
 284 96 326 132 340 188 c 1
 346 129 l 1
 327 44 256 -10 162 -10 c 0
 70 -10 3 42 15 130 c 0
 29 224 124 276 230 276 c 0
 289 276 348 259 380 231 c 1
 368 154 l 1
 339 177 310 189 267 188 c 0
 231 187 191 169 186 137 c 0
144 308 m 1
 105 423 l 1
 169 449 244 474 324 474 c 0
 435 474 537 426 524 322 c 1
 469 0 l 1
 306 0 l 1
 356 284 l 1
 359 320 340 343 296 345 c 0
 237 348 179 323 144 308 c 1
384 626 m 0
 391 677 441 714 492 714 c 0
 544 714 583 674 576 622 c 0
 569 571 519 534 468 534 c 0
 416 534 377 574 384 626 c 0
135 626 m 0
 142 677 191 714 242 714 c 0
 294 714 334 674 327 622 c 0
 320 571 270 534 219 534 c 0
 167 534 128 574 135 626 c 0
EndSplineSet
EndChar

StartChar: aring.alt
Encoding: 65542 -1 346
Width: 545
VWidth: 0
Flags: HMW
LayerCount: 2
Fore
SplineSet
186 137 m 0
 183 111 205 99 231 98 c 0
 284 96 326 132 340 188 c 1
 346 129 l 1
 327 44 256 -10 162 -10 c 0
 70 -10 3 42 15 130 c 0
 29 224 124 276 230 276 c 0
 289 276 348 259 380 231 c 1
 368 154 l 1
 339 177 310 189 267 188 c 0
 231 187 191 169 186 137 c 0
144 308 m 1
 105 423 l 1
 169 449 244 474 324 474 c 0
 435 474 537 426 524 322 c 1
 469 0 l 1
 306 0 l 1
 356 284 l 1
 359 320 340 343 296 345 c 0
 237 348 179 323 144 308 c 1
231 655 m 0
 240 724 304 774 376 774 c 0
 448 774 500 723 490 653 c 0
 481 584 416 534 344 534 c 0
 272 534 221 586 231 655 c 0
317 653 m 0
 315 631 328 610 350 609 c 0
 374 608 400 631 404 655 c 0
 406 677 393 699 371 700 c 0
 347 701 321 677 317 653 c 0
EndSplineSet
EndChar

StartChar: amacron.alt
Encoding: 65543 -1 347
Width: 545
VWidth: 0
Flags: HMW
LayerCount: 2
Fore
SplineSet
186 137 m 0
 183 111 205 99 231 98 c 0
 284 96 326 132 340 188 c 1
 346 129 l 1
 327 44 256 -10 162 -10 c 0
 70 -10 3 42 15 130 c 0
 29 224 124 276 230 276 c 0
 289 276 348 259 380 231 c 1
 368 154 l 1
 339 177 310 189 267 188 c 0
 231 187 191 169 186 137 c 0
144 308 m 1
 105 423 l 1
 169 449 244 474 324 474 c 0
 435 474 537 426 524 322 c 1
 469 0 l 1
 306 0 l 1
 356 284 l 1
 359 320 340 343 296 345 c 0
 237 348 179 323 144 308 c 1
155 538 m 1
 181 686 l 1
 552 686 l 1
 526 538 l 1
 155 538 l 1
EndSplineSet
EndChar

StartChar: abreve.alt
Encoding: 65544 -1 348
Width: 545
VWidth: 0
Flags: HMW
LayerCount: 2
Fore
SplineSet
186 137 m 0
 183 111 205 99 231 98 c 0
 284 96 326 132 340 188 c 1
 346 129 l 1
 327 44 256 -10 162 -10 c 0
 70 -10 3 42 15 130 c 0
 29 224 124 276 230 276 c 0
 289 276 348 259 380 231 c 1
 368 154 l 1
 339 177 310 189 267 188 c 0
 231 187 191 169 186 137 c 0
144 308 m 1
 105 423 l 1
 169 449 244 474 324 474 c 0
 435 474 537 426 524 322 c 1
 469 0 l 1
 306 0 l 1
 356 284 l 1
 359 320 340 343 296 345 c 0
 237 348 179 323 144 308 c 1
202 682 m 1
 306 682 l 1
 306 651 321 630 351 628 c 0
 383 626 409 652 418 682 c 1
 526 681 l 1
 508 597 445 534 345 534 c 0
 245 534 196 596 202 682 c 1
EndSplineSet
EndChar

StartChar: aogonek.alt
Encoding: 65545 -1 349
Width: 545
VWidth: 0
Flags: HMW
LayerCount: 2
Fore
SplineSet
186 137 m 0
 183 111 206 99 231 98 c 0
 284 96 326 132 340 188 c 1
 346 129 l 1
 327 44 256 -10 162 -10 c 0
 70 -10 3 42 15 131 c 0
 29 224 122 276 230 276 c 0
 289 276 348 259 380 231 c 1
 368 154 l 1
 339 177 310 189 267 188 c 0
 231 187 190 169 186 137 c 0
144 308 m 1
 105 423 l 1
 169 449 244 474 324 474 c 0
 435 474 537 426 524 322 c 1
 469 0 l 1
 306 0 l 1
 356 284 l 1
 359 320 340 343 296 345 c 0
 237 348 179 323 144 308 c 1
414 -106 m 1
 436 -182 l 1
 412 -203 381 -220 331 -220 c 0
 272 -220 223 -183 231 -119 c 0
 241 -47 322 -8 389 25 c 1
 430 0 l 1
 387 -27 346 -56 339 -92 c 0
 337 -110 342 -123 361 -125 c 0
 379 -127 400 -116 414 -106 c 1
EndSplineSet
EndChar

StartChar: dagger
Encoding: 8224 8224 350
Width: 631
VWidth: 0
Flags: HMW
LayerCount: 2
Fore
SplineSet
152 540 m 1
 612 540 l 1
 590 400 l 1
 130 400 l 1
 152 540 l 1
327 700 m 1
 486 700 l 1
 355 -150 l 1
 196 -150 l 1
 327 700 l 1
EndSplineSet
EndChar

StartChar: daggerdbl
Encoding: 8225 8225 351
Width: 631
VWidth: 0
Flags: HMW
LayerCount: 2
Fore
SplineSet
95 169 m 1
 556 169 l 1
 533 28 l 1
 73 28 l 1
 95 169 l 1
152 540 m 1
 612 540 l 1
 590 400 l 1
 130 400 l 1
 152 540 l 1
327 700 m 1
 486 700 l 1
 355 -150 l 1
 196 -150 l 1
 327 700 l 1
EndSplineSet
EndChar

StartChar: ellipsis
Encoding: 8230 8230 352
Width: 904
VWidth: 0
Flags: HMW
LayerCount: 2
Fore
SplineSet
41 77 m 0
 49 132 100 180 159 180 c 0
 219 180 258 130 250 75 c 0
 242 20 191 -26 132 -26 c 0
 72 -26 33 22 41 77 c 0
332 77 m 0
 340 132 391 180 450 180 c 0
 510 180 550 130 542 75 c 0
 534 20 482 -26 423 -26 c 0
 363 -26 324 22 332 77 c 0
624 77 m 0
 632 132 682 180 741 180 c 0
 801 180 840 130 832 75 c 0
 824 20 773 -26 714 -26 c 0
 654 -26 616 22 624 77 c 0
EndSplineSet
EndChar

StartChar: uniFF10
Encoding: 65296 65296 353
Width: 625
VWidth: 0
Flags: HMW
LayerCount: 2
Fore
SplineSet
235 350 m 0
 226 264 226 154 306 152 c 0
 387 150 441 253 455 350 c 0
 464 436 464 546 384 548 c 0
 303 550 249 447 235 350 c 0
52 350 m 0
 80 554 212 714 402 714 c 0
 598 714 662 544 638 350 c 0
 610 144 482 -14 288 -14 c 0
 97 -14 28 156 52 350 c 0
EndSplineSet
EndChar

StartChar: uniFF11
Encoding: 65297 65297 354
Width: 625
VWidth: 0
Flags: HMW
LayerCount: 2
Fore
SplineSet
156 477 m 1
 186 645 l 1
 556 715 l 1
 433 0 l 1
 249 0 l 1
 337 518 l 1
 156 477 l 1
EndSplineSet
EndChar

StartChar: uniFF12
Encoding: 65298 65298 355
Width: 625
VWidth: 0
Flags: HMW
LayerCount: 2
Fore
SplineSet
-22 0 m 1
 328 314 l 2
 384 367 441 411 452 473 c 0
 458 511 440 548 390 550 c 0
 329 552 287 494 275 436 c 1
 88 437 l 1
 116 589 232 715 414 715 c 0
 568 715 670 608 650 484 c 0
 638 406 586 347 522 299 c 2
 361 178 l 1
 620 177 l 1
 588 0 l 1
 -22 0 l 1
EndSplineSet
EndChar

StartChar: uniFF13
Encoding: 65299 65299 356
Width: 625
VWidth: 0
Flags: HMW
LayerCount: 2
Fore
SplineSet
297 338 m 1
 309 419 l 1
 371 423 440 452 448 505 c 0
 452 537 432 560 392 561 c 0
 344 563 309 526 297 486 c 1
 120 487 l 1
 145 618 256 714 408 714 c 0
 550 714 656 637 637 517 c 0
 615 377 452 340 297 338 c 1
286 -18 m 0
 122 -17 32 98 45 234 c 1
 232 234 l 1
 229 175 254 138 310 136 c 0
 360 135 407 161 416 212 c 0
 430 273 369 298 290 300 c 1
 303 395 l 1
 464 393 625 346 601 192 c 0
 581 60 448 -19 286 -18 c 0
EndSplineSet
EndChar

StartChar: uniFF14
Encoding: 65300 65300 357
Width: 625
VWidth: 0
Flags: HMW
LayerCount: 2
Fore
SplineSet
-2 120 m 1
 176 255 l 1
 438 256 l 1
 460 284 l 1
 633 284 l 1
 604 120 l 1
 -2 120 l 1
192 184 m 1
 -6 116 l 1
 459 700 l 1
 612 700 l 1
 492 0 l 1
 293 0 l 1
 319 156 l 1
 344 166 l 1
 389 428 l 1
 192 184 l 1
EndSplineSet
EndChar

StartChar: uniFF15
Encoding: 65301 65301 358
Width: 625
VWidth: 0
Flags: HMW
LayerCount: 2
Fore
SplineSet
602 222 m 0
 580 64 423 -13 281 -14 c 0
 168 -14 82 18 8 61 c 1
 94 226 l 1
 146 187 203 164 254 164 c 0
 323 164 387 185 397 246 c 0
 406 304 345 323 291 324 c 0
 230 325 154 314 84 288 c 1
 228 376 l 1
 287 425 350 449 426 448 c 0
 542 446 618 350 602 222 c 0
362 531 m 1
 275 367 l 1
 78 282 l 1
 248 700 l 1
 667 700 l 1
 638 532 l 1
 362 531 l 1
EndSplineSet
EndChar

StartChar: uniFF16
Encoding: 65302 65302 359
Width: 625
VWidth: 0
Flags: HMW
LayerCount: 2
Fore
SplineSet
226 250 m 0
 217 194 248 148 306 147 c 0
 366 146 420 191 430 250 c 0
 439 306 409 355 350 356 c 0
 290 357 236 309 226 250 c 0
386 696 m 1
 634 696 l 1
 370 455 l 1
 321 436 l 1
 359 466 391 478 439 478 c 0
 552 478 635 376 619 250 c 0
 596 81 451 -18 288 -18 c 0
 128 -18 13 84 36 250 c 0
 49 333 102 400 160 460 c 2
 386 696 l 1
EndSplineSet
EndChar

StartChar: uniFF17
Encoding: 65303 65303 360
Width: 625
VWidth: 0
Flags: HMW
LayerCount: 2
Fore
SplineSet
92 518 m 1
 123 700 l 1
 706 700 l 1
 256 0 l 1
 45 0 l 1
 392 518 l 1
 92 518 l 1
EndSplineSet
EndChar

StartChar: uniFF18
Encoding: 65304 65304 361
Width: 625
VWidth: 0
Flags: HMW
LayerCount: 2
Fore
SplineSet
148 532 m 0
 166 655 292 718 419 718 c 0
 540 718 654 654 636 530 c 0
 618 402 484 338 366 338 c 0
 254 338 130 404 148 532 c 0
324 512 m 0
 319 477 336 445 374 443 c 0
 412 441 448 477 454 514 c 0
 459 550 442 580 404 582 c 0
 366 584 330 550 324 512 c 0
66 190 m 0
 86 334 240 398 364 398 c 0
 480 398 622 334 602 190 c 0
 582 56 440 -18 304 -18 c 0
 174 -18 47 57 66 190 c 0
261 219 m 0
 254 174 278 140 322 138 c 0
 368 136 410 173 417 221 c 0
 423 260 399 296 356 298 c 0
 311 300 269 260 261 219 c 0
EndSplineSet
EndChar

StartChar: uniFF19
Encoding: 65305 65305 362
Width: 625
VWidth: 0
Flags: HMW
LayerCount: 2
Fore
SplineSet
464 450 m 0
 473 506 442 552 384 553 c 0
 324 554 270 509 260 450 c 0
 251 394 281 345 340 344 c 0
 400 343 454 391 464 450 c 0
304 4 m 1
 56 4 l 1
 320 245 l 1
 370 264 l 1
 332 234 299 222 251 222 c 0
 138 222 54 324 70 450 c 0
 93 619 239 718 402 718 c 0
 562 718 676 616 653 450 c 0
 640 367 588 300 530 240 c 2
 304 4 l 1
EndSplineSet
EndChar

StartChar: caron
Encoding: 711 711 363
Width: 465
VWidth: 0
Flags: HMW
LayerCount: 2
Fore
SplineSet
319 684 m 1
 416 766 l 1
 526 682 l 1
 303 545 l 1
 120 688 l 1
 250 766 l 1
 319 684 l 1
EndSplineSet
EndChar

StartChar: napostrophe
Encoding: 329 329 364
Width: 757
VWidth: 0
Flags: HMW
LayerCount: 2
Fore
SplineSet
461 460 m 1
 382 0 l 1
 210 0 l 1
 289 460 l 1
 461 460 l 1
550 280 m 1
 554 318 552 350 511 354 c 0
 469 358 440 320 430 280 c 1
 400 273 l 1
 418 375 475 469 592 470 c 0
 706 471 742 400 729 298 c 1
 678 0 l 1
 500 0 l 1
 550 280 l 1
193 700 m 1
 370 700 l 1
 223 438 l 1
 97 438 l 1
 193 700 l 1
EndSplineSet
EndChar

StartChar: IJ
Encoding: 306 306 365
Width: 644
VWidth: 0
Flags: HMW
LayerCount: 2
Fore
SplineSet
186 -52 m 1
 206 -68 232 -84 259 -84 c 0
 295 -83 330 -52 338 -5 c 1
 459 700 l 1
 670 700 l 1
 542 -52 l 2
 519 -186 396 -244 264 -244 c 0
 186 -244 118 -216 64 -184 c 1
 186 -52 l 1
161 700 m 1
 356 700 l 1
 236 0 l 1
 41 0 l 1
 161 700 l 1
EndSplineSet
EndChar

StartChar: ij
Encoding: 307 307 366
Width: 538
VWidth: 0
Flags: HMW
LayerCount: 2
Fore
SplineSet
386 628 m 0
 393 679 443 716 494 716 c 0
 546 716 585 678 578 626 c 0
 571 575 522 538 471 538 c 0
 419 538 379 576 386 628 c 0
188 -66 m 1
 198 -74 214 -92 228 -92 c 0
 259 -94 282 -63 288 -30 c 1
 372 460 l 1
 536 460 l 1
 444 -77 l 2
 426 -175 354 -245 239 -244 c 0
 175 -244 137 -216 107 -189 c 1
 188 -66 l 1
120 628 m 0
 127 679 177 716 228 716 c 0
 280 716 319 678 312 626 c 0
 305 575 255 538 204 538 c 0
 152 538 113 576 120 628 c 0
104 460 m 1
 270 460 l 1
 191 0 l 1
 26 0 l 1
 104 460 l 1
EndSplineSet
EndChar

StartChar: uni0237
Encoding: 567 567 367
Width: 269
VWidth: 0
Flags: HMW
LayerCount: 2
Fore
SplineSet
-80 -66 m 1
 -70 -80 -57 -92 -40 -92 c 0
 -9 -92 14 -64 20 -30 c 1
 104 460 l 1
 268 460 l 1
 176 -77 l 2
 158 -175 85 -245 -30 -244 c 0
 -94 -244 -131 -216 -161 -189 c 1
 -80 -66 l 1
EndSplineSet
EndChar

StartChar: Sacute
Encoding: 346 346 368
Width: 629
VWidth: 0
Flags: HMW
LayerCount: 2
Fore
SplineSet
174 258 m 1
 208 190 244 142 314 142 c 0
 356 142 392 160 400 197 c 0
 411 249 344 266 286 291 c 0
 207 327 117 393 132 515 c 0
 151 641 273 718 414 718 c 0
 548 718 628 650 654 562 c 1
 502 482 l 1
 479 526 453 556 405 556 c 0
 369 556 332 537 325 508 c 0
 313 462 404 440 460 418 c 0
 558 380 616 306 602 198 c 0
 580 50 450 -26 292 -26 c 0
 166 -26 63 48 30 164 c 1
 174 258 l 1
632 925 m 1
 434 779 l 1
 341 827 l 1
 511 983 l 1
 632 925 l 1
EndSplineSet
EndChar

StartChar: sacute
Encoding: 347 347 369
Width: 458
VWidth: 0
Flags: HMW
LayerCount: 2
Fore
SplineSet
77 178 m 1
 137 130 183 107 222 108 c 0
 240 108 262 113 264 131 c 0
 268 161 191 173 154 191 c 0
 97 219 56 263 65 333 c 0
 79 425 175 470 273 470 c 0
 349 470 412 442 468 407 c 1
 402 293 l 1
 366 326 316 350 274 350 c 0
 251 350 228 343 226 326 c 0
 222 298 290 285 329 270 c 0
 391 245 442 206 433 130 c 0
 420 28 342 -22 236 -22 c 0
 142 -23 65 12 -1 62 c 1
 77 178 l 1
490 678 m 1
 293 532 l 1
 200 580 l 1
 370 736 l 1
 490 678 l 1
EndSplineSet
EndChar

StartChar: Scircumflex
Encoding: 348 348 370
Width: 629
VWidth: 0
Flags: HMW
LayerCount: 2
Fore
SplineSet
174 258 m 1
 208 190 244 142 314 142 c 0
 356 142 392 160 400 197 c 0
 411 249 344 266 286 291 c 0
 207 327 117 393 132 515 c 0
 151 641 273 718 414 718 c 0
 548 718 628 650 654 562 c 1
 502 482 l 1
 479 526 453 556 405 556 c 0
 369 556 332 537 325 508 c 0
 313 462 404 440 460 418 c 0
 558 380 616 306 602 198 c 0
 580 50 450 -26 292 -26 c 0
 166 -26 63 48 30 164 c 1
 174 258 l 1
448 860 m 1
 350 778 l 1
 241 862 l 1
 463 999 l 1
 646 856 l 1
 517 777 l 1
 448 860 l 1
EndSplineSet
EndChar

StartChar: scircumflex
Encoding: 349 349 371
Width: 458
VWidth: 0
Flags: HMW
LayerCount: 2
Fore
SplineSet
77 178 m 1
 137 130 183 107 222 108 c 0
 240 108 262 113 264 131 c 0
 268 161 191 173 154 191 c 0
 97 219 56 263 65 333 c 0
 79 425 175 470 273 470 c 0
 349 470 412 442 468 407 c 1
 402 293 l 1
 366 326 316 350 274 350 c 0
 251 350 228 343 226 326 c 0
 222 298 290 285 329 270 c 0
 391 245 442 206 433 130 c 0
 420 28 342 -22 236 -22 c 0
 142 -23 65 12 -1 62 c 1
 77 178 l 1
322 612 m 1
 225 531 l 1
 115 615 l 1
 337 752 l 1
 520 609 l 1
 391 530 l 1
 322 612 l 1
EndSplineSet
EndChar

StartChar: uni1E9E
Encoding: 7838 7838 372
Width: 844
VWidth: 0
Flags: HMW
LayerCount: 2
Fore
SplineSet
584 -12 m 0
 712 -12 798 52 798 156 c 0
 798 284 706 290 706 350 c 0
 706 404 807 450 807 545 c 0
 807 637 709 718 519 718 c 0
 249 718 143 561 111 359 c 2
 50 -2 l 1
 252 -2 l 1
 312 340 l 2
 332 460 389 544 500 544 c 0
 554 544 594 524 594 490 c 0
 594 441 500 419 500 352 c 0
 500 266 592 272 592 196 c 0
 592 161 559 146 515 146 c 0
 477 146 426 160 366 184 c 1
 328 28 l 1
 400 4 500 -12 584 -12 c 0
EndSplineSet
EndChar

StartChar: Zacute
Encoding: 377 377 373
Width: 622
VWidth: 0
Flags: HW
LayerCount: 2
Fore
SplineSet
123 526 m 1
 153 700 l 1
 708 700 l 1
 308 166 l 1
 576 166 l 1
 546 0 l 1
 -24 0 l 1
 370 526 l 1
 123 526 l 1
640 925 m 1
 443 779 l 1
 350 827 l 1
 520 983 l 1
 640 925 l 1
EndSplineSet
EndChar

StartChar: zacute
Encoding: 378 378 374
Width: 524
VWidth: 0
Flags: HW
LayerCount: 2
Fore
SplineSet
256 304 m 1
 82 304 l 1
 110 460 l 1
 566 460 l 1
 308 156 l 1
 477 156 l 1
 450 0 l 1
 -17 0 l 1
 256 304 l 1
547 681 m 1
 350 535 l 1
 257 584 l 1
 427 740 l 1
 547 681 l 1
EndSplineSet
EndChar

StartChar: Zdotaccent
Encoding: 379 379 375
Width: 622
VWidth: 0
Flags: HW
LayerCount: 2
Fore
SplineSet
123 526 m 1
 153 700 l 1
 708 700 l 1
 308 166 l 1
 576 166 l 1
 546 0 l 1
 -24 0 l 1
 370 526 l 1
 123 526 l 1
361 870 m 0
 368 921 418 958 469 958 c 0
 521 958 560 919 553 867 c 0
 546 816 496 778 445 778 c 0
 393 778 354 818 361 870 c 0
EndSplineSet
EndChar

StartChar: zdotaccent
Encoding: 380 380 376
Width: 524
VWidth: 0
Flags: HW
LayerCount: 2
Fore
SplineSet
256 304 m 1
 82 304 l 1
 110 460 l 1
 566 460 l 1
 308 156 l 1
 477 156 l 1
 450 0 l 1
 -17 0 l 1
 256 304 l 1
268 628 m 0
 275 679 325 716 376 716 c 0
 428 716 468 677 461 625 c 0
 454 574 405 537 354 537 c 0
 302 537 261 576 268 628 c 0
EndSplineSet
EndChar

StartChar: Tcaron
Encoding: 356 356 377
Width: 572
VWidth: 0
Flags: HW
LayerCount: 2
Fore
SplineSet
63 526 m 1
 93 700 l 1
 666 700 l 1
 636 526 l 1
 446 526 l 1
 356 0 l 1
 163 0 l 1
 254 526 l 1
 63 526 l 1
412 917 m 1
 509 998 l 1
 619 915 l 1
 397 778 l 1
 214 921 l 1
 343 1000 l 1
 412 917 l 1
EndSplineSet
EndChar

StartChar: tcaron
Encoding: 357 357 378
Width: 508
VWidth: 0
Flags: HW
LayerCount: 2
Fore
SplineSet
56 460 m 1
 380 460 l 1
 355 320 l 1
 30 320 l 1
 56 460 l 1
163 620 m 1
 327 620 l 1
 220 0 l 1
 56 0 l 1
 163 620 l 1
497 778 m 1
 666 744 l 1
 497 497 l 1
 368 522 l 1
 497 778 l 1
EndSplineSet
EndChar

StartChar: Uring
Encoding: 366 366 379
Width: 701
VWidth: 0
Flags: HW
LayerCount: 2
Fore
SplineSet
156 700 m 1
 348 700 l 1
 269 246 l 2
 262 190 278 142 343 140 c 0
 409 138 450 187 461 246 c 1
 540 700 l 1
 731 700 l 1
 651 230 l 2
 623 58 489 -34 324 -34 c 0
 164 -34 54 60 76 230 c 1
 156 700 l 1
348 899 m 0
 357 968 420 1018 492 1018 c 0
 564 1018 617 967 607 897 c 0
 598 828 532 778 460 778 c 0
 388 778 338 830 348 899 c 0
433 897 m 0
 431 875 444 854 466 853 c 0
 490 852 516 875 520 899 c 0
 522 921 510 943 488 944 c 0
 464 945 437 921 433 897 c 0
EndSplineSet
EndChar

StartChar: uring
Encoding: 367 367 380
Width: 572
VWidth: 0
Flags: HW
LayerCount: 2
Fore
SplineSet
322 0 m 1
 402 460 l 1
 573 460 l 1
 494 0 l 1
 322 0 l 1
232 180 m 1
 228 142 231 110 272 106 c 0
 314 102 344 140 354 180 c 1
 382 187 l 1
 364 85 307 -9 190 -10 c 0
 76 -11 39 60 52 162 c 1
 103 460 l 1
 282 460 l 1
 232 180 l 1
241 652 m 0
 250 721 314 771 386 771 c 0
 458 771 510 720 500 650 c 0
 491 581 426 532 354 532 c 0
 282 532 231 583 241 652 c 0
326 650 m 0
 324 628 337 607 359 606 c 0
 383 605 410 628 414 652 c 0
 416 674 402 696 380 697 c 0
 356 698 330 674 326 650 c 0
EndSplineSet
EndChar

StartChar: Utilde
Encoding: 360 360 381
Width: 701
VWidth: 0
Flags: HW
LayerCount: 2
Fore
SplineSet
156 700 m 1
 348 700 l 1
 269 246 l 2
 262 190 278 142 343 140 c 0
 409 138 450 187 461 246 c 1
 540 700 l 1
 731 700 l 1
 652 230 l 2
 624 58 489 -34 324 -34 c 0
 164 -34 54 59 76 230 c 1
 156 700 l 1
269 854 m 1
 286 902 337 951 401 950 c 0
 456 949 479 896 529 898 c 0
 559 899 583 926 605 952 c 1
 674 866 l 1
 648 826 587 777 524 779 c 0
 474 781 441 837 393 833 c 0
 360 831 346 801 338 783 c 1
 269 854 l 1
EndSplineSet
EndChar

StartChar: utilde
Encoding: 361 361 382
Width: 572
VWidth: 0
Flags: HW
LayerCount: 2
Fore
SplineSet
322 0 m 1
 402 460 l 1
 573 460 l 1
 494 0 l 1
 322 0 l 1
232 180 m 1
 228 142 231 110 272 106 c 0
 314 102 343 140 353 180 c 1
 382 187 l 1
 364 85 307 -9 190 -10 c 0
 76 -11 39 60 52 162 c 1
 103 460 l 1
 282 460 l 1
 232 180 l 1
162 606 m 1
 182 654 228 705 294 703 c 0
 349 702 372 648 422 650 c 0
 452 651 476 678 498 704 c 1
 566 619 l 1
 540 579 481 530 418 532 c 0
 368 534 334 589 286 585 c 0
 253 583 240 554 232 536 c 1
 162 606 l 1
EndSplineSet
EndChar

StartChar: Umacron
Encoding: 362 362 383
Width: 701
VWidth: 0
Flags: HW
LayerCount: 2
Fore
SplineSet
156 700 m 1
 348 700 l 1
 269 246 l 2
 262 190 278 142 343 140 c 0
 409 138 450 187 461 246 c 1
 540 700 l 1
 731 700 l 1
 652 230 l 2
 624 58 489 -34 324 -34 c 0
 164 -34 54 59 76 230 c 1
 156 700 l 1
274 778 m 1
 296 926 l 1
 667 926 l 1
 644 778 l 1
 274 778 l 1
EndSplineSet
EndChar

StartChar: umacron
Encoding: 363 363 384
Width: 572
VWidth: 0
Flags: HW
LayerCount: 2
Fore
SplineSet
322 0 m 1
 402 460 l 1
 573 460 l 1
 494 0 l 1
 322 0 l 1
232 180 m 1
 228 142 231 110 272 106 c 0
 314 102 343 140 353 180 c 1
 382 187 l 1
 364 85 307 -9 190 -10 c 0
 76 -11 39 60 52 162 c 1
 103 460 l 1
 282 460 l 1
 232 180 l 1
166 531 m 1
 190 679 l 1
 560 679 l 1
 536 531 l 1
 166 531 l 1
EndSplineSet
EndChar

StartChar: Ubreve
Encoding: 364 364 385
Width: 701
VWidth: 0
Flags: HW
LayerCount: 2
Fore
SplineSet
156 700 m 1
 348 700 l 1
 269 246 l 2
 262 190 278 142 343 140 c 0
 409 138 450 187 461 246 c 1
 540 700 l 1
 731 700 l 1
 652 230 l 2
 624 58 489 -34 324 -34 c 0
 164 -34 54 59 76 230 c 1
 156 700 l 1
320 926 m 1
 424 926 l 1
 425 895 440 874 470 872 c 0
 502 870 527 896 536 926 c 1
 644 925 l 1
 627 841 565 778 465 778 c 0
 367 778 316 840 320 926 c 1
EndSplineSet
EndChar

StartChar: ubreve
Encoding: 365 365 386
Width: 572
VWidth: 0
Flags: HW
LayerCount: 2
Fore
SplineSet
322 0 m 1
 402 460 l 1
 573 460 l 1
 494 0 l 1
 322 0 l 1
232 180 m 1
 228 142 231 110 272 106 c 0
 314 102 343 140 353 180 c 1
 382 187 l 1
 364 85 307 -9 190 -10 c 0
 76 -11 39 60 52 162 c 1
 103 460 l 1
 282 460 l 1
 232 180 l 1
213 678 m 1
 316 678 l 1
 317 647 332 626 362 624 c 0
 394 622 421 648 430 678 c 1
 538 678 l 1
 521 594 458 531 358 531 c 0
 260 531 209 592 213 678 c 1
EndSplineSet
EndChar

StartChar: Wcircumflex
Encoding: 372 372 387
Width: 1054
VWidth: 0
Flags: HW
LayerCount: 2
Fore
SplineSet
745 321 m 1
 916 700 l 1
 1148 700 l 1
 727 -45 l 1
 566 340 l 1
 279 -46 l 1
 94 700 l 1
 320 700 l 1
 368 323 l 1
 624 738 l 1
 745 321 l 1
652 880 m 1
 555 798 l 1
 445 882 l 1
 667 1019 l 1
 850 876 l 1
 721 798 l 1
 652 880 l 1
EndSplineSet
EndChar

StartChar: wcircumflex
Encoding: 373 373 388
Width: 761
VWidth: 0
Flags: HW
LayerCount: 2
Fore
SplineSet
42 460 m 1
 214 460 l 1
 263 248 l 1
 437 498 l 1
 524 246 l 1
 648 460 l 1
 829 460 l 1
 502 -30 l 1
 395 224 l 1
 200 -30 l 1
 42 460 l 1
466 639 m 1
 368 558 l 1
 258 642 l 1
 480 779 l 1
 663 636 l 1
 534 557 l 1
 466 639 l 1
EndSplineSet
EndChar

StartChar: Ycircumflex
Encoding: 374 374 389
Width: 669
VWidth: 0
Flags: HW
LayerCount: 2
Fore
SplineSet
543 700 m 1
 770 700 l 1
 452 275 l 1
 406 0 l 1
 210 0 l 1
 260 284 l 1
 90 700 l 1
 307 700 l 1
 384 459 l 1
 543 700 l 1
454 860 m 1
 358 779 l 1
 247 863 l 1
 469 1000 l 1
 652 856 l 1
 522 778 l 1
 454 860 l 1
EndSplineSet
EndChar

StartChar: ycircumflex
Encoding: 375 375 390
Width: 528
VWidth: 0
Flags: HW
LayerCount: 2
Fore
SplineSet
597 460 m 1
 189 -220 l 1
 15 -220 l 1
 167 34 l 1
 41 460 l 1
 222 460 l 1
 303 88 l 1
 211 89 l 1
 419 460 l 1
 597 460 l 1
342 613 m 1
 244 532 l 1
 134 616 l 1
 356 752 l 1
 540 610 l 1
 410 531 l 1
 342 613 l 1
EndSplineSet
EndChar

StartChar: uni0123
Encoding: 291 291 391
Width: 553
VWidth: 0
Flags: HW
LayerCount: 2
Fore
SplineSet
-58 -34 m 1
 104 -34 l 1
 108 -82 128 -105 176 -106 c 0
 241 -107 290 -57 302 10 c 1
 380 460 l 1
 546 460 l 1
 470 10 l 2
 445 -154 330 -242 178 -242 c 0
 18 -242 -54 -163 -58 -34 c 1
-20 238 m 0
 -3 376 104 470 223 470 c 0
 345 470 405 366 390 238 c 0
 374 106 282 6 160 6 c 0
 41 6 -36 104 -20 238 c 0
160 237 m 0
 152 185 179 144 231 142 c 0
 281 140 333 182 342 239 c 0
 350 293 324 332 276 334 c 0
 223 336 169 292 160 237 c 0
318 541 m 1
 159 604 l 1
 356 826 l 1
 480 779 l 1
 318 541 l 1
EndSplineSet
EndChar

StartChar: Hbar
Encoding: 294 294 392
Width: 783
VWidth: 0
Flags: HW
LayerCount: 2
Fore
SplineSet
72 280 m 1
 102 452 l 1
 636 452 l 1
 606 280 l 1
 72 280 l 1
554 700 m 1
 749 700 l 1
 628 0 l 1
 436 0 l 1
 554 700 l 1
98 700 m 1
 293 700 l 1
 172 0 l 1
 -20 0 l 1
 98 700 l 1
6 536 m 1
 26 652 l 1
 806 652 l 1
 786 536 l 1
 6 536 l 1
EndSplineSet
EndChar

StartChar: hbar
Encoding: 295 295 393
Width: 563
VWidth: 0
Flags: HW
LayerCount: 2
Fore
SplineSet
270 780 m 1
 136 0 l 1
 -38 0 l 1
 96 780 l 1
 270 780 l 1
304 280 m 1
 308 317 306 350 266 354 c 0
 224 358 194 321 184 281 c 1
 155 282 l 1
 172 384 228 477 344 478 c 0
 458 479 489 407 477 306 c 1
 426 0 l 1
 253 0 l 1
 304 280 l 1
14 588 m 1
 40 736 l 1
 374 736 l 1
 348 588 l 1
 14 588 l 1
EndSplineSet
EndChar

StartChar: uni0400
Encoding: 1024 1024 394
Width: 568
VWidth: 0
Flags: HW
LayerCount: 2
Fore
SplineSet
168 0 m 1
 196 157 l 1
 544 157 l 1
 516 0 l 1
 168 0 l 1
261 543 m 1
 288 700 l 1
 636 700 l 1
 608 543 l 1
 261 543 l 1
218 288 m 1
 244 440 l 1
 572 440 l 1
 546 288 l 1
 218 288 l 1
160 700 m 1
 346 700 l 1
 226 0 l 1
 40 0 l 1
 160 700 l 1
264 932 m 1
 392 985 l 1
 514 820 l 1
 418 778 l 1
 264 932 l 1
EndSplineSet
EndChar

StartChar: uni0401
Encoding: 1025 1025 395
Width: 568
VWidth: 0
Flags: HW
LayerCount: 2
Fore
SplineSet
168 0 m 1
 196 157 l 1
 544 157 l 1
 516 0 l 1
 168 0 l 1
261 543 m 1
 288 700 l 1
 636 700 l 1
 608 543 l 1
 261 543 l 1
218 288 m 1
 244 440 l 1
 572 440 l 1
 546 288 l 1
 218 288 l 1
160 700 m 1
 346 700 l 1
 226 0 l 1
 40 0 l 1
 160 700 l 1
456 870 m 0
 462 921 511 958 562 958 c 0
 614 958 656 918 650 866 c 0
 644 815 595 778 544 778 c 0
 492 778 450 818 456 870 c 0
207 870 m 0
 213 921 262 958 313 958 c 0
 365 958 406 918 400 866 c 0
 394 815 345 778 294 778 c 0
 242 778 201 818 207 870 c 0
EndSplineSet
EndChar

StartChar: uni0403
Encoding: 1027 1027 396
Width: 512
VWidth: 0
Flags: HW
LayerCount: 2
Fore
SplineSet
168 700 m 1
 598 700 l 1
 568 526 l 1
 332 526 l 1
 241 0 l 1
 48 0 l 1
 168 700 l 1
594 924 m 1
 400 778 l 1
 305 829 l 1
 472 984 l 1
 594 924 l 1
EndSplineSet
EndChar

StartChar: uni040C
Encoding: 1036 1036 397
Width: 635
VWidth: 0
Flags: HW
LayerCount: 2
Fore
SplineSet
160 700 m 1
 362 700 l 1
 241 0 l 1
 40 0 l 1
 160 700 l 1
572 700 m 1
 806 700 l 1
 472 366 l 1
 692 0 l 1
 469 0 l 1
 248 373 l 1
 572 700 l 1
660 915 m 1
 466 770 l 1
 370 821 l 1
 538 976 l 1
 660 915 l 1
EndSplineSet
EndChar

StartChar: uni040D
Encoding: 1037 1037 398
Width: 775
VWidth: 0
Flags: HW
LayerCount: 2
Fore
SplineSet
760 496 m 1
 30 -44 l 1
 81 204 l 1
 812 746 l 1
 760 496 l 1
346 700 m 1
 250 143 l 1
 30 -44 l 1
 160 700 l 1
 346 700 l 1
812 746 m 1
 681 0 l 1
 494 0 l 1
 590 549 l 1
 812 746 l 1
364 916 m 1
 491 969 l 1
 613 804 l 1
 518 761 l 1
 364 916 l 1
EndSplineSet
EndChar

StartChar: uni040E
Encoding: 1038 1038 399
Width: 598
VWidth: 0
Flags: HW
LayerCount: 2
Fore
SplineSet
710 700 m 1
 270 0 l 1
 76 0 l 1
 212 222 l 1
 82 700 l 1
 280 700 l 1
 352 299 l 1
 271 300 l 1
 512 700 l 1
 710 700 l 1
266 926 m 1
 370 926 l 1
 370 896 384 874 414 872 c 0
 446 870 472 896 481 926 c 1
 591 925 l 1
 575 840 512 778 413 778 c 0
 313 778 262 840 266 926 c 1
EndSplineSet
EndChar

StartChar: uni0410
Encoding: 1040 1040 400
Width: 734
VWidth: 0
Flags: HW
LayerCount: 2
Fore
SplineSet
180 112 m 1
 210 256 l 1
 563 256 l 1
 544 112 l 1
 180 112 l 1
416 413 m 1
 290 202 l 1
 294 158 l 1
 190 0 l 1
 -36 0 l 1
 466 752 l 1
 709 0 l 1
 498 0 l 1
 445 153 l 1
 465 202 l 1
 416 413 l 1
EndSplineSet
EndChar

StartChar: uni0411
Encoding: 1041 1041 401
Width: 688
VWidth: 0
Flags: HW
LayerCount: 2
Fore
SplineSet
146 288 m 1
 170 440 l 1
 460 440 l 1
 588 440 680 348 663 222 c 0
 645 94 532 0 400 0 c 1
 94 0 l 1
 120 157 l 1
 369 157 l 2
 421 157 458 177 468 223 c 0
 477 267 448 286 400 286 c 1
 146 288 l 1
168 700 m 1
 694 700 l 1
 667 543 l 1
 338 543 l 1
 245 0 l 1
 48 0 l 1
 168 700 l 1
EndSplineSet
EndChar

StartChar: uni0412
Encoding: 1042 1042 402
Width: 675
VWidth: 0
Flags: HW
LayerCount: 2
Fore
SplineSet
239 342 m 1
 254 423 l 1
 358 424 l 1
 407 424 448 448 456 491 c 0
 463 531 439 551 394 552 c 1
 331 552 l 1
 258 147 l 1
 330 148 l 1
 385 149 440 166 450 225 c 0
 458 277 418 290 368 292 c 1
 230 292 l 1
 250 398 l 1
 395 398 l 1
 521 396 662 338 644 194 c 0
 626 52 497 1 343 0 c 1
 41 0 l 1
 161 700 l 1
 428 700 l 1
 555 698 678 644 661 520 c 0
 645 398 518 344 384 342 c 2
 239 342 l 1
EndSplineSet
EndChar

StartChar: uni0413
Encoding: 1043 1043 403
Width: 512
VWidth: 0
Flags: HW
LayerCount: 2
Fore
SplineSet
168 700 m 1
 598 700 l 1
 568 526 l 1
 332 526 l 1
 241 0 l 1
 48 0 l 1
 168 700 l 1
EndSplineSet
EndChar

StartChar: uni0414
Encoding: 1044 1044 404
Width: 881
VWidth: 0
Flags: HW
LayerCount: 2
Fore
SplineSet
480 390 m 1
 295 30 l 1
 63 30 l 1
 535 740 l 1
 762 30 l 1
 543 30 l 1
 480 390 l 1
618 0 m 1
 206 0 l 1
 186 -110 l 1
 -10 -110 l 1
 38 166 l 1
 842 166 l 1
 794 -110 l 1
 598 -110 l 1
 618 0 l 1
EndSplineSet
EndChar

StartChar: uni0415
Encoding: 1045 1045 405
Width: 602
VWidth: 0
Flags: HW
LayerCount: 2
Fore
SplineSet
170 0 m 1
 197 157 l 1
 544 157 l 1
 518 0 l 1
 170 0 l 1
262 543 m 1
 290 700 l 1
 638 700 l 1
 610 543 l 1
 262 543 l 1
219 288 m 1
 246 440 l 1
 574 440 l 1
 547 288 l 1
 219 288 l 1
161 700 m 1
 347 700 l 1
 227 0 l 1
 41 0 l 1
 161 700 l 1
EndSplineSet
EndChar

StartChar: uni0416
Encoding: 1046 1046 406
Width: 1108
VWidth: 0
Flags: HW
LayerCount: 2
Fore
SplineSet
320 700 m 1
 544 363 l 1
 197 0 l 1
 -37 0 l 1
 326 378 l 1
 108 700 l 1
 320 700 l 1
546 700 m 1
 750 700 l 1
 629 0 l 1
 428 0 l 1
 546 700 l 1
955 700 m 1
 1197 700 l 1
 854 366 l 1
 1082 0 l 1
 860 0 l 1
 639 377 l 1
 955 700 l 1
EndSplineSet
EndChar

StartChar: uni0417
Encoding: 1047 1047 407
Width: 666
VWidth: 0
Flags: HW
LayerCount: 2
Fore
SplineSet
331 336 m 1
 342 419 l 1
 417 421 486 443 496 498 c 0
 502 537 471 560 423 561 c 0
 361 563 321 530 306 486 c 1
 128 487 l 1
 152 624 265 714 434 714 c 0
 586 714 705 643 686 517 c 0
 664 374 488 338 331 336 c 1
333 -18 m 0
 142 -18 40 88 52 234 c 1
 238 233 l 1
 236 169 272 137 336 136 c 0
 397 135 452 157 464 212 c 0
 481 276 411 298 326 300 c 1
 338 396 l 1
 501 395 672 347 650 192 c 0
 631 57 502 -18 333 -18 c 0
EndSplineSet
EndChar

StartChar: uni0418
Encoding: 1048 1048 408
Width: 775
VWidth: 0
Flags: HW
LayerCount: 2
Fore
SplineSet
760 496 m 1
 30 -44 l 1
 81 204 l 1
 812 746 l 1
 760 496 l 1
346 700 m 1
 250 143 l 1
 30 -44 l 1
 160 700 l 1
 346 700 l 1
812 746 m 1
 681 0 l 1
 494 0 l 1
 590 549 l 1
 812 746 l 1
EndSplineSet
EndChar

StartChar: uni0419
Encoding: 1049 1049 409
Width: 775
VWidth: 0
Flags: HW
LayerCount: 2
Fore
SplineSet
760 496 m 1
 30 -44 l 1
 81 204 l 1
 812 746 l 1
 760 496 l 1
346 700 m 1
 250 143 l 1
 30 -44 l 1
 160 700 l 1
 346 700 l 1
812 746 m 1
 681 0 l 1
 494 0 l 1
 590 549 l 1
 812 746 l 1
364 926 m 1
 468 926 l 1
 469 895 484 874 514 872 c 0
 546 870 573 896 581 926 c 1
 689 926 l 1
 672 842 610 778 510 778 c 0
 412 778 360 840 364 926 c 1
EndSplineSet
EndChar

StartChar: uni041A
Encoding: 1050 1050 410
Width: 720
VWidth: 0
Flags: HW
LayerCount: 2
Fore
SplineSet
160 700 m 1
 362 700 l 1
 241 0 l 1
 40 0 l 1
 160 700 l 1
572 700 m 1
 806 700 l 1
 472 366 l 1
 692 0 l 1
 469 0 l 1
 248 373 l 1
 572 700 l 1
EndSplineSet
EndChar

StartChar: uni041B
Encoding: 1051 1051 411
Width: 780
VWidth: 0
Flags: HW
LayerCount: 2
Fore
SplineSet
798 700 m 1
 678 0 l 1
 480 0 l 1
 571 526 l 1
 374 526 l 1
 338 313 l 2
 305 107 197 6 -16 0 c 1
 6 164 l 1
 77 172 122 218 136 294 c 1
 206 700 l 1
 798 700 l 1
EndSplineSet
EndChar

StartChar: uni041C
Encoding: 1052 1052 412
Width: 888
VWidth: 0
Flags: HW
LayerCount: 2
Fore
SplineSet
301 320 m 1
 207 0 l 1
 0 0 l 1
 244 736 l 1
 470 336 l 1
 842 744 l 1
 832 0 l 1
 628 0 l 1
 644 310 l 1
 432 62 l 1
 301 320 l 1
EndSplineSet
EndChar

StartChar: uni041D
Encoding: 1053 1053 413
Width: 784
VWidth: 0
Flags: HW
LayerCount: 2
Fore
SplineSet
134 280 m 1
 164 452 l 1
 698 452 l 1
 667 280 l 1
 134 280 l 1
616 700 m 1
 810 700 l 1
 690 0 l 1
 496 0 l 1
 616 700 l 1
160 700 m 1
 354 700 l 1
 234 0 l 1
 40 0 l 1
 160 700 l 1
EndSplineSet
EndChar

StartChar: uni041E
Encoding: 1054 1054 414
Width: 805
VWidth: 0
Flags: HW
LayerCount: 2
Fore
SplineSet
266 350 m 0
 250 253 288 161 396 159 c 0
 505 157 586 245 606 350 c 0
 622 447 586 539 476 541 c 0
 367 543 285 455 266 350 c 0
61 350 m 0
 91 561 275 718 490 718 c 0
 704 718 838 555 810 350 c 0
 780 138 601 -26 380 -26 c 0
 163 -26 33 145 61 350 c 0
EndSplineSet
EndChar

StartChar: uni041F
Encoding: 1055 1055 415
Width: 764
VWidth: 0
Flags: HW
LayerCount: 2
Fore
SplineSet
556 526 m 1
 336 526 l 1
 245 0 l 1
 48 0 l 1
 168 700 l 1
 782 700 l 1
 662 0 l 1
 465 0 l 1
 556 526 l 1
EndSplineSet
EndChar

StartChar: uni0420
Encoding: 1056 1056 416
Width: 629
VWidth: 0
Flags: HW
LayerCount: 2
Fore
SplineSet
161 700 m 1
 355 700 l 1
 235 0 l 1
 41 0 l 1
 161 700 l 1
256 544 m 1
 282 700 l 1
 406 700 l 1
 572 698 673 613 652 465 c 0
 630 316 514 233 343 231 c 1
 201 231 l 1
 229 388 l 1
 354 388 l 2
 411 388 457 416 467 466 c 0
 476 514 447 541 394 542 c 1
 256 544 l 1
EndSplineSet
EndChar

StartChar: uni0421
Encoding: 1057 1057 417
Width: 683
VWidth: 0
Flags: HW
LayerCount: 2
Fore
SplineSet
273 350 m 0
 255 246 314 169 420 167 c 0
 512 166 581 211 638 255 c 1
 611 50 l 1
 549 10 483 -18 392 -18 c 0
 170 -18 31 140 61 350 c 0
 92 565 274 718 501 718 c 0
 589 718 650 691 708 649 c 1
 679 444 l 1
 637 495 583 534 499 534 c 0
 391 534 294 460 273 350 c 0
EndSplineSet
EndChar

StartChar: uni0422
Encoding: 1058 1058 418
Width: 574
VWidth: 0
Flags: HW
LayerCount: 2
Fore
SplineSet
62 526 m 1
 93 700 l 1
 668 700 l 1
 638 526 l 1
 448 526 l 1
 358 0 l 1
 163 0 l 1
 254 526 l 1
 62 526 l 1
EndSplineSet
EndChar

StartChar: uni0423
Encoding: 1059 1059 419
Width: 615
VWidth: 0
Flags: HW
LayerCount: 2
Fore
SplineSet
725 700 m 1
 286 0 l 1
 84 0 l 1
 220 222 l 1
 82 700 l 1
 288 700 l 1
 359 299 l 1
 279 300 l 1
 520 700 l 1
 725 700 l 1
EndSplineSet
EndChar

StartChar: uni0424
Encoding: 1060 1060 420
Width: 948
VWidth: 0
Flags: HW
LayerCount: 2
Fore
SplineSet
468 700 m 1
 666 700 l 1
 546 0 l 1
 349 0 l 1
 468 700 l 1
748 350 m 0
 766 432 696 453 610 454 c 1
 455 454 l 2
 361 453 283 433 265 350 c 0
 247 268 318 247 404 246 c 1
 560 246 l 2
 654 247 730 267 748 350 c 0
945 350 m 0
 921 182 763 80 587 80 c 1
 352 80 l 1
 183 80 45 183 69 350 c 0
 93 518 252 620 428 620 c 1
 662 620 l 1
 831 620 969 517 945 350 c 0
EndSplineSet
EndChar

StartChar: uni0425
Encoding: 1061 1061 421
Width: 742
VWidth: 0
Flags: HW
LayerCount: 2
Fore
SplineSet
550 700 m 1
 798 700 l 1
 515 349 l 1
 684 0 l 1
 452 0 l 1
 376 210 l 1
 226 0 l 1
 -22 0 l 1
 284 363 l 1
 132 700 l 1
 362 700 l 1
 424 519 l 1
 550 700 l 1
EndSplineSet
EndChar

StartChar: uni0426
Encoding: 1062 1062 422
Width: 863
VWidth: 0
Flags: HW
LayerCount: 2
Fore
SplineSet
266 174 m 1
 526 174 l 1
 616 700 l 1
 814 700 l 1
 724 174 l 1
 838 174 l 1
 784 -142 l 1
 596 -142 l 1
 621 0 l 1
 40 0 l 1
 160 700 l 1
 357 700 l 1
 266 174 l 1
EndSplineSet
EndChar

StartChar: uni0427
Encoding: 1063 1063 423
Width: 726
VWidth: 0
Flags: HW
LayerCount: 2
Fore
SplineSet
318 204 m 1
 406 374 l 1
 556 376 l 1
 526 203 l 1
 318 204 l 1
542 700 m 1
 744 700 l 1
 624 0 l 1
 423 0 l 1
 542 700 l 1
357 700 m 1
 317 481 l 1
 307 410 342 374 406 374 c 1
 318 204 l 1
 171 204 100 321 118 453 c 1
 160 700 l 1
 357 700 l 1
EndSplineSet
EndChar

StartChar: uni0428
Encoding: 1064 1064 424
Width: 1077
VWidth: 0
Flags: HW
LayerCount: 2
Fore
SplineSet
811 174 m 1
 902 700 l 1
 1096 700 l 1
 976 0 l 1
 48 0 l 1
 168 700 l 1
 362 700 l 1
 271 174 l 1
 448 174 l 1
 538 700 l 1
 724 700 l 1
 634 174 l 1
 811 174 l 1
EndSplineSet
EndChar

StartChar: uni0429
Encoding: 1065 1065 425
Width: 1152
VWidth: 0
Flags: HW
LayerCount: 2
Fore
SplineSet
811 174 m 1
 902 700 l 1
 1096 700 l 1
 1006 174 l 1
 1120 174 l 1
 1065 -142 l 1
 877 -142 l 1
 902 0 l 1
 48 0 l 1
 168 700 l 1
 362 700 l 1
 271 174 l 1
 448 174 l 1
 538 700 l 1
 724 700 l 1
 634 174 l 1
 811 174 l 1
EndSplineSet
EndChar

StartChar: uni042A
Encoding: 1066 1066 426
Width: 736
VWidth: 0
Flags: HW
LayerCount: 2
Fore
SplineSet
326 312 m 1
 352 469 l 1
 476 469 l 2
 642 467 743 382 722 234 c 0
 700 85 584 2 413 0 c 2
 271 0 l 1
 299 156 l 1
 424 157 l 2
 481 157 528 185 538 235 c 0
 547 283 517 311 464 311 c 2
 326 312 l 1
246 528 m 1
 70 528 l 1
 100 700 l 1
 468 700 l 1
 348 0 l 1
 155 0 l 1
 246 528 l 1
EndSplineSet
EndChar

StartChar: uni042B
Encoding: 1067 1067 427
Width: 923
VWidth: 0
Flags: HW
LayerCount: 2
Fore
SplineSet
750 700 m 1
 949 700 l 1
 829 0 l 1
 632 0 l 1
 750 700 l 1
160 700 m 1
 354 700 l 1
 234 0 l 1
 40 0 l 1
 160 700 l 1
216 312 m 1
 241 469 l 1
 366 469 l 2
 532 467 632 382 611 234 c 0
 589 85 473 2 302 0 c 2
 160 0 l 1
 188 156 l 1
 314 157 l 2
 371 157 416 185 426 235 c 0
 435 283 406 311 353 311 c 2
 216 312 l 1
EndSplineSet
EndChar

StartChar: uni042C
Encoding: 1068 1068 428
Width: 625
VWidth: 0
Flags: HW
LayerCount: 2
Fore
SplineSet
160 700 m 1
 354 700 l 1
 234 0 l 1
 40 0 l 1
 160 700 l 1
216 312 m 1
 241 469 l 1
 366 469 l 2
 532 467 632 382 611 234 c 0
 589 85 473 2 302 0 c 2
 160 0 l 1
 188 156 l 1
 314 157 l 2
 371 157 416 185 426 235 c 0
 435 283 406 311 353 311 c 2
 216 312 l 1
EndSplineSet
EndChar

StartChar: uni042D
Encoding: 1069 1069 429
Width: 684
VWidth: 0
Flags: HW
LayerCount: 2
Fore
SplineSet
151 274 m 1
 178 426 l 1
 530 426 l 1
 503 274 l 1
 151 274 l 1
501 350 m 0
 521 458 437 539 331 541 c 0
 241 542 170 502 116 470 c 1
 139 650 l 1
 201 690 266 718 357 718 c 0
 579 718 719 560 689 350 c 0
 658 135 475 -18 248 -18 c 0
 160 -18 100 9 42 51 c 1
 67 231 l 1
 107 193 168 158 250 158 c 0
 361 158 479 238 501 350 c 0
EndSplineSet
EndChar

StartChar: uni042E
Encoding: 1070 1070 430
Width: 1141
VWidth: 0
Flags: HW
LayerCount: 2
Fore
SplineSet
134 280 m 1
 164 452 l 1
 532 452 l 1
 502 280 l 1
 134 280 l 1
160 700 m 1
 354 700 l 1
 234 0 l 1
 40 0 l 1
 160 700 l 1
601 350 m 0
 585 253 622 161 730 159 c 0
 839 157 921 245 941 350 c 0
 957 447 922 539 812 541 c 0
 703 543 620 455 601 350 c 0
397 350 m 0
 427 561 611 718 826 718 c 0
 1040 718 1174 555 1146 350 c 0
 1116 138 937 -26 716 -26 c 0
 499 -26 369 145 397 350 c 0
EndSplineSet
EndChar

StartChar: uni042F
Encoding: 1071 1071 431
Width: 653
VWidth: 0
Flags: HW
LayerCount: 2
Fore
SplineSet
432 308 m 1
 200 0 l 1
 -32 0 l 1
 224 308 l 1
 432 308 l 1
680 700 m 1
 560 0 l 1
 365 0 l 1
 485 700 l 1
 680 700 l 1
530 536 m 1
 404 536 l 2
 347 536 301 507 291 457 c 0
 282 409 311 381 364 380 c 1
 505 379 l 1
 478 232 l 1
 337 231 l 1
 172 233 72 324 93 466 c 0
 114 610 231 698 401 700 c 1
 559 700 l 1
 530 536 l 1
EndSplineSet
EndChar

StartChar: uni0430
Encoding: 1072 1072 432
Width: 545
VWidth: 0
Flags: HW
LayerCount: 2
Fore
SplineSet
186 137 m 0
 183 112 206 98 230 98 c 0
 283 96 324 132 338 188 c 1
 346 128 l 1
 328 43 259 -10 165 -10 c 0
 73 -10 3 41 15 131 c 0
 28 225 121 276 228 277 c 0
 288 277 347 259 380 231 c 1
 370 153 l 1
 341 176 312 189 269 188 c 0
 232 188 191 169 186 137 c 0
146 307 m 1
 104 424 l 1
 167 450 244 474 322 474 c 0
 433 474 542 424 524 322 c 2
 470 0 l 1
 304 0 l 1
 356 284 l 2
 362 320 341 343 298 345 c 0
 238 349 181 322 146 307 c 1
EndSplineSet
EndChar

StartChar: uni0431
Encoding: 1073 1073 433
Width: 608
VWidth: 0
Flags: HW
LayerCount: 2
Fore
SplineSet
345 332 m 1
 383 469 l 1
 525 469 612 366 595 230 c 0
 577 90 458 -10 302 -10 c 0
 131 -10 56 111 56 247 c 1
 237 211 l 1
 237 165 262 130 309 130 c 0
 362 130 409 175 418 231 c 0
 428 291 396 332 345 332 c 1
166 231 m 1
 186 369 257 469 383 469 c 1
 345 332 l 1
 292 332 237 292 237 211 c 1
 166 231 l 1
56 247 m 1
 56 438 144 594 300 664 c 0
 380 698 435 726 464 780 c 1
 631 779 l 1
 603 681 516 611 410 566 c 0
 301 520 222 440 215 332 c 1
 232 210 l 1
 56 247 l 1
EndSplineSet
EndChar

StartChar: uni0432
Encoding: 1074 1074 434
Width: 529
VWidth: 0
Flags: HW
LayerCount: 2
Fore
SplineSet
180 240 m 1
 344 240 l 2
 428 239 507 214 497 124 c 0
 488 50 428 0 338 0 c 2
 140 0 l 1
 158 102 l 1
 282 102 l 2
 312 102 336 121 341 144 c 0
 345 165 333 182 306 182 c 2
 173 182 l 1
 180 240 l 1
180 220 m 1
 188 283 l 1
 305 283 l 2
 328 283 347 299 352 321 c 0
 356 339 346 358 326 358 c 2
 200 358 l 1
 219 460 l 1
 372 460 l 2
 452 459 526 420 514 334 c 0
 504 256 426 222 346 220 c 2
 180 220 l 1
122 460 m 1
 288 460 l 1
 208 0 l 1
 44 0 l 1
 122 460 l 1
EndSplineSet
EndChar

StartChar: uni0433
Encoding: 1075 1075 435
Width: 355
VWidth: 0
Flags: HW
LayerCount: 2
Fore
SplineSet
103 460 m 1
 409 460 l 1
 385 320 l 1
 248 320 l 1
 193 0 l 1
 24 0 l 1
 103 460 l 1
EndSplineSet
EndChar

StartChar: uni0434
Encoding: 1076 1076 436
Width: 698
VWidth: 0
Flags: HW
LayerCount: 2
Fore
SplineSet
368 260 m 1
 230 31 l 1
 70 74 l 1
 402 498 l 1
 588 68 l 1
 425 28 l 1
 368 260 l 1
470 0 m 1
 176 0 l 1
 160 -90 l 1
 -7 -90 l 1
 32 132 l 1
 654 132 l 1
 614 -90 l 1
 454 -90 l 1
 470 0 l 1
EndSplineSet
EndChar

StartChar: uni0435
Encoding: 1077 1077 437
Width: 575
VWidth: 0
Flags: HW
LayerCount: 2
Fore
SplineSet
131 194 m 1
 144 282 l 1
 381 284 l 1
 381 325 371 357 327 359 c 0
 268 362 232 310 220 252 c 1
 214 230 l 1
 206 164 222 114 278 111 c 0
 324 109 361 132 387 162 c 1
 542 130 l 1
 485 45 401 -10 278 -10 c 0
 117 -10 23 90 42 230 c 0
 44 247 47 263 52 279 c 0
 88 395 192 470 336 470 c 0
 491 470 574 380 558 238 c 0
 556 227 554 210 551 194 c 1
 131 194 l 1
EndSplineSet
EndChar

StartChar: uni0436
Encoding: 1078 1078 438
Width: 914
VWidth: 0
Flags: HW
LayerCount: 2
Fore
SplineSet
749 460 m 1
 954 460 l 1
 726 262 l 1
 884 0 l 1
 700 0 l 1
 530 276 l 1
 749 460 l 1
592 460 m 1
 513 0 l 1
 348 0 l 1
 428 460 l 1
 592 460 l 1
258 460 m 1
 424 264 l 1
 171 0 l 1
 -34 0 l 1
 227 274 l 1
 75 460 l 1
 258 460 l 1
EndSplineSet
EndChar

StartChar: uni0437
Encoding: 1079 1079 439
Width: 539
VWidth: 0
Flags: HW
LayerCount: 2
Fore
SplineSet
285 229 m 1
 294 280 l 1
 322 282 348 295 352 317 c 0
 354 334 340 348 318 348 c 0
 290 348 272 329 266 302 c 1
 111 303 l 1
 130 403 210 470 326 470 c 0
 422 470 521 422 509 334 c 0
 497 251 398 226 285 229 c 1
260 -10 m 0
 134 -10 59 52 55 162 c 1
 211 161 l 1
 219 130 234 109 268 109 c 0
 306 109 334 128 338 156 c 0
 343 188 315 199 281 201 c 1
 290 260 l 1
 402 262 506 228 494 134 c 0
 482 40 371 -10 260 -10 c 0
EndSplineSet
EndChar

StartChar: uni0438
Encoding: 1080 1080 440
Width: 587
VWidth: 0
Flags: HW
LayerCount: 2
Fore
SplineSet
557 312 m 1
 14 -44 l 1
 55 148 l 1
 598 504 l 1
 557 312 l 1
268 460 m 1
 208 111 l 1
 14 -44 l 1
 104 460 l 1
 268 460 l 1
598 504 m 1
 509 0 l 1
 344 0 l 1
 404 349 l 1
 598 504 l 1
EndSplineSet
EndChar

StartChar: uni0439
Encoding: 1081 1081 441
Width: 587
VWidth: 0
Flags: HW
LayerCount: 2
Fore
SplineSet
557 312 m 1
 14 -44 l 1
 55 148 l 1
 598 504 l 1
 557 312 l 1
268 460 m 1
 208 111 l 1
 14 -44 l 1
 104 460 l 1
 268 460 l 1
598 504 m 1
 509 0 l 1
 344 0 l 1
 404 349 l 1
 598 504 l 1
216 696 m 1
 319 696 l 1
 320 665 336 644 366 642 c 0
 398 640 424 666 432 696 c 1
 540 696 l 1
 523 612 460 549 360 549 c 0
 262 549 212 610 216 696 c 1
EndSplineSet
EndChar

StartChar: uni043A
Encoding: 1082 1082 442
Width: 593
VWidth: 0
Flags: HW
LayerCount: 2
Fore
SplineSet
101 460 m 1
 267 460 l 1
 188 0 l 1
 22 0 l 1
 101 460 l 1
418 460 m 1
 632 460 l 1
 400 264 l 1
 562 0 l 1
 374 0 l 1
 204 276 l 1
 418 460 l 1
EndSplineSet
EndChar

StartChar: uni043B
Encoding: 1083 1083 443
Width: 623
VWidth: 0
Flags: HW
LayerCount: 2
Fore
SplineSet
602 460 m 1
 522 0 l 1
 356 0 l 1
 409 304 l 1
 268 304 l 1
 244 160 l 1
 221 41 138 3 -16 0 c 1
 5 153 l 1
 45 156 76 166 86 210 c 1
 130 460 l 1
 602 460 l 1
EndSplineSet
EndChar

StartChar: uni043C
Encoding: 1084 1084 444
Width: 651
VWidth: 0
Flags: HW
LayerCount: 2
Fore
SplineSet
453 0 m 1
 448 308 l 1
 566 502 l 1
 620 0 l 1
 453 0 l 1
294 157 m 1
 566 502 l 1
 537 272 l 1
 294 -32 l 1
 294 157 l 1
294 -32 m 1
 156 286 l 1
 201 496 l 1
 352 142 l 1
 294 -32 l 1
-28 0 m 1
 201 496 l 1
 252 291 l 1
 147 0 l 1
 -28 0 l 1
EndSplineSet
EndChar

StartChar: uni043D
Encoding: 1085 1085 445
Width: 610
VWidth: 0
Flags: HW
LayerCount: 2
Fore
SplineSet
100 180 m 1
 122 304 l 1
 496 304 l 1
 474 180 l 1
 100 180 l 1
447 460 m 1
 613 460 l 1
 534 0 l 1
 368 0 l 1
 447 460 l 1
102 460 m 1
 268 460 l 1
 188 0 l 1
 23 0 l 1
 102 460 l 1
EndSplineSet
EndChar

StartChar: uni043E
Encoding: 1086 1086 446
Width: 584
VWidth: 0
Flags: HW
LayerCount: 2
Fore
SplineSet
40 230 m 0
 60 374 188 470 338 470 c 0
 484 470 588 372 569 230 c 0
 549 86 422 -10 272 -10 c 0
 126 -10 21 88 40 230 c 0
216 229 m 0
 208 178 231 132 282 130 c 0
 335 128 384 175 394 231 c 0
 402 282 379 328 328 330 c 0
 275 332 226 285 216 229 c 0
EndSplineSet
EndChar

StartChar: uni043F
Encoding: 1087 1087 447
Width: 572
VWidth: 0
Flags: HW
LayerCount: 2
Fore
SplineSet
574 460 m 1
 495 0 l 1
 329 0 l 1
 383 312 l 1
 242 312 l 1
 188 0 l 1
 22 0 l 1
 102 460 l 1
 574 460 l 1
EndSplineSet
EndChar

StartChar: uni0440
Encoding: 1088 1088 448
Width: 611
VWidth: 0
Flags: HW
LayerCount: 2
Fore
SplineSet
158 -220 m 1
 -16 -220 l 1
 102 460 l 1
 274 460 l 1
 158 -220 l 1
597 230 m 0
 579 87 472 -18 350 -18 c 0
 220 -18 182 104 197 230 c 0
 214 362 292 477 420 478 c 0
 542 479 613 368 597 230 c 0
417 231 m 0
 425 283 398 324 346 326 c 0
 296 328 244 286 235 229 c 0
 227 175 254 136 302 134 c 0
 355 132 408 176 417 231 c 0
EndSplineSet
EndChar

StartChar: uni0441
Encoding: 1089 1089 449
Width: 480
VWidth: 0
Flags: HW
LayerCount: 2
Fore
SplineSet
215 229 m 0
 205 170 240 127 300 125 c 0
 352 123 402 151 438 188 c 1
 417 26 l 1
 379 4 335 -10 275 -10 c 0
 127 -10 20 88 39 230 c 0
 59 376 188 470 340 470 c 0
 400 470 443 455 481 435 c 1
 459 273 l 1
 435 314 393 336 349 336 c 0
 287 336 227 287 215 229 c 0
EndSplineSet
EndChar

StartChar: uni0442
Encoding: 1090 1090 450
Width: 338
VWidth: 0
Flags: HW
LayerCount: 2
Fore
SplineSet
54 460 m 1
 388 460 l 1
 363 320 l 1
 30 320 l 1
 54 460 l 1
135 440 m 1
 300 440 l 1
 224 0 l 1
 60 0 l 1
 135 440 l 1
EndSplineSet
EndChar

StartChar: uni0443
Encoding: 1091 1091 451
Width: 528
VWidth: 0
Flags: HW
LayerCount: 2
Fore
SplineSet
597 460 m 1
 189 -220 l 1
 15 -220 l 1
 167 34 l 1
 41 460 l 1
 222 460 l 1
 303 88 l 1
 211 89 l 1
 419 460 l 1
 597 460 l 1
EndSplineSet
EndChar

StartChar: uni0444
Encoding: 1092 1092 452
Width: 670
VWidth: 0
Flags: HW
LayerCount: 2
Fore
SplineSet
324 560 m 1
 485 560 l 1
 372 -100 l 1
 210 -100 l 1
 324 560 l 1
40 230 m 0
 62 384 203 471 381 471 c 0
 552 471 677 383 655 230 c 0
 633 76 493 -10 315 -10 c 0
 144 -10 18 77 40 230 c 0
193 230 m 0
 177 160 234 130 324 130 c 0
 421 130 486 160 502 230 c 0
 518 300 462 330 372 330 c 0
 275 330 209 300 193 230 c 0
EndSplineSet
EndChar

StartChar: uni0445
Encoding: 1093 1093 453
Width: 549
VWidth: 0
Flags: HW
LayerCount: 2
Fore
SplineSet
403 460 m 1
 598 460 l 1
 380 232 l 1
 528 0 l 1
 346 0 l 1
 277 124 l 1
 178 0 l 1
 -24 0 l 1
 205 244 l 1
 65 460 l 1
 255 460 l 1
 311 353 l 1
 403 460 l 1
EndSplineSet
EndChar

StartChar: uni0446
Encoding: 1094 1094 454
Width: 619
VWidth: 0
Flags: HW
LayerCount: 2
Fore
SplineSet
526 140 m 1
 605 140 l 1
 562 -106 l 1
 398 -106 l 1
 418 0 l 1
 23 0 l 1
 102 460 l 1
 276 460 l 1
 220 140 l 1
 353 140 l 1
 408 460 l 1
 582 460 l 1
 526 140 l 1
EndSplineSet
EndChar

StartChar: uni0447
Encoding: 1095 1095 455
Width: 549
VWidth: 0
Flags: HW
LayerCount: 2
Fore
SplineSet
220 109 m 1
 289 247 l 1
 394 248 l 1
 370 109 l 1
 220 109 l 1
369 460 m 1
 543 460 l 1
 464 0 l 1
 291 0 l 1
 369 460 l 1
271 460 m 1
 244 312 l 2
 236 267 253 247 289 247 c 1
 220 109 l 1
 86 109 59 204 76 328 c 2
 98 460 l 1
 271 460 l 1
EndSplineSet
EndChar

StartChar: uni0448
Encoding: 1096 1096 456
Width: 827
VWidth: 0
Flags: HW
LayerCount: 2
Fore
SplineSet
493 140 m 1
 609 140 l 1
 664 460 l 1
 830 460 l 1
 751 0 l 1
 23 0 l 1
 102 460 l 1
 268 460 l 1
 212 140 l 1
 328 140 l 1
 384 460 l 1
 549 460 l 1
 493 140 l 1
EndSplineSet
EndChar

StartChar: uni0449
Encoding: 1097 1097 457
Width: 866
VWidth: 0
Flags: HW
LayerCount: 2
Fore
SplineSet
493 140 m 1
 608 140 l 1
 664 460 l 1
 829 460 l 1
 774 140 l 1
 852 140 l 1
 809 -106 l 1
 646 -106 l 1
 665 0 l 1
 23 0 l 1
 102 460 l 1
 268 460 l 1
 212 140 l 1
 328 140 l 1
 384 460 l 1
 549 460 l 1
 493 140 l 1
EndSplineSet
EndChar

StartChar: uni044A
Encoding: 1098 1098 458
Width: 603
VWidth: 0
Flags: HW
LayerCount: 2
Fore
SplineSet
266 204 m 1
 282 310 l 1
 415 310 l 2
 505 310 575 263 563 167 c 0
 551 71 472 0 378 0 c 2
 228 0 l 1
 252 130 l 1
 352 130 l 2
 377 130 399 145 404 168 c 0
 408 188 394 204 373 204 c 2
 266 204 l 1
159 320 m 1
 30 320 l 1
 54 460 l 1
 340 460 l 1
 261 0 l 1
 104 0 l 1
 159 320 l 1
EndSplineSet
EndChar

StartChar: uni044B
Encoding: 1099 1099 459
Width: 775
VWidth: 0
Flags: HW
LayerCount: 2
Fore
SplineSet
604 460 m 1
 777 460 l 1
 697 0 l 1
 524 0 l 1
 604 460 l 1
102 460 m 1
 276 460 l 1
 196 0 l 1
 23 0 l 1
 102 460 l 1
197 204 m 1
 214 310 l 1
 346 310 l 2
 436 310 506 263 494 167 c 0
 482 71 403 0 309 0 c 2
 160 0 l 1
 183 130 l 1
 283 130 l 2
 308 130 331 145 336 168 c 0
 340 188 325 204 304 204 c 2
 197 204 l 1
EndSplineSet
EndChar

StartChar: uni044C
Encoding: 1100 1100 460
Width: 547
VWidth: 0
Flags: HW
LayerCount: 2
Fore
SplineSet
110 460 m 1
 284 460 l 1
 204 0 l 1
 32 0 l 1
 110 460 l 1
204 204 m 1
 222 310 l 1
 354 310 l 2
 444 310 514 263 502 167 c 0
 490 71 411 0 317 0 c 2
 166 0 l 1
 192 130 l 1
 291 130 l 2
 316 130 339 145 344 168 c 0
 348 188 334 204 312 204 c 2
 204 204 l 1
EndSplineSet
EndChar

StartChar: uni044D
Encoding: 1101 1101 461
Width: 483
VWidth: 0
Flags: HW
LayerCount: 2
Fore
SplineSet
120 284 m 1
 410 284 l 1
 378 176 l 1
 101 176 l 1
 120 284 l 1
292 230 m 0
 302 297 278 356 213 359 c 0
 165 361 110 334 74 298 c 1
 92 436 l 1
 130 455 174 470 234 470 c 0
 382 470 487 372 468 230 c 0
 448 84 319 -10 167 -10 c 0
 106 -10 64 4 26 27 c 1
 45 164 l 1
 69 122 107 100 155 100 c 0
 223 100 279 152 292 230 c 0
EndSplineSet
EndChar

StartChar: uni044E
Encoding: 1102 1102 462
Width: 817
VWidth: 0
Flags: HW
LayerCount: 2
Fore
SplineSet
100 180 m 1
 122 304 l 1
 418 304 l 1
 396 180 l 1
 100 180 l 1
102 460 m 1
 268 460 l 1
 188 0 l 1
 23 0 l 1
 102 460 l 1
274 230 m 0
 294 374 421 470 571 470 c 0
 717 470 822 372 803 230 c 0
 783 86 656 -10 506 -10 c 0
 360 -10 255 88 274 230 c 0
450 229 m 0
 442 178 464 132 515 130 c 0
 568 128 616 175 626 231 c 0
 634 282 612 328 561 330 c 0
 508 332 460 285 450 229 c 0
EndSplineSet
EndChar

StartChar: uni044F
Encoding: 1103 1103 463
Width: 547
VWidth: 0
Flags: HW
LayerCount: 2
Fore
SplineSet
186 0 m 1
 1 0 l 1
 175 199 l 1
 335 199 l 1
 186 0 l 1
486 0 m 1
 312 0 l 1
 392 460 l 1
 565 460 l 1
 486 0 l 1
417 270 m 1
 400 160 l 1
 268 160 l 1
 176 162 84 211 97 315 c 0
 109 417 209 458 303 460 c 2
 452 460 l 1
 428 326 l 1
 322 326 l 2
 295 326 265 321 261 298 c 0
 258 278 278 270 302 270 c 2
 417 270 l 1
EndSplineSet
EndChar

